Dactyl Scratch.sfdir
StartChar: !
Encoding: 33 33 0
Width: 226
InSpiro: 1
        Flags: H
        LayerCount: 2
        Back
        SplineSet
52 718 m 0
72 700 l 0
61 275 l 0
52 718 l 0
Z
81 718 m 0
102 700 l 0
91 275 l 0
81 718 l 0
Z
111 718 m 0
132 700 l 0
121 275 l 0
111 718 l 0
Z
89 70 m 0
88 70 87 70 86 70 c 0
86 71 85 71 85 72 c 0
84 73 84 75 84 76 c 0
85 78 86 79 87 80 c 0
88 81 89 82 91 83 c 0
94 84 97 84 100 85 c 0
101 85 103 86 104 87 c 0
105 87 107 88 108 90 c 0
109 92 110 95 109 97 c 0
109 100 107 103 105 105 c 0
103 106 100 108 98 108 c 0
95 109 92 109 90 110 c 0
86 110 83 109 81 109 c 0
78 108 75 107 73 105 c 0
70 103 69 100 68 97 c 0
68 95 68 94 68 92 c 0
69 91 69 90 71 89 c 0
72 87 73 87 74 86 c 0
76 85 77 85 78 85 c 0
81 84 84 84 87 83 c 0
89 82 90 81 91 80 c 0
92 79 93 78 94 76 c 0
94 75 94 73 93 72 c 0
93 71 92 71 92 70 c 0
91 70 90 70 90 70 c 0
89 69 89 69 89 70 c 0
Z
89 85 m 0
88 85 88 85 88 85 c 0
88 86 88 86 88 86 c 0
88 86 88 87 88 87 c 0
89 87 89 87 89 88 c 0
90 88 90 88 91 88 c 0
92 89 92 89 93 90 c 0
93 90 93 91 93 91 c 0
93 92 93 92 92 93 c 0
92 93 92 94 91 94 c 0
91 94 90 94 90 95 c 0
89 95 88 95 87 94 c 0
86 94 86 94 85 93 c 0
85 92 84 91 84 91 c 0
84 90 85 89 86 89 c 0
86 88 87 88 87 88 c 0
88 88 88 88 89 87 c 0
89 87 89 87 90 87 c 0
90 87 90 86 90 86 c 0
90 86 90 85 90 85 c 0
90 85 90 85 90 85 c 0
89 84 89 84 89 85 c 0
Z
Spiro
52 718 v
72 700 v
61 275 v
81 718 v
102 700 v
91 275 v
111 718 v
132 700 v
121 275 v
89 70 c
108 90 c
90 110 c
71 89 c
90 70 c
90 50 c
49 90 c
89 130 c
131 89 c
90 50 c
89 85 c
93 90 c
90 95 c
86 89 c
90 85 c
90 65 c
63 90 c
89 115 c
116 89 c
90 65 c
0 0 z
EndSpiro
EndSplineSet
        Fore
        SplineSet
-16 717 m 0
25 680 l 0
3 231 l 0
-16 717 l 0
Z
43 717 m 0
85 680 l 0
63 231 l 0
43 717 l 0
Z
103 717 m 0
145 680 l 0
123 231 l 0
103 717 l 0
Z
59 20 m 0
57 20 55 20 54 21 c 0
53 22 52 23 51 24 c 0
49 27 49 30 50 33 c 0
50 36 52 39 54 41 c 0
57 43 59 45 62 46 c 0
68 48 74 49 80 51 c 0
83 51 86 52 89 54 c 0
92 55 95 57 97 60 c 0
100 64 101 70 100 76 c 0
99 81 96 86 92 90 c 0
87 94 82 96 76 98 c 0
71 99 65 100 60 100 c 0
54 99 48 99 42 98 c 0
37 96 31 93 27 90 c 0
23 86 19 81 18 75 c 0
17 69 19 63 23 59 c 0
24 56 27 54 30 53 c 0
32 52 35 51 38 50 c 0
44 49 50 48 56 46 c 0
59 44 61 43 64 41 c 0
66 39 67 36 68 33 c 0
69 30 69 27 67 24 c 0
66 23 65 22 64 21 c 0
63 20 61 20 60 20 c 0
59 19 59 19 59 20 c 0
Z
59 50 m 0
58 50 57 50 57 51 c 0
57 51 57 52 57 53 c 0
57 53 57 54 58 55 c 0
58 55 59 55 59 56 c 0
60 57 62 57 63 57 c 0
64 58 66 58 67 60 c 0
67 60 68 62 68 63 c 0
68 64 67 66 66 67 c 0
65 68 64 68 63 69 c 0
62 69 61 69 60 70 c 0
58 70 57 69 55 69 c 0
54 68 53 67 52 66 c 0
51 65 51 64 51 62 c 0
51 61 51 59 53 59 c 0
53 58 55 57 56 57 c 0
57 56 58 56 59 55 c 0
60 55 60 55 60 54 c 0
61 54 61 53 61 52 c 0
61 52 61 51 61 51 c 0
61 50 60 50 60 50 c 0
59 49 59 49 59 50 c 0
Z
Spiro
-16 717 v
25 680 v
3 231 v
43 717 v
85 680 v
63 231 v
103 717 v
145 680 v
123 231 v
59 20 c
97 60 c
60 100 c
23 59 c
60 20 c
60 -20 c
-23 60 c
59 140 c
143 59 c
60 -20 c
59 50 c
67 60 c
60 70 c
53 59 c
60 50 c
60 10 c
7 60 c
59 110 c
113 59 c
60 10 c
0 0 z
EndSpiro
EndSplineSet
        EndChar
StartChar: "
Encoding: 34 34 0
Width: 376
InSpiro: 1
        Flags: H
        LayerCount: 2
        Back
        SplineSet
52 718 m 0
72 700 l 0
61 525 l 0
52 718 l 0
Z
81 718 m 0
102 700 l 0
91 525 l 0
81 718 l 0
Z
111 718 m 0
132 700 l 0
121 525 l 0
111 718 l 0
Z
201 718 m 0
222 700 l 0
211 525 l 0
201 718 l 0
Z
231 718 m 0
252 700 l 0
241 525 l 0
231 718 l 0
Z
261 718 m 0
282 700 l 0
271 525 l 0
261 718 l 0
Z
Spiro
52 718 v
72 700 v
61 525 v
81 718 v
102 700 v
91 525 v
111 718 v
132 700 v
121 525 v
201 718 v
222 700 v
211 525 v
231 718 v
252 700 v
241 525 v
261 718 v
282 700 v
271 525 v
0 0 z
EndSpiro
EndSplineSet
        Fore
        SplineSet
-16 717 m 0
25 680 l 0
3 481 l 0
-16 717 l 0
Z
43 717 m 0
85 680 l 0
63 481 l 0
43 717 l 0
Z
103 717 m 0
145 680 l 0
123 481 l 0
103 717 l 0
Z
133 717 m 0
175 680 l 0
153 481 l 0
133 717 l 0
Z
193 717 m 0
235 680 l 0
213 481 l 0
193 717 l 0
Z
253 717 m 0
295 680 l 0
273 481 l 0
253 717 l 0
Z
Spiro
-16 717 v
25 680 v
3 481 v
43 717 v
85 680 v
63 481 v
103 717 v
145 680 v
123 481 v
133 717 v
175 680 v
153 481 v
193 717 v
235 680 v
213 481 v
253 717 v
295 680 v
273 481 v
0 0 z
EndSpiro
EndSplineSet
        EndChar
StartChar: #
Encoding: 35 35 0
Width: 526
InSpiro: 1
        Flags: H
        LayerCount: 2
        Back
        SplineSet
60 450 m 0
77 470 l 0
405 460 l 0
60 450 l 0
Z
60 480 m 0
78 500 l 0
405 490 l 0
60 480 l 0
Z
60 510 m 0
78 530 l 0
405 520 l 0
60 510 l 0
Z
60 250 m 0
77 270 l 0
405 260 l 0
60 250 l 0
Z
60 280 m 0
78 300 l 0
405 290 l 0
60 280 l 0
Z
60 310 m 0
78 330 l 0
405 320 l 0
60 310 l 0
Z
276 718 m 0
297 700 l 0
286 75 l 0
276 718 l 0
Z
306 718 m 0
327 700 l 0
316 75 l 0
306 718 l 0
Z
336 718 m 0
357 700 l 0
346 75 l 0
336 718 l 0
Z
126 718 m 0
147 700 l 0
136 75 l 0
126 718 l 0
Z
156 718 m 0
177 700 l 0
166 75 l 0
156 718 l 0
Z
186 718 m 0
207 700 l 0
196 75 l 0
186 718 l 0
Z
Spiro
60 450 v
77 470 v
405 460 v
60 480 v
78 500 v
405 490 v
60 510 v
78 530 v
405 520 v
60 250 v
77 270 v
405 260 v
60 280 v
78 300 v
405 290 v
60 310 v
78 330 v
405 320 v
276 718 v
297 700 v
286 75 v
306 718 v
327 700 v
316 75 v
336 718 v
357 700 v
346 75 v
126 718 v
147 700 v
136 75 v
156 718 v
177 700 v
166 75 v
186 718 v
207 700 v
196 75 v
0 0 z
EndSpiro
EndSplineSet
        Fore
        SplineSet
0 381 m 0
36 420 l 0
391 400 l 0
0 381 l 0
Z
0 441 m 0
37 480 l 0
391 460 l 0
0 441 l 0
Z
0 501 m 0
37 540 l 0
391 520 l 0
0 501 l 0
Z
0 181 m 0
36 220 l 0
391 200 l 0
0 181 l 0
Z
0 241 m 0
37 280 l 0
391 260 l 0
0 241 l 0
Z
0 301 m 0
37 340 l 0
391 320 l 0
0 301 l 0
Z
208 717 m 0
250 680 l 0
228 31 l 0
208 717 l 0
Z
268 717 m 0
310 680 l 0
288 31 l 0
268 717 l 0
Z
328 717 m 0
370 680 l 0
348 31 l 0
328 717 l 0
Z
58 717 m 0
100 680 l 0
78 31 l 0
58 717 l 0
Z
118 717 m 0
160 680 l 0
138 31 l 0
118 717 l 0
Z
178 717 m 0
220 680 l 0
198 31 l 0
178 717 l 0
Z
Spiro
0 381 v
36 420 v
391 400 v
0 441 v
37 480 v
391 460 v
0 501 v
37 540 v
391 520 v
0 181 v
36 220 v
391 200 v
0 241 v
37 280 v
391 260 v
0 301 v
37 340 v
391 320 v
208 717 v
250 680 v
228 31 v
268 717 v
310 680 v
288 31 v
328 717 v
370 680 v
348 31 v
58 717 v
100 680 v
78 31 v
118 717 v
160 680 v
138 31 v
178 717 v
220 680 v
198 31 v
0 0 z
EndSpiro
EndSplineSet
        EndChar
StartChar: %
Encoding: 37 37 0
Width: 526
InSpiro: 1
        Flags: H
        LayerCount: 2
        Back
        SplineSet
360 663 m 0
360 662 l 0
60 61 l 0
360 663 l 0
Z
362 663 m 0
362 662 l 0
61 61 l 0
362 663 l 0
Z
363 662 m 0
363 661 l 0
62 60 l 0
363 662 l 0
Z
62 542 m 0
53 552 48 565 47 579 c 0
46 592 48 606 54 618 c 0
60 630 70 641 81 648 c 0
93 655 106 659 120 660 c 0
133 660 147 656 159 649 c 0
170 642 180 631 186 619 c 0
192 607 195 593 194 579 c 0
193 566 188 552 180 542 c 0
166 523 143 512 120 512 c 0
98 512 75 523 62 542 c 0
Z
179 543 m 0
187 553 192 566 193 579 c 0
194 593 191 606 185 618 c 0
179 630 170 641 159 648 c 0
147 655 134 659 121 659 c 0
107 658 94 655 82 648 c 0
71 641 62 630 56 618 c 0
50 606 47 593 48 579 c 0
49 566 54 553 63 543 c 0
76 525 98 513 121 513 c 0
143 513 165 525 179 543 c 0
Z
60 541 m 0
51 552 46 565 45 579 c 0
44 593 47 608 53 620 c 0
59 633 69 643 81 651 c 0
93 658 107 662 122 662 c 0
135 661 149 657 161 650 c 0
173 642 182 632 188 619 c 0
195 607 197 593 196 579 c 0
195 565 190 552 182 541 c 0
167 522 144 510 120 510 c 0
97 510 74 522 60 541 c 0
Z
181 542 m 0
189 553 194 566 195 580 c 0
196 593 193 607 187 619 c 0
181 632 171 642 160 649 c 0
148 657 134 661 121 661 c 0
107 660 93 657 81 649 c 0
70 642 60 632 54 619 c 0
48 607 45 593 46 580 c 0
47 566 52 553 61 542 c 0
74 523 97 511 121 511 c 0
144 511 167 523 181 542 c 0
Z
60 539 m 0
51 550 45 564 44 578 c 0
43 592 45 607 52 620 c 0
58 633 68 644 81 651 c 0
93 659 107 663 122 663 c 0
136 662 150 658 162 651 c 0
174 643 184 632 190 619 c 0
197 607 199 592 198 578 c 0
197 564 191 550 183 539 c 0
168 520 145 508 121 508 c 0
97 508 74 520 60 539 c 0
Z
182 540 m 0
190 551 195 564 196 578 c 0
198 592 195 607 189 619 c 0
182 632 173 643 161 650 c 0
149 658 135 662 121 662 c 0
106 661 92 658 80 650 c 0
68 643 59 632 52 619 c 0
46 607 43 592 45 578 c 0
46 564 51 551 60 540 c 0
74 521 97 509 121 509 c 0
144 509 167 521 182 540 c 0
Z
360 180 m 0
368 169 373 156 374 142 c 0
375 129 373 115 367 103 c 0
361 91 351 80 340 73 c 0
328 66 315 62 302 62 c 0
288 61 274 65 262 72 c 0
251 79 241 90 235 102 c 0
229 114 226 128 227 142 c 0
228 155 233 169 242 180 c 0
255 198 278 209 301 209 c 0
323 209 346 198 360 180 c 0
Z
243 179 m 0
234 168 229 155 228 142 c 0
227 128 230 115 236 103 c 0
242 91 251 80 262 73 c 0
274 66 287 62 301 63 c 0
314 63 327 66 339 73 c 0
350 80 359 91 365 103 c 0
371 115 374 128 373 142 c 0
372 155 367 168 359 179 c 0
345 196 323 208 300 208 c 0
278 208 256 196 243 179 c 0
Z
362 182 m 0
370 170 375 157 376 143 c 0
377 129 374 114 368 102 c 0
362 89 352 79 340 71 c 0
328 64 314 60 300 61 c 0
286 61 272 65 260 72 c 0
248 80 239 90 233 103 c 0
226 115 224 129 225 143 c 0
226 157 231 170 240 182 c 0
254 200 277 212 301 212 c 0
324 212 347 200 362 182 c 0
Z
241 181 m 0
232 169 227 156 226 142 c 0
225 129 228 115 234 103 c 0
240 90 250 80 261 73 c 0
273 65 287 61 301 62 c 0
314 62 328 65 340 73 c 0
351 80 361 90 367 103 c 0
373 115 376 129 375 142 c 0
374 156 369 169 361 181 c 0
347 199 324 211 300 211 c 0
277 211 254 199 241 181 c 0
Z
363 183 m 0
371 171 376 157 377 143 c 0
379 129 376 114 369 101 c 0
363 89 353 78 340 71 c 0
328 63 314 59 300 60 c 0
285 60 271 64 259 71 c 0
247 79 238 90 231 102 c 0
225 115 222 129 224 143 c 0
225 157 230 171 239 183 c 0
253 202 276 214 301 214 c 0
325 214 348 202 363 183 c 0
Z
240 182 m 0
231 170 226 157 225 143 c 0
223 129 226 114 232 102 c 0
239 89 248 78 260 71 c 0
272 63 286 59 301 60 c 0
315 60 329 63 341 71 c 0
353 78 362 89 369 102 c 0
375 114 378 129 376 143 c 0
375 157 370 170 362 182 c 0
347 200 324 212 300 212 c 0
277 212 254 200 240 182 c 0
Z
Spiro
360 663 v
360 662 v
60 61 v
362 663 v
362 662 v
61 61 v
363 662 v
363 661 v
62 60 v
62 542 c
120 660 c
180 542 c
179 543 c
121 659 c
63 543 c
60 541 c
122 662 c
182 541 c
181 542 c
121 661 c
61 542 c
60 539 c
122 663 c
183 539 c
182 540 c
121 662 c
60 540 c
360 180 c
302 62 c
242 180 c
243 179 c
301 63 c
359 179 c
362 182 c
300 61 c
240 182 c
241 181 c
301 62 c
361 181 c
363 183 c
300 60 c
239 183 c
240 182 c
301 60 c
362 182 c
0 0 z
EndSpiro
EndSplineSet
        Fore
        SplineSet
318 745 m 0
338 694 l 0
-4 60 l 0
318 745 l 0
Z
371 719 m 0
391 668 l 0
48 34 l 0
371 719 l 0
Z
425 692 m 0
445 641 l 0
102 7 l 0
425 692 l 0
Z
96 572 m 0
93 579 94 588 98 594 c 0
102 601 110 605 118 606 c 0
122 606 126 605 130 603 c 0
134 601 137 598 139 595 c 0
142 591 143 587 144 583 c 0
144 579 143 574 142 571 c 0
140 566 136 562 132 560 c 0
128 557 123 556 118 556 c 0
113 556 108 557 104 560 c 0
100 563 97 567 96 572 c 0
Z
125 578 m 0
126 579 127 580 127 582 c 0
128 584 128 586 127 587 c 0
126 589 125 590 124 591 c 0
122 592 120 593 119 593 c 0
117 592 115 592 114 591 c 0
113 590 112 589 111 587 c 0
111 586 110 584 111 583 c 0
111 581 111 580 113 579 c 0
114 577 116 576 118 576 c 0
121 575 123 576 125 578 c 0
Z
49 536 m 0
40 548 35 563 35 578 c 0
34 593 38 609 45 622 c 0
52 635 63 646 76 654 c 0
89 662 104 666 120 666 c 0
134 665 149 661 162 653 c 0
175 645 186 634 193 621 c 0
200 608 203 593 202 578 c 0
202 563 197 548 189 536 c 0
173 512 146 498 119 498 c 0
91 498 64 512 49 536 c 0
Z
174 543 m 0
181 553 186 565 187 578 c 0
188 590 186 603 180 614 c 0
174 626 165 636 155 642 c 0
144 649 131 653 119 653 c 0
106 652 93 649 82 642 c 0
72 636 63 626 57 614 c 0
51 603 49 590 50 578 c 0
51 565 56 553 64 543 c 0
76 525 97 515 119 515 c 0
140 515 161 525 174 543 c 0
Z
1 499 m 0
-14 520 -23 546 -24 572 c 0
-26 598 -20 625 -8 648 c 0
3 671 22 691 45 704 c 0
67 718 93 725 120 725 c 0
145 724 171 717 193 703 c 0
215 690 234 670 246 647 c 0
258 624 263 598 262 572 c 0
260 546 251 521 237 500 c 0
210 461 165 437 119 437 c 0
73 437 27 461 1 499 c 0
Z
222 507 m 0
236 525 244 548 246 572 c 0
248 595 244 620 233 641 c 0
222 662 206 680 186 692 c 0
166 705 142 711 119 712 c 0
95 712 71 705 51 692 c 0
30 680 14 662 3 640 c 0
-7 619 -11 595 -9 571 c 0
-7 548 1 524 16 506 c 0
39 474 79 454 119 454 c 0
159 455 198 474 222 507 c 0
Z
322 146 m 0
324 138 323 129 319 123 c 0
315 116 307 112 300 112 c 0
295 111 291 112 287 114 c 0
283 116 280 119 278 122 c 0
275 126 274 130 273 134 c 0
273 138 274 143 276 147 c 0
277 151 281 155 285 157 c 0
289 160 294 161 299 161 c 0
304 161 309 160 313 157 c 0
317 154 320 150 322 146 c 0
Z
293 140 m 0
291 138 290 137 290 135 c 0
289 133 289 131 290 130 c 0
291 128 292 127 293 126 c 0
295 125 297 124 299 125 c 0
300 125 302 125 303 126 c 0
304 127 305 128 306 130 c 0
306 131 307 133 306 134 c 0
306 136 306 137 305 139 c 0
303 140 301 141 299 141 c 0
296 142 294 141 293 140 c 0
Z
369 183 m 0
377 170 382 155 382 140 c 0
383 125 379 109 372 96 c 0
365 83 354 72 341 64 c 0
328 56 313 52 298 53 c 0
283 53 268 57 255 65 c 0
242 73 231 84 224 97 c 0
217 110 214 125 215 140 c 0
215 155 220 170 229 183 c 0
244 206 271 220 298 220 c 0
326 220 353 206 369 183 c 0
Z
244 176 m 0
236 165 231 153 230 140 c 0
229 128 231 115 237 104 c 0
243 92 252 82 262 76 c 0
273 69 286 65 299 66 c 0
311 66 324 69 335 76 c 0
345 82 354 92 360 104 c 0
366 115 368 128 367 140 c 0
366 153 361 165 354 176 c 0
341 193 320 203 298 203 c 0
277 203 256 193 244 176 c 0
Z
417 219 m 0
431 197 440 171 442 145 c 0
443 119 438 93 425 70 c 0
413 47 395 27 372 14 c 0
350 0 324 -6 298 -6 c 0
272 -5 246 1 224 15 c 0
202 28 184 48 172 70 c 0
160 93 154 119 156 145 c 0
157 171 166 196 181 218 c 0
207 256 252 280 298 280 c 0
344 280 390 256 417 219 c 0
Z
196 211 m 0
181 192 173 169 171 145 c 0
169 122 173 97 184 76 c 0
195 55 211 37 231 25 c 0
251 12 275 6 299 6 c 0
322 5 346 12 366 25 c 0
387 37 403 55 414 77 c 0
425 98 429 122 427 146 c 0
425 169 416 193 402 212 c 0
378 243 338 263 298 263 c 0
258 262 219 243 196 211 c 0
Z
Spiro
318 745 v
338 694 v
-4 60 v
371 719 v
391 668 v
48 34 v
425 692 v
445 641 v
102 7 v
96 572 c
118 606 c
142 571 c
125 578 c
119 593 c
113 579 c
49 536 c
120 666 c
189 536 c
174 543 c
119 653 c
64 543 c
1 499 c
120 725 c
237 500 c
222 507 c
119 712 c
16 506 c
322 146 c
300 112 c
276 147 c
293 140 c
299 125 c
305 139 c
369 183 c
298 53 c
229 183 c
244 176 c
299 66 c
354 176 c
417 219 c
298 -6 c
181 218 c
196 211 c
299 6 c
402 212 c
0 0 z
EndSpiro
EndSplineSet
        EndChar
StartChar: &
Encoding: 38 38 0
Width: 526
InSpiro: 1
        Flags: H
        LayerCount: 2
        Back
        SplineSet
438 97 m 0
410 96 l 0
251 253 l 0
211 291 173 331 146 380 c 0
120 428 105 483 106 538 c 0
106 574 113 612 135 640 c 0
146 655 161 666 178 672 c 0
195 678 215 678 232 671 c 0
243 666 252 658 260 648 c 0
267 639 272 628 275 616 c 0
281 593 278 568 272 545 c 0
255 489 216 444 177 403 c 0
154 379 130 356 111 329 c 0
91 303 76 273 72 241 c 0
66 204 76 166 97 135 c 0
117 105 149 82 184 70 c 0
230 53 284 57 328 80 c 0
372 103 406 145 420 193 c 0
408 141 374 96 329 69 c 0
283 43 227 36 177 52 c 0
136 64 100 89 77 124 c 0
54 159 43 202 50 244 c 0
55 278 71 309 91 337 c 0
111 365 136 390 160 416 c 0
197 455 234 498 251 550 c 0
256 568 260 588 256 607 c 0
254 616 250 625 245 633 c 0
239 641 231 648 223 652 c 0
209 657 193 657 180 652 c 0
166 646 154 636 146 624 c 0
138 611 133 597 131 583 c 0
128 568 128 553 129 539 c 0
131 486 145 435 170 389 c 0
195 343 231 304 268 268 c 0
438 97 l 0
Z
416 76 m 0
388 75 l 0
229 232 l 0
186 273 145 317 116 369 c 0
88 421 73 480 76 540 c 0
77 585 90 631 120 665 c 0
136 682 155 695 177 701 c 0
199 708 223 707 244 699 c 0
258 692 271 683 281 671 c 0
291 659 298 644 303 629 c 0
312 599 310 567 302 537 c 0
284 476 243 426 199 382 c 0
178 361 156 341 138 317 c 0
120 294 105 267 102 238 c 0
98 208 106 177 123 152 c 0
139 127 164 109 193 99 c 0
232 84 278 87 315 107 c 0
352 126 381 162 392 203 c 0
383 158 354 118 316 95 c 0
277 72 229 66 186 80 c 0
152 90 122 111 102 140 c 0
82 169 74 206 79 241 c 0
83 272 98 301 117 326 c 0
137 352 159 374 182 397 c 0
222 439 261 485 279 542 c 0
286 567 289 594 283 620 c 0
279 633 274 645 265 655 c 0
257 666 247 674 235 680 c 0
217 687 196 687 178 681 c 0
159 675 143 663 131 648 c 0
107 618 99 577 99 539 c 0
98 482 113 426 140 377 c 0
167 328 206 286 246 247 c 0
416 76 l 0
Z
395 55 m 0
367 54 l 0
208 210 l 0
162 254 118 300 88 356 c 0
58 412 44 476 48 540 c 0
51 594 68 649 106 688 c 0
125 707 149 722 175 729 c 0
202 737 230 736 256 726 c 0
273 718 289 707 302 692 c 0
315 677 324 660 331 642 c 0
343 605 341 565 331 528 c 0
312 462 269 407 220 361 c 0
200 342 180 325 164 305 c 0
147 284 134 260 132 234 c 0
129 211 136 187 149 168 c 0
161 150 180 135 202 127 c 0
234 114 271 116 302 132 c 0
333 148 356 178 364 212 c 0
358 174 335 140 303 121 c 0
271 101 230 96 195 108 c 0
168 116 144 133 128 157 c 0
112 180 105 209 109 237 c 0
112 265 126 291 144 313 c 0
161 336 182 355 203 376 c 0
248 420 289 472 308 533 c 0
317 565 320 600 310 632 c 0
305 648 298 664 287 677 c 0
276 690 262 700 247 707 c 0
224 716 199 716 176 709 c 0
153 702 133 689 117 671 c 0
85 635 71 586 70 539 c 0
67 478 83 418 111 365 c 0
140 312 182 267 225 225 c 0
395 55 l 0
Z
Spiro
438 97 v
410 96 v
251 253 ]
106 538 c
232 671 c
272 545 c
177 403 c
72 241 c
184 70 c
420 193 v
177 52 c
50 244 c
160 416 c
251 550 c
223 652 c
129 539 c
268 268 [
416 76 v
388 75 v
229 232 ]
76 540 c
244 699 c
302 537 c
199 382 c
102 238 c
193 99 c
392 203 v
186 80 c
79 241 c
182 397 c
279 542 c
235 680 c
99 539 c
246 247 [
395 55 v
367 54 v
208 210 ]
48 540 c
256 726 c
331 528 c
220 361 c
132 234 c
202 127 c
364 212 v
195 108 c
109 237 c
203 376 c
308 533 c
247 707 c
70 539 c
225 225 [
0 0 z
EndSpiro
EndSplineSet
        Fore
        SplineSet
456 74 m 0
400 73 l 0
233 237 l 0
195 273 159 311 134 356 c 0
108 401 94 453 93 505 c 0
92 520 93 536 96 551 c 0
99 567 105 582 114 594 c 0
123 607 136 617 151 623 c 0
166 628 182 627 197 621 c 0
205 616 212 610 218 602 c 0
223 594 227 585 229 576 c 0
233 557 231 538 226 520 c 0
210 468 172 426 135 387 c 0
110 361 86 336 66 308 c 0
45 279 29 247 25 213 c 0
19 172 29 129 52 95 c 0
75 61 109 35 148 21 c 0
202 0 265 5 317 32 c 0
368 59 407 109 422 166 c 0
411 102 373 44 319 9 c 0
265 -24 196 -34 135 -17 c 0
85 -2 40 28 12 72 c 0
-16 115 -28 169 -19 220 c 0
-12 258 5 293 27 324 c 0
50 356 76 385 102 414 c 0
133 450 165 488 183 533 c 0
186 542 189 551 189 561 c 0
188 566 187 571 185 575 c 0
183 579 180 583 176 586 c 0
172 588 167 589 162 589 c 0
158 589 153 587 149 585 c 0
141 580 136 572 133 564 c 0
130 555 130 545 131 536 c 0
133 527 135 518 138 510 c 0
150 464 160 418 181 376 c 0
202 334 233 299 266 266 c 0
456 74 l 0
Z
413 32 m 0
357 31 l 0
190 195 l 0
146 237 104 281 75 335 c 0
46 388 30 449 34 510 c 0
36 559 51 609 85 644 c 0
102 662 124 675 147 682 c 0
171 688 197 687 220 678 c 0
251 664 274 636 284 603 c 0
294 571 293 536 284 504 c 0
266 441 224 390 178 345 c 0
157 325 136 305 118 283 c 0
101 261 87 235 84 207 c 0
80 179 88 151 103 128 c 0
118 105 141 88 167 78 c 0
206 62 253 64 291 85 c 0
329 105 357 143 366 186 c 0
361 136 333 90 293 62 c 0
252 35 199 27 152 41 c 0
116 51 84 74 63 105 c 0
42 136 33 175 39 212 c 0
43 244 59 274 79 300 c 0
98 327 122 350 145 374 c 0
184 415 222 460 239 515 c 0
246 537 249 562 243 586 c 0
241 597 236 609 228 618 c 0
221 628 212 636 201 641 c 0
184 648 165 648 148 642 c 0
131 636 117 624 106 610 c 0
84 582 78 544 79 509 c 0
79 454 94 399 120 351 c 0
146 303 184 262 223 224 c 0
413 32 l 0
Z
371 -10 m 0
315 -11 l 0
148 152 l 0
98 200 50 250 17 311 c 0
-14 373 -29 443 -24 512 c 0
-18 578 6 646 55 691 c 0
80 714 110 731 143 739 c 0
175 747 210 745 242 733 c 0
287 714 321 675 338 629 c 0
355 583 354 532 342 486 c 0
322 413 276 350 219 303 c 0
202 288 184 275 169 259 c 0
162 251 155 241 151 231 c 0
146 221 143 211 144 200 c 0
144 186 148 172 156 161 c 0
163 150 174 140 187 135 c 0
211 122 242 124 266 138 c 0
290 152 306 178 308 206 c 0
310 171 294 136 267 115 c 0
240 94 202 87 170 98 c 0
148 104 128 119 116 138 c 0
103 156 96 180 99 203 c 0
101 229 114 254 131 275 c 0
148 295 168 313 188 332 c 0
235 378 278 432 297 497 c 0
307 534 310 574 298 611 c 0
292 629 283 647 271 661 c 0
258 676 242 688 225 696 c 0
199 706 171 707 145 700 c 0
118 692 95 677 76 658 c 0
38 618 22 563 20 509 c 0
17 446 33 382 63 327 c 0
92 272 136 225 181 181 c 0
371 -10 l 0
Z
Spiro
456 74 v
400 73 v
233 237 ]
93 505 c
197 621 c
226 520 c
135 387 c
25 213 c
148 21 c
422 166 v
135 -17 c
-19 220 c
102 414 c
183 533 c
176 586 c
138 510 c
266 266 [
413 32 v
357 31 v
190 195 ]
34 510 c
220 678 c
284 504 c
178 345 c
84 207 c
167 78 c
366 186 v
152 41 c
39 212 c
145 374 c
239 515 c
201 641 c
79 509 c
223 224 [
371 -10 v
315 -11 v
148 152 ]
-24 512 c
242 733 c
342 486 c
219 303 c
144 200 c
187 135 c
308 206 v
170 98 c
99 203 c
188 332 c
297 497 c
225 696 c
20 509 c
181 181 [
0 0 z
EndSpiro
EndSplineSet
        EndChar
StartChar: '
Encoding: 39 39 0
Width: 226
InSpiro: 1
        Flags: H
        LayerCount: 2
        Back
        SplineSet
60 663 m 0
60 662 l 0
60 511 l 0
60 663 l 0
Z
61 663 m 0
62 662 l 0
62 511 l 0
61 663 l 0
Z
63 663 m 0
64 662 l 0
64 511 l 0
63 663 l 0
Z
Spiro
60 663 v
60 662 v
60 511 v
61 663 v
62 662 v
62 511 v
63 663 v
64 662 v
64 511 v
0 0 z
EndSpiro
EndSplineSet
        Fore
        SplineSet
-16 717 m 0
25 680 l 0
3 481 l 0
-16 717 l 0
Z
43 717 m 0
85 680 l 0
63 481 l 0
43 717 l 0
Z
103 717 m 0
145 680 l 0
123 481 l 0
103 717 l 0
Z
Spiro
-16 717 v
25 680 v
3 481 v
43 717 v
85 680 v
63 481 v
103 717 v
145 680 v
123 481 v
0 0 z
EndSpiro
EndSplineSet
        EndChar
StartChar: (
Encoding: 40 40 0
Width: 376
InSpiro: 1
        Flags: H
        LayerCount: 2
        Back
        SplineSet
237 767 m 0
236 741 l 0
135 654 73 523 72 390 c 0
70 254 130 118 232 29 c 0
120 113 51 250 50 390 c 0
48 535 119 680 237 767 c 0
Z
256 745 m 0
255 719 l 0
160 637 103 514 102 390 c 0
100 262 155 135 251 51 c 0
146 129 80 258 79 390 c 0
77 527 145 663 256 745 c 0
Z
276 722 m 0
275 696 l 0
187 619 133 505 132 389 c 0
130 270 182 151 271 72 c 0
172 145 110 266 109 390 c 0
107 518 171 646 276 722 c 0
Z
Spiro
237 767 v
236 741 v
72 390 c
232 29 v
50 390 c
256 745 v
255 719 v
102 390 c
251 51 v
79 390 c
276 722 v
275 696 v
132 389 c
271 72 v
109 390 c
0 0 z
EndSpiro
EndSplineSet
        Fore
        SplineSet
197 815 m 0
200 762 l 0
93 656 29 509 26 360 c 0
22 204 83 49 191 -62 c 0
63 38 -15 197 -20 360 c 0
-24 534 58 708 197 815 c 0
Z
240 773 m 0
243 720 l 0
147 626 89 494 86 360 c 0
82 220 136 80 234 -20 c 0
117 69 44 213 40 360 c 0
35 518 112 678 240 773 c 0
Z
282 730 m 0
285 677 l 0
199 594 148 477 145 359 c 0
141 234 189 110 276 21 c 0
170 99 103 228 100 360 c 0
95 502 166 646 282 730 c 0
Z
Spiro
197 815 v
200 762 v
26 360 c
191 -62 v
-20 360 c
240 773 v
243 720 v
86 360 c
234 -20 v
40 360 c
282 730 v
285 677 v
145 359 c
276 21 v
100 360 c
0 0 z
EndSpiro
EndSplineSet
        EndChar
StartChar: )
Encoding: 41 41 0
Width: 376
InSpiro: 1
        Flags: H
        LayerCount: 2
        Back
        SplineSet
59 690 m 0
60 690 l 0
153 608 210 485 210 362 c 0
210 238 153 115 60 34 c 0
153 115 209 238 209 362 c 0
208 485 152 608 59 690 c 0
Z
60 692 m 0
61 692 l 0
155 610 212 486 212 362 c 0
212 237 155 113 61 32 c 0
154 113 211 237 211 362 c 0
210 486 154 610 60 692 c 0
Z
61 693 m 0
62 693 l 0
156 611 214 487 214 362 c 0
214 236 156 112 62 31 c 0
156 112 213 236 213 362 c 0
212 487 155 611 61 693 c 0
Z
Spiro
59 690 v
60 690 v
210 362 c
60 34 v
209 362 c
60 692 v
61 692 v
212 362 c
61 32 v
211 362 c
61 693 v
62 693 v
214 362 c
62 31 v
213 362 c
0 0 z
EndSpiro
EndSplineSet
        Fore
        SplineSet
-37 703 m 0
18 705 l 0
118 621 178 490 175 360 c 0
171 228 103 99 -3 22 c 0
84 110 133 234 130 359 c 0
126 490 64 619 -37 703 c 0
Z
5 746 m 0
61 748 l 0
173 653 239 506 236 360 c 0
232 212 157 68 39 -19 c 0
137 80 193 220 190 360 c 0
186 506 117 651 5 746 c 0
Z
47 788 m 0
103 790 l 0
226 685 299 522 296 360 c 0
292 197 210 37 81 -61 c 0
190 48 253 204 250 360 c 0
246 522 170 682 47 788 c 0
Z
Spiro
-37 703 v
18 705 v
175 360 c
-3 22 v
130 359 c
5 746 v
61 748 v
236 360 c
39 -19 v
190 360 c
47 788 v
103 790 v
296 360 c
81 -61 v
250 360 c
0 0 z
EndSpiro
EndSplineSet
        EndChar
StartChar: *
Encoding: 42 42 0
Width: 466
InSpiro: 1
        Flags: H
        LayerCount: 2
        Back
        SplineSet
60 459 m 0
60 460 l 0
303 460 l 0
60 459 l 0
Z
60 461 m 0
61 462 l 0
303 462 l 0
60 461 l 0
Z
60 463 m 0
61 464 l 0
303 464 l 0
60 463 l 0
Z
118 591 m 0
120 590 l 0
252 331 l 0
118 591 l 0
Z
120 592 m 0
122 591 l 0
254 332 l 0
120 592 l 0
Z
121 592 m 0
123 591 l 0
255 332 l 0
121 592 l 0
Z
252 592 m 0
252 591 l 0
119 332 l 0
252 592 l 0
Z
254 592 m 0
254 591 l 0
121 332 l 0
254 592 l 0
Z
255 591 m 0
255 590 l 0
122 331 l 0
255 591 l 0
Z
Spiro
60 459 v
60 460 v
303 460 v
60 461 v
61 462 v
303 462 v
60 463 v
61 464 v
303 464 v
118 591 v
120 590 v
252 331 v
120 592 v
122 591 v
254 332 v
121 592 v
123 591 v
255 332 v
252 592 v
252 591 v
119 332 v
254 592 v
254 591 v
121 332 v
255 591 v
255 590 v
122 331 v
0 0 z
EndSpiro
EndSplineSet
        Fore
        SplineSet
0 381 m 0
37 420 l 0
331 400 l 0
0 381 l 0
Z
0 441 m 0
37 480 l 0
331 460 l 0
0 441 l 0
Z
0 501 m 0
37 540 l 0
331 520 l 0
0 501 l 0
Z
24 603 m 0
78 587 l 0
215 277 l 0
24 603 l 0
Z
77 631 m 0
131 615 l 0
268 305 l 0
77 631 l 0
Z
131 658 m 0
185 642 l 0
322 332 l 0
131 658 l 0
Z
210 675 m 0
230 624 l 0
54 332 l 0
210 675 l 0
Z
263 648 m 0
283 597 l 0
107 305 l 0
263 648 l 0
Z
317 620 m 0
337 569 l 0
161 277 l 0
317 620 l 0
Z
Spiro
0 381 v
37 420 v
331 400 v
0 441 v
37 480 v
331 460 v
0 501 v
37 540 v
331 520 v
24 603 v
78 587 v
215 277 v
77 631 v
131 615 v
268 305 v
131 658 v
185 642 v
322 332 v
210 675 v
230 624 v
54 332 v
263 648 v
283 597 v
107 305 v
317 620 v
337 569 v
161 277 v
0 0 z
EndSpiro
EndSplineSet
        EndChar
StartChar: +
Encoding: 43 43 0
Width: 526
InSpiro: 1
        Flags: H
        LayerCount: 2
        Back
        SplineSet
60 359 m 0
60 360 l 0
363 360 l 0
60 359 l 0
Z
60 361 m 0
61 362 l 0
363 362 l 0
60 361 l 0
Z
60 363 m 0
61 364 l 0
363 364 l 0
60 363 l 0
Z
209 513 m 0
210 512 l 0
210 211 l 0
209 513 l 0
Z
211 513 m 0
212 512 l 0
212 211 l 0
211 513 l 0
Z
213 513 m 0
214 512 l 0
214 211 l 0
213 513 l 0
Z
Spiro
60 359 v
60 360 v
363 360 v
60 361 v
61 362 v
363 362 v
60 363 v
61 364 v
363 364 v
209 513 v
210 512 v
210 211 v
211 513 v
212 512 v
212 211 v
213 513 v
214 512 v
214 211 v
0 0 z
EndSpiro
EndSplineSet
        Fore
        SplineSet
0 281 m 0
37 320 l 0
391 300 l 0
0 281 l 0
Z
0 341 m 0
37 380 l 0
391 360 l 0
0 341 l 0
Z
0 401 m 0
37 440 l 0
391 420 l 0
0 401 l 0
Z
133 567 m 0
175 530 l 0
153 181 l 0
133 567 l 0
Z
193 567 m 0
235 530 l 0
213 181 l 0
193 567 l 0
Z
253 567 m 0
295 530 l 0
273 181 l 0
253 567 l 0
Z
Spiro
0 281 v
37 320 v
391 300 v
0 341 v
37 380 v
391 360 v
0 401 v
37 440 v
391 420 v
133 567 v
175 530 v
153 181 v
193 567 v
235 530 v
213 181 v
253 567 v
295 530 v
273 181 v
0 0 z
EndSpiro
EndSplineSet
        EndChar
StartChar: ,
Encoding: 44 44 0
Width: 376
InSpiro: 1
        Flags: H
        LayerCount: 2
        Back
        SplineSet
233 137 m 0
234 111 l 0
177 70 l 0
233 137 l 0
Z
255 116 m 0
256 90 l 0
199 50 l 0
255 116 l 0
Z
276 94 m 0
277 67 l 0
220 30 l 0
276 94 l 0
Z
Spiro
233 137 v
234 111 v
177 70 v
255 116 v
256 90 v
199 50 v
276 94 v
277 67 v
220 30 v
0 0 z
EndSpiro
EndSplineSet
        Fore
        SplineSet
197 155 m 0
200 102 l 0
96 31 l 0
197 155 l 0
Z
240 113 m 0
243 60 l 0
139 -10 l 0
240 113 l 0
Z
283 70 m 0
285 16 l 0
181 -51 l 0
283 70 l 0
Z
Spiro
197 155 v
200 102 v
96 31 v
240 113 v
243 60 v
139 -10 v
283 70 v
285 16 v
181 -51 v
0 0 z
EndSpiro
EndSplineSet
        EndChar
StartChar: -
Encoding: 45 45 0
Width: 466
InSpiro: 1
        Flags: H
        LayerCount: 2
        Back
        SplineSet
60 359 m 0
60 360 l 0
303 360 l 0
60 359 l 0
Z
60 361 m 0
61 362 l 0
303 362 l 0
60 361 l 0
Z
60 363 m 0
61 364 l 0
303 364 l 0
60 363 l 0
Z
Spiro
60 359 v
60 360 v
303 360 v
60 361 v
61 362 v
303 362 v
60 363 v
61 364 v
303 364 v
0 0 z
EndSpiro
EndSplineSet
        Fore
        SplineSet
0 281 m 0
37 320 l 0
331 300 l 0
0 281 l 0
Z
0 341 m 0
37 380 l 0
331 360 l 0
0 341 l 0
Z
0 401 m 0
37 440 l 0
331 420 l 0
0 401 l 0
Z
Spiro
0 281 v
37 320 v
331 300 v
0 341 v
37 380 v
331 360 v
0 401 v
37 440 v
331 420 v
0 0 z
EndSpiro
EndSplineSet
        EndChar
StartChar: .
Encoding: 46 46 0
Width: 376
InSpiro: 1
        Flags: H
        LayerCount: 2
        Back
        SplineSet
212 60 m 0
212 60 212 60 213 61 c 0
213 61 213 61 213 61 c 0
212 62 212 62 212 62 c 0
212 62 212 62 211 63 c 0
211 63 211 63 211 63 c 0
210 62 210 62 210 62 c 0
209 61 209 61 210 61 c 0
210 60 210 60 210 60 c 0
211 59 211 59 212 60 c 0
Z
209 62 m 0
208 62 209 62 209 62 c 0
209 63 209 63 209 63 c 0
210 64 211 64 212 64 c 0
212 63 212 63 213 63 c 0
213 62 213 62 214 62 c 0
214 61 213 61 213 61 c 0
213 60 213 60 213 60 c 0
212 59 211 59 211 60 c 0
210 60 210 60 209 60 c 0
209 61 209 61 209 62 c 0
Z
90 0 m 0
90 30 120 60 150 60 c 0
180 60 210 30 210 0 c 0
210 -30 180 -60 150 -60 c 0
120 -60 90 -30 90 0 c 0
Z
210 62 m 0
210 62 210 62 210 62 c 0
211 63 211 63 212 63 c 0
212 62 212 62 213 62 c 0
213 61 213 61 213 61 c 0
212 60 212 60 212 60 c 0
212 60 212 60 211 59 c 0
211 59 211 59 211 60 c 0
210 60 210 60 210 60 c 0
209 61 209 61 210 62 c 0
Z
Spiro
212 60 c
213 61 c
211 63 c
210 61 c
209 62 c
212 64 c
214 62 c
211 60 c
212 61 c
212 61 c
211 62 c
211 61 c
210 62 c
212 63 c
213 62 c
211 60 c
0 0 z
EndSpiro
EndSplineSet
        Fore
        SplineSet
210 6 m 0
223 6 236 12 245 22 c 0
254 32 259 45 260 59 c 0
260 72 255 86 245 96 c 0
236 106 222 113 209 113 c 0
195 112 182 106 172 96 c 0
163 86 158 72 159 59 c 0
159 45 164 31 173 21 c 0
182 11 196 5 210 6 c 0
Z
140 60 m 0
139 77 148 95 161 107 c 0
174 119 192 126 210 126 c 0
227 125 245 119 258 107 c 0
271 95 278 77 279 60 c 0
279 42 270 24 257 12 c 0
244 0 226 -6 209 -6 c 0
191 -5 173 0 160 12 c 0
147 24 140 42 140 60 c 0
Z
210 36 m 0
215 36 220 39 224 43 c 0
228 47 229 53 230 59 c 0
230 64 228 70 224 75 c 0
222 77 220 79 217 81 c 0
214 82 211 83 209 83 c 0
203 82 197 79 194 75 c 0
190 70 188 64 189 59 c 0
189 53 191 47 194 43 c 0
198 38 204 35 210 36 c 0
Z
170 60 m 0
170 69 174 79 182 86 c 0
189 92 200 96 210 96 c 0
219 95 229 92 236 85 c 0
244 79 248 69 249 60 c 0
249 49 244 39 236 33 c 0
229 26 219 22 209 23 c 0
199 23 189 26 181 33 c 0
174 40 169 50 170 60 c 0
Z
Spiro
210 6 c
260 59 c
209 113 c
159 59 c
140 60 c
210 126 c
279 60 c
209 -6 c
210 36 c
230 59 c
209 83 c
189 59 c
170 60 c
210 96 c
249 60 c
209 23 c
0 0 z
EndSpiro
EndSplineSet
        EndChar
StartChar: /
Encoding: 47 47 0
Width: 692
InSpiro: 1
        Flags: H
        LayerCount: 2
        Back
        SplineSet
470 761 m 0
481 736 l 0
160 60 l 0
470 761 l 0
Z
497 749 m 0
508 724 l 0
187 48 l 0
497 749 l 0
Z
524 736 m 0
535 711 l 0
214 36 l 0
524 736 l 0
Z
Spiro
470 761 v
481 736 v
160 60 v
497 749 v
508 724 v
187 48 v
524 736 v
535 711 v
214 36 v
0 0 z
EndSpiro
EndSplineSet
        Fore
        SplineSet
478 802 m 0
501 753 l 0
160 -3 l 0
478 802 l 0
Z
533 779 m 0
556 730 l 0
215 -26 l 0
533 779 l 0
Z
589 755 m 0
612 706 l 0
271 -49 l 0
589 755 l 0
Z
Spiro
478 802 v
501 753 v
160 -3 v
533 779 v
556 730 v
215 -26 v
589 755 v
612 706 v
271 -49 v
0 0 z
EndSpiro
EndSplineSet
        EndChar
StartChar: 0
Encoding: 48 48 0
Width: 526
InSpiro: 1
        Flags: H
        LayerCount: 2
        Back
        SplineSet
60 361 m 0
59 298 55 233 76 173 c 0
86 144 102 116 125 94 c 0
148 73 179 60 211 60 c 0
242 60 273 73 296 94 c 0
319 116 335 144 345 173 c 0
365 233 361 298 362 361 c 0
361 423 366 488 345 548 c 0
335 577 319 605 296 627 c 0
273 648 242 661 211 662 c 0
179 662 148 648 125 627 c 0
102 605 86 577 76 548 c 0
56 488 60 423 60 361 c 0
Z
212 663 m 0
243 662 273 649 297 627 c 0
320 606 336 578 346 548 c 0
366 489 362 424 363 362 c 0
363 298 367 234 347 174 c 0
336 144 320 116 297 95 c 0
274 73 243 60 212 60 c 0
180 59 149 73 126 94 c 0
102 116 86 144 76 174 c 0
55 233 59 298 60 362 c 0
60 424 56 489 76 549 c 0
86 579 103 607 126 628 c 0
149 649 180 663 212 663 c 0
Z
62 361 m 0
62 298 57 234 77 175 c 0
87 145 103 117 126 96 c 0
149 75 179 62 211 62 c 0
242 62 272 75 295 96 c 0
318 117 334 145 344 175 c 0
364 234 359 298 360 361 c 0
360 423 364 487 344 547 c 0
334 576 318 604 295 626 c 0
272 647 242 660 211 661 c 0
179 661 149 647 126 626 c 0
103 604 87 576 77 547 c 0
57 487 61 423 62 361 c 0
Z
210 662 m 0
241 662 272 648 295 627 c 0
318 606 334 578 344 548 c 0
364 489 360 424 361 362 c 0
361 299 365 234 345 174 c 0
335 144 318 116 295 95 c 0
272 74 241 60 210 61 c 0
178 61 148 75 125 96 c 0
102 117 86 145 76 175 c 0
56 234 60 299 61 362 c 0
61 424 56 488 76 547 c 0
86 577 102 605 125 626 c 0
148 647 178 661 210 662 c 0
Z
64 361 m 0
63 298 59 235 78 176 c 0
88 146 104 118 126 97 c 0
149 76 179 63 211 63 c 0
242 63 272 76 295 97 c 0
317 118 333 146 343 176 c 0
362 235 357 298 358 361 c 0
357 423 362 486 343 545 c 0
333 575 317 603 295 624 c 0
272 645 242 658 211 659 c 0
179 659 149 645 126 624 c 0
104 603 88 575 78 545 c 0
59 486 64 423 64 361 c 0
Z
210 660 m 0
241 660 271 646 294 625 c 0
318 604 334 576 343 546 c 0
363 486 359 422 359 360 c 0
358 297 363 233 343 174 c 0
333 145 317 117 294 96 c 0
271 75 241 61 210 62 c 0
179 62 148 76 126 97 c 0
103 118 87 146 78 175 c 0
58 234 63 297 63 360 c 0
62 422 58 486 77 545 c 0
87 575 102 603 125 624 c 0
148 645 178 659 210 660 c 0
Z
360 663 m 0
360 662 l 0
60 61 l 0
360 663 l 0
Z
362 663 m 0
362 662 l 0
61 61 l 0
362 663 l 0
Z
363 662 m 0
363 661 l 0
62 60 l 0
363 662 l 0
Z
Spiro
60 361 c
211 60 c
362 361 c
211 662 c
212 663 c
363 362 c
212 60 c
60 362 c
62 361 c
211 62 c
360 361 c
211 661 c
210 662 c
361 362 c
210 61 c
61 362 c
64 361 c
211 63 c
358 361 c
211 659 c
210 660 c
359 360 c
210 62 c
63 360 c
360 663 v
360 662 v
60 61 v
362 663 v
362 662 v
61 61 v
363 662 v
363 661 v
62 60 v
0 0 z
EndSpiro
EndSplineSet
        Fore
        SplineSet
12 359 m 0
11 283 12 206 40 136 c 0
54 101 76 69 105 45 c 0
134 21 171 6 209 6 c 0
246 6 283 21 312 45 c 0
341 69 363 101 377 136 c 0
405 206 405 283 406 359 c 0
405 434 405 511 377 581 c 0
363 616 341 648 312 672 c 0
283 696 246 711 209 712 c 0
171 712 134 696 105 672 c 0
76 648 54 616 40 581 c 0
12 511 12 434 12 359 c 0
Z
210 725 m 0
249 724 288 709 319 685 c 0
350 660 373 627 389 591 c 0
422 520 424 438 425 360 c 0
425 281 422 199 390 127 c 0
373 91 350 58 319 33 c 0
288 9 249 -5 210 -6 c 0
170 -6 131 9 100 33 c 0
69 57 45 91 29 127 c 0
-3 199 -6 280 -6 360 c 0
-5 438 -2 520 29 592 c 0
45 628 69 661 100 685 c 0
131 709 170 725 210 725 c 0
Z
71 359 m 0
71 298 64 236 82 178 c 0
90 149 105 121 127 100 c 0
149 79 178 66 209 66 c 0
239 66 268 79 290 100 c 0
312 121 327 149 335 178 c 0
353 236 346 298 347 359 c 0
347 419 353 481 335 540 c 0
327 569 312 597 290 618 c 0
268 639 239 652 209 653 c 0
178 653 149 639 127 618 c 0
105 597 90 569 82 540 c 0
64 481 70 419 71 359 c 0
Z
208 666 m 0
240 666 271 652 295 631 c 0
319 609 336 581 347 551 c 0
369 490 365 424 366 360 c 0
366 295 369 229 347 168 c 0
337 137 320 109 295 87 c 0
271 66 240 52 208 53 c 0
175 53 144 67 120 88 c 0
96 110 80 138 69 169 c 0
48 229 51 295 52 360 c 0
52 424 48 489 69 550 c 0
80 580 97 609 120 630 c 0
144 651 175 665 208 666 c 0
Z
131 359 m 0
130 312 118 266 123 219 c 0
126 196 134 173 148 155 c 0
156 146 165 139 175 133 c 0
185 128 197 125 209 125 c 0
220 125 232 128 242 133 c 0
252 139 261 146 269 155 c 0
283 173 291 196 294 219 c 0
299 266 286 312 287 359 c 0
286 405 299 451 294 498 c 0
291 521 283 544 269 562 c 0
261 571 252 578 242 584 c 0
232 589 220 592 209 593 c 0
197 593 185 589 175 584 c 0
165 578 156 571 148 562 c 0
134 544 126 521 123 498 c 0
118 451 131 405 131 359 c 0
Z
208 606 m 0
233 606 257 593 274 575 c 0
291 556 301 532 306 508 c 0
315 458 306 408 306 358 c 0
305 308 315 257 305 209 c 0
300 184 290 160 273 142 c 0
256 124 232 111 208 112 c 0
183 112 159 124 142 143 c 0
126 161 116 185 111 209 c 0
102 258 112 308 112 358 c 0
111 407 101 458 111 507 c 0
116 531 125 555 142 574 c 0
159 592 183 605 208 606 c 0
Z
318 745 m 0
338 694 l 0
-4 60 l 0
318 745 l 0
Z
371 719 m 0
391 668 l 0
48 34 l 0
371 719 l 0
Z
425 692 m 0
445 641 l 0
102 7 l 0
425 692 l 0
Z
Spiro
12 359 c
209 6 c
406 359 c
209 712 c
210 725 c
425 360 c
210 -6 c
-6 360 c
71 359 c
209 66 c
347 359 c
209 653 c
208 666 c
366 360 c
208 53 c
52 360 c
131 359 c
209 125 c
287 359 c
209 593 c
208 606 c
306 358 c
208 112 c
112 358 c
318 745 v
338 694 v
-4 60 v
371 719 v
391 668 v
48 34 v
425 692 v
445 641 v
102 7 v
0 0 z
EndSpiro
EndSplineSet
        EndChar
StartChar: 1
Encoding: 49 49 0
Width: 346
InSpiro: 1
        Flags: H
        LayerCount: 2
        Back
        SplineSet
107 526 m 0
99 552 l 0
158 650 l 0
132 650 l 0
121 75 l 0
109 670 l 0
109 670 l 0
189 670 l 0
189 670 l 0
107 526 l 0
Z
83 540 m 0
73 565 l 0
136 700 l 0
136 700 l 0
162 700 l 0
162 700 l 0
151 75 l 0
147 687 l 0
150 687 l 0
83 540 l 0
Z
59 553 m 0
47 577 l 0
106 730 l 0
106 730 l 0
192 730 l 0
192 730 l 0
181 75 l 0
169 710 l 0
125 710 l 0
59 553 l 0
Z
Spiro
107 526 v
99 552 v
158 650 v
132 650 v
121 75 v
109 670 v
109 670 v
189 670 v
189 670 v
83 540 v
73 565 v
136 700 v
136 700 v
162 700 v
162 700 v
151 75 v
147 687 v
150 687 v
59 553 v
47 577 v
106 730 v
106 730 v
192 730 v
192 730 v
181 75 v
169 710 v
125 710 v
0 0 z
EndSpiro
EndSplineSet
        Fore
        SplineSet
106 437 m 0
73 481 l 0
99 620 l 0
99 620 l 0
144 620 l 0
144 620 l 0
123 31 l 0
119 600 l 0
123 600 l 0
106 437 l 0
Z
27 487 m 0
25 540 l 0
204 680 l 0
159 680 l 0
204 680 l 0
204 680 l 0
183 31 l 0
179 660 l 0
183 660 l 0
27 487 l 0
Z
-26 536 m 0
-15 588 l 0
264 740 l 0
219 740 l 0
264 740 l 0
264 740 l 0
243 31 l 0
239 720 l 0
242 720 l 0
-26 536 l 0
Z
Spiro
106 437 v
73 481 v
99 620 v
99 620 v
144 620 v
144 620 v
123 31 v
119 600 v
123 600 v
27 487 v
25 540 v
204 680 v
159 680 v
204 680 v
204 680 v
183 31 v
179 660 v
183 660 v
-26 536 v
-15 588 v
264 740 v
219 740 v
264 740 v
264 740 v
243 31 v
239 720 v
242 720 v
0 0 z
EndSpiro
EndSplineSet
        EndChar
StartChar: 2
Encoding: 50 50 0
Width: 526
InSpiro: 1
        Flags: H
        LayerCount: 2
        Back
        SplineSet
115 549 m 0
101 572 l 0
109 600 128 626 152 644 c 0
177 661 207 670 238 669 c 0
272 667 305 652 329 628 c 0
353 603 368 571 372 537 c 0
374 510 370 484 361 459 c 0
352 435 340 411 325 390 c 0
296 346 260 308 226 269 c 0
48 69 l 0
405 60 l 0
13 50 l 0
13 50 l 0
209 282 l 0
241 319 274 356 302 397 c 0
316 418 329 439 337 463 c 0
346 486 351 511 349 536 c 0
346 564 333 592 313 613 c 0
293 634 265 647 237 650 c 0
207 652 178 642 155 623 c 0
133 605 118 577 115 549 c 0
Z
86 560 m 0
73 584 l 0
84 618 107 649 136 669 c 0
166 690 203 700 240 699 c 0
281 696 321 678 350 649 c 0
379 620 398 581 402 540 c 0
407 483 385 428 355 380 c 0
325 332 286 290 249 249 c 0
114 100 l 0
405 90 l 0
79 80 l 0
79 80 l 0
232 262 l 0
266 303 302 343 331 388 c 0
345 410 358 434 367 459 c 0
376 485 381 512 379 539 c 0
376 574 360 609 335 635 c 0
309 661 275 677 239 680 c 0
203 682 167 671 139 649 c 0
111 627 92 594 86 560 c 0
Z
59 570 m 0
46 594 l 0
59 634 86 669 121 693 c 0
155 717 198 729 241 728 c 0
289 725 336 704 371 670 c 0
406 637 427 590 432 542 c 0
437 481 415 421 384 369 c 0
353 317 311 272 271 228 c 0
181 129 l 0
405 120 l 0
146 109 l 0
146 109 l 0
254 241 l 0
290 285 328 329 358 378 c 0
389 427 412 483 409 541 c 0
406 584 387 626 356 657 c 0
325 687 283 706 240 709 c 0
198 711 156 697 123 672 c 0
91 647 67 610 59 570 c 0
Z
Spiro
115 549 v
101 572 v
238 669 c
372 537 c
226 269 [
48 69 v
405 60 v
13 50 v
13 50 v
209 282 ]
349 536 c
237 650 c
86 560 v
73 584 v
240 699 c
402 540 c
249 249 [
114 100 v
405 90 v
79 80 v
79 80 v
232 262 ]
379 539 c
239 680 c
59 570 v
46 594 v
241 728 c
432 542 c
271 228 [
181 129 v
405 120 v
146 109 v
146 109 v
254 241 ]
409 541 c
240 709 c
0 0 z
EndSpiro
EndSplineSet
        Fore
        SplineSet
110 479 m 0
84 527 l 0
90 553 106 578 128 595 c 0
151 611 179 620 207 619 c 0
236 617 265 604 286 584 c 0
307 563 321 535 325 506 c 0
327 481 323 455 315 432 c 0
306 408 294 387 280 366 c 0
251 325 217 289 184 252 c 0
-24 19 l 0
391 0 l 0
-94 -20 l 0
-94 -20 l 0
149 279 l 0
176 313 206 345 233 380 c 0
247 398 259 416 268 436 c 0
277 456 282 479 280 501 c 0
277 520 268 539 255 553 c 0
241 567 223 577 204 580 c 0
177 583 149 573 130 553 c 0
112 534 104 505 110 479 c 0
Z
54 500 m 0
28 548 l 0
38 586 63 622 96 645 c 0
129 669 170 681 211 679 c 0
254 676 297 657 328 627 c 0
359 596 379 554 384 511 c 0
389 453 368 395 337 346 c 0
307 297 267 254 229 212 c 0
109 80 l 0
391 60 l 0
39 40 l 0
39 40 l 0
194 239 l 0
225 280 259 320 288 363 c 0
303 384 316 407 325 431 c 0
335 455 340 482 339 508 c 0
336 541 321 574 298 598 c 0
274 622 241 637 208 640 c 0
169 643 129 629 100 603 c 0
71 577 54 538 54 500 c 0
Z
-3 520 m 0
-28 568 l 0
-12 618 20 663 63 694 c 0
107 724 160 740 214 738 c 0
272 735 328 710 370 670 c 0
412 629 438 573 444 516 c 0
449 450 428 384 395 326 c 0
362 269 317 220 273 171 c 0
244 139 l 0
391 120 l 0
174 99 l 0
174 99 l 0
238 198 l 0
270 248 305 296 337 347 c 0
353 372 368 398 380 425 c 0
391 453 399 483 399 513 c 0
398 561 377 609 342 643 c 0
307 677 259 697 211 699 c 0
160 700 108 683 69 650 c 0
30 617 4 570 -3 520 c 0
Z
Spiro
110 479 v
84 527 v
207 619 c
325 506 c
184 252 [
-24 19 v
391 0 v
-94 -20 v
-94 -20 v
149 279 ]
280 501 c
204 580 c
54 500 v
28 548 v
211 679 c
384 511 c
229 212 [
109 80 v
391 60 v
39 40 v
39 40 v
194 239 ]
339 508 c
208 640 c
-3 520 v
-28 568 v
214 738 c
444 516 c
273 171 [
244 139 v
391 120 v
174 99 v
174 99 v
238 198 ]
399 513 c
211 699 c
0 0 z
EndSpiro
EndSplineSet
        EndChar
StartChar: 3
Encoding: 51 51 0
Width: 526
InSpiro: 1
        Flags: H
        LayerCount: 2
        Back
        SplineSet
116 550 m 0
102 573 l 0
107 603 124 630 149 648 c 0
174 666 206 673 237 669 c 0
269 663 298 644 321 620 c 0
343 596 359 566 372 536 c 0
380 515 388 493 388 470 c 0
389 447 381 424 366 407 c 0
358 399 348 393 337 389 c 0
326 385 315 384 303 385 c 0
281 387 260 398 241 410 c 0
224 420 l 0
241 430 l 0
263 442 285 455 305 471 c 0
325 487 342 508 349 533 c 0
352 548 352 564 347 579 c 0
342 594 334 608 322 619 c 0
300 641 267 651 236 650 c 0
208 648 180 637 159 619 c 0
138 601 122 577 116 550 c 0
Z
87 560 m 0
73 583 l 0
79 620 101 654 132 675 c 0
163 696 202 705 240 699 c 0
278 692 313 669 339 640 c 0
366 611 385 576 402 541 c 0
413 514 424 487 425 458 c 0
426 443 425 429 420 415 c 0
416 401 408 389 399 378 c 0
389 367 376 359 363 354 c 0
349 349 335 347 320 349 c 0
292 351 265 365 241 380 c 0
224 390 l 0
241 400 l 0
269 417 299 433 324 455 c 0
350 477 372 505 379 538 c 0
382 556 381 576 374 594 c 0
368 612 357 629 344 642 c 0
316 668 277 681 239 680 c 0
204 678 170 666 143 644 c 0
116 623 96 593 87 560 c 0
Z
60 569 m 0
46 592 l 0
53 635 79 675 115 700 c 0
152 725 198 735 242 728 c 0
287 719 327 693 358 660 c 0
389 626 412 586 432 545 c 0
446 513 460 480 462 445 c 0
463 428 461 410 456 394 c 0
451 377 443 361 431 349 c 0
419 336 404 326 388 319 c 0
372 313 354 311 337 312 c 0
302 315 270 332 241 350 c 0
224 360 l 0
241 370 l 0
276 391 312 411 344 438 c 0
375 465 402 501 409 542 c 0
412 564 410 587 402 608 c 0
394 629 381 649 365 664 c 0
332 695 286 710 241 709 c 0
200 707 160 693 127 668 c 0
95 643 71 608 60 569 c 0
Z
210 350 m 0
228 370 l 0
241 370 l 0
258 370 276 369 294 365 c 0
311 361 328 352 341 340 c 0
354 328 363 312 368 295 c 0
373 277 374 259 372 242 c 0
367 207 353 174 329 150 c 0
304 125 271 109 237 109 c 0
207 108 177 118 154 137 c 0
132 155 116 182 111 212 c 0
118 185 135 162 158 147 c 0
180 132 208 125 236 128 c 0
265 130 292 145 313 166 c 0
333 187 345 215 349 245 c 0
350 259 349 274 345 288 c 0
341 302 333 315 323 325 c 0
312 335 298 342 284 346 c 0
270 349 255 350 241 350 c 0
210 350 l 0
Z
210 380 m 0
228 400 l 0
241 400 l 0
263 400 286 399 307 394 c 0
329 388 350 377 366 362 c 0
382 346 393 326 399 304 c 0
405 283 405 260 402 238 c 0
395 197 377 158 348 129 c 0
320 100 280 81 240 80 c 0
203 78 166 89 138 112 c 0
109 134 89 167 82 203 c 0
91 170 113 141 141 122 c 0
170 103 205 95 239 99 c 0
274 102 308 120 332 146 c 0
357 171 373 205 379 241 c 0
381 260 381 279 376 298 c 0
371 316 362 334 348 347 c 0
334 361 316 370 298 374 c 0
279 379 260 380 241 380 c 0
210 380 l 0
Z
210 410 m 0
228 430 l 0
241 430 l 0
268 430 295 429 321 422 c 0
347 416 372 402 391 383 c 0
411 364 424 339 430 313 c 0
437 287 436 259 432 233 c 0
423 186 401 141 368 108 c 0
334 75 289 53 242 51 c 0
199 48 156 62 122 87 c 0
89 113 64 151 56 193 c 0
67 154 92 119 125 97 c 0
159 74 200 64 241 69 c 0
283 73 323 93 352 124 c 0
382 154 401 194 409 236 c 0
413 259 413 283 407 307 c 0
402 330 390 352 373 369 c 0
357 386 335 397 312 403 c 0
289 409 264 410 241 410 c 0
210 410 l 0
Z
Spiro
116 550 v
102 573 v
237 669 c
372 536 c
241 410 [
224 420 v
241 430 ]
349 533 c
236 650 c
87 560 v
73 583 v
240 699 c
402 541 c
241 380 [
224 390 v
241 400 ]
379 538 c
239 680 c
60 569 v
46 592 v
242 728 c
432 545 c
241 350 [
224 360 v
241 370 ]
409 542 c
241 709 c
210 350 v
228 370 v
241 370 ]
372 242 c
237 109 c
111 212 v
236 128 c
349 245 c
241 350 [
210 380 v
228 400 v
241 400 ]
402 238 c
240 80 c
82 203 v
239 99 c
379 241 c
241 380 [
210 410 v
228 430 v
241 430 ]
432 233 c
242 51 c
56 193 v
241 69 c
409 236 c
241 410 [
0 0 z
EndSpiro
EndSplineSet
        Fore
        SplineSet
108 481 m 0
85 530 l 0
89 557 104 582 126 599 c 0
148 615 177 622 205 619 c 0
234 614 260 598 280 576 c 0
300 555 314 528 325 501 c 0
331 483 336 464 336 446 c 0
335 427 328 408 314 395 c 0
307 388 299 384 290 381 c 0
281 378 272 377 262 378 c 0
244 380 227 390 211 400 c 0
178 420 l 0
211 440 l 0
224 448 237 455 250 464 c 0
262 474 274 485 280 500 c 0
283 510 283 521 280 532 c 0
278 542 272 552 264 559 c 0
248 574 225 581 204 580 c 0
178 578 154 567 136 549 c 0
118 531 108 506 108 481 c 0
Z
55 500 m 0
28 547 l 0
33 588 57 627 91 652 c 0
125 676 169 686 211 679 c 0
252 671 288 647 317 617 c 0
345 586 366 549 384 512 c 0
397 483 408 454 410 422 c 0
411 407 409 391 404 376 c 0
399 361 392 348 381 336 c 0
370 325 357 316 342 311 c 0
328 305 312 304 296 305 c 0
265 308 237 323 211 340 c 0
178 360 l 0
211 380 l 0
237 396 264 411 288 431 c 0
311 451 332 476 339 507 c 0
342 524 341 543 335 560 c 0
329 576 319 592 306 604 c 0
280 629 243 641 208 640 c 0
170 638 133 623 105 598 c 0
77 572 59 537 55 500 c 0
Z
0 518 m 0
-28 565 l 0
-19 619 11 670 56 703 c 0
101 735 160 748 215 738 c 0
268 727 316 696 354 657 c 0
391 617 419 569 444 521 c 0
463 482 480 441 484 398 c 0
486 376 484 354 478 333 c 0
472 313 461 293 447 277 c 0
432 261 414 248 394 241 c 0
373 233 351 230 330 232 c 0
287 235 247 257 211 280 c 0
178 300 l 0
211 320 l 0
250 344 291 367 326 398 c 0
343 413 359 430 372 449 c 0
385 469 395 491 399 514 c 0
403 538 400 564 391 587 c 0
382 611 368 632 349 649 c 0
313 683 262 700 212 699 c 0
161 697 112 678 74 645 c 0
35 613 9 567 0 518 c 0
Z
150 281 m 0
187 320 l 0
211 320 l 0
225 320 240 319 255 316 c 0
269 313 283 306 294 296 c 0
305 287 314 274 319 260 c 0
324 246 325 231 325 217 c 0
323 185 310 155 288 133 c 0
266 111 236 98 205 99 c 0
177 99 151 111 132 130 c 0
112 150 101 176 101 204 c 0
107 182 121 163 140 152 c 0
159 140 182 134 204 138 c 0
223 140 242 149 256 164 c 0
270 178 279 198 280 218 c 0
280 226 279 235 276 244 c 0
273 252 267 260 261 265 c 0
254 271 246 275 237 277 c 0
228 279 219 279 211 280 c 0
150 281 l 0
Z
150 341 m 0
187 380 l 0
211 380 l 0
235 380 259 379 282 373 c 0
305 367 327 356 345 339 c 0
362 323 374 301 380 278 c 0
387 255 387 230 384 207 c 0
377 163 358 122 327 91 c 0
296 61 254 41 211 40 c 0
170 38 129 53 99 80 c 0
69 107 49 145 46 186 c 0
55 151 77 121 106 102 c 0
136 82 173 74 208 79 c 0
241 83 272 99 295 123 c 0
319 147 334 178 339 212 c 0
341 229 340 247 336 264 c 0
331 281 322 297 309 309 c 0
296 321 280 330 263 334 c 0
246 339 228 339 211 340 c 0
150 341 l 0
Z
150 401 m 0
187 440 l 0
211 440 l 0
244 440 278 439 310 431 c 0
342 422 372 406 396 382 c 0
419 359 436 328 443 296 c 0
451 263 450 229 444 197 c 0
433 141 406 88 366 48 c 0
326 9 271 -16 215 -19 c 0
161 -21 107 -3 66 30 c 0
25 64 -1 114 -9 167 c 0
3 120 33 78 73 51 c 0
114 24 164 12 212 19 c 0
258 24 302 47 335 80 c 0
368 113 390 157 399 204 c 0
403 230 404 257 397 283 c 0
391 309 378 333 359 352 c 0
340 371 316 384 290 391 c 0
264 398 237 399 211 400 c 0
150 401 l 0
Z
Spiro
108 481 v
85 530 v
205 619 c
325 501 c
211 400 [
178 420 v
211 440 ]
280 500 c
204 580 c
55 500 v
28 547 v
211 679 c
384 512 c
211 340 [
178 360 v
211 380 ]
339 507 c
208 640 c
0 518 v
-28 565 v
215 738 c
444 521 c
211 280 [
178 300 v
211 320 ]
399 514 c
212 699 c
150 281 v
187 320 v
211 320 ]
325 217 c
205 99 c
101 204 v
204 138 c
280 218 c
211 280 [
150 341 v
187 380 v
211 380 ]
384 207 c
211 40 c
46 186 v
208 79 c
339 212 c
211 340 [
150 401 v
187 440 v
211 440 ]
444 197 c
215 -19 c
-9 167 v
212 19 c
399 204 c
211 400 [
0 0 z
EndSpiro
EndSplineSet
        EndChar
StartChar: 4
Encoding: 52 52 0
Width: 526
InSpiro: 1
        Flags: H
        LayerCount: 2
        Back
        SplineSet
367 60 m 0
346 79 l 0
348 768 l 0
60 220 l 0
405 210 l 0
31 200 l 0
31 200 l 0
347 819 l 0
370 819 l 0
367 60 l 0
Z
337 61 m 0
316 80 l 0
318 649 l 0
108 250 l 0
405 240 l 0
79 230 l 0
79 230 l 0
317 700 l 0
340 700 l 0
337 61 l 0
Z
307 61 m 0
286 80 l 0
288 529 l 0
158 280 l 0
405 270 l 0
129 260 l 0
129 260 l 0
287 580 l 0
310 580 l 0
307 61 l 0
Z
Spiro
367 60 v
346 79 v
348 768 v
60 220 v
405 210 v
31 200 v
31 200 v
347 819 v
370 819 v
337 61 v
316 80 v
318 649 v
108 250 v
405 240 v
79 230 v
79 230 v
317 700 v
340 700 v
307 61 v
286 80 v
288 529 v
158 280 v
405 270 v
129 260 v
129 260 v
287 580 v
310 580 v
0 0 z
EndSpiro
EndSplineSet
        Fore
        SplineSet
376 1 m 0
334 39 l 0
338 818 l 0
-1 170 l 0
391 150 l 0
-59 130 l 0
-59 130 l 0
336 919 l 0
381 919 l 0
376 1 l 0
Z
316 2 m 0
274 40 l 0
278 578 l 0
97 230 l 0
391 210 l 0
39 190 l 0
39 190 l 0
276 680 l 0
321 680 l 0
316 2 l 0
Z
256 2 m 0
214 40 l 0
217 336 l 0
197 290 l 0
391 270 l 0
139 250 l 0
139 250 l 0
216 440 l 0
261 440 l 0
256 2 l 0
Z
Spiro
376 1 v
334 39 v
338 818 v
-1 170 v
391 150 v
-59 130 v
-59 130 v
336 919 v
381 919 v
316 2 v
274 40 v
278 578 v
97 230 v
391 210 v
39 190 v
39 190 v
276 680 v
321 680 v
256 2 v
214 40 v
217 336 v
197 290 v
391 270 v
139 250 v
139 250 v
216 440 v
261 440 v
0 0 z
EndSpiro
EndSplineSet
        EndChar
StartChar: 5
Encoding: 53 53 0
Width: 526
InSpiro: 1
        Flags: H
        LayerCount: 2
        Back
        SplineSet
363 664 m 0
362 663 l 0
60 663 l 0
60 361 l 0
60 664 l 0
60 664 l 0
363 664 l 0
Z
363 662 m 0
362 661 l 0
62 661 l 0
62 361 l 0
61 662 l 0
61 662 l 0
363 662 l 0
Z
363 660 m 0
362 659 l 0
64 659 l 0
64 361 l 0
63 660 l 0
63 660 l 0
363 660 l 0
Z
63 359 m 0
62 360 l 0
70 391 91 419 118 437 c 0
145 455 178 463 211 460 c 0
256 454 297 427 323 389 c 0
348 351 360 305 360 260 c 0
359 214 348 168 322 131 c 0
296 94 255 67 211 62 c 0
178 58 145 66 118 84 c 0
91 102 70 130 62 162 c 0
70 131 91 103 117 85 c 0
144 67 177 59 210 63 c 0
254 67 295 95 321 132 c 0
347 169 358 215 359 261 c 0
359 306 347 352 321 389 c 0
296 426 255 454 210 459 c 0
177 462 144 454 118 435 c 0
91 417 71 390 63 359 c 0
Z
61 360 m 0
60 361 l 0
69 392 89 421 117 439 c 0
145 457 179 465 212 462 c 0
257 456 298 428 324 391 c 0
350 353 361 307 362 262 c 0
362 216 350 169 324 132 c 0
298 94 257 66 212 61 c 0
179 57 145 65 117 83 c 0
89 101 69 130 60 162 c 0
69 130 89 102 117 84 c 0
144 66 178 58 211 62 c 0
256 67 297 94 323 132 c 0
349 169 360 215 361 261 c 0
361 306 349 353 323 390 c 0
297 428 256 455 211 461 c 0
178 464 144 456 117 437 c 0
90 419 69 391 61 360 c 0
Z
60 360 m 0
60 361 l 0
69 392 89 421 117 439 c 0
144 458 179 466 212 463 c 0
257 457 299 430 325 392 c 0
352 354 363 307 364 262 c 0
364 215 352 168 326 131 c 0
299 93 257 65 212 60 c 0
179 56 145 64 117 82 c 0
90 101 69 129 60 161 c 0
69 129 89 101 117 83 c 0
144 64 178 56 211 60 c 0
256 64 298 92 324 130 c 0
351 168 362 214 363 261 c 0
363 307 351 353 324 391 c 0
298 429 256 457 211 462 c 0
178 465 144 457 116 438 c 0
89 420 69 391 60 360 c 0
Z
Spiro
363 664 v
362 663 v
60 663 v
60 361 v
60 664 v
60 664 v
363 662 v
362 661 v
62 661 v
62 361 v
61 662 v
61 662 v
363 660 v
362 659 v
64 659 v
64 361 v
63 660 v
63 660 v
63 359 v
62 360 v
211 460 c
360 260 c
211 62 c
62 162 v
210 63 c
359 261 c
210 459 c
61 360 v
60 361 v
212 462 c
362 262 c
212 61 c
60 162 v
211 62 c
361 261 c
211 461 c
60 360 v
60 361 v
212 463 c
364 262 c
212 60 c
60 161 v
211 60 c
363 261 c
211 462 c
0 0 z
EndSpiro
EndSplineSet
        Fore
        SplineSet
419 738 m 0
382 700 l 0
24 700 l 0
3 331 l 0
-20 740 l 0
-20 740 l 0
419 738 l 0
Z
419 678 m 0
382 640 l 0
84 640 l 0
63 331 l 0
39 680 l 0
39 680 l 0
419 678 l 0
Z
419 618 m 0
382 580 l 0
144 580 l 0
123 331 l 0
99 620 l 0
99 620 l 0
419 618 l 0
Z
112 283 m 0
85 330 l 0
89 356 105 381 127 398 c 0
149 414 177 422 205 419 c 0
223 416 240 410 256 400 c 0
271 390 284 377 294 361 c 0
315 331 324 294 325 258 c 0
325 221 317 183 296 152 c 0
286 137 273 124 257 114 c 0
241 105 223 99 205 99 c 0
177 98 150 109 131 128 c 0
112 147 101 174 103 202 c 0
107 180 120 161 138 149 c 0
156 137 178 133 200 138 c 0
225 143 247 161 260 183 c 0
274 206 279 232 280 259 c 0
280 285 275 312 261 334 c 0
255 346 246 356 235 364 c 0
225 372 212 377 200 380 c 0
187 382 173 381 161 376 c 0
149 372 137 365 129 355 c 0
120 346 114 334 111 321 c 0
108 308 108 295 112 283 c 0
Z
57 300 m 0
29 346 l 0
37 386 61 423 94 448 c 0
128 472 170 483 212 479 c 0
262 473 309 443 339 402 c 0
369 361 384 309 385 259 c 0
385 207 371 155 341 114 c 0
311 72 263 43 212 40 c 0
171 37 129 51 99 78 c 0
68 105 49 145 47 186 c 0
54 151 75 119 105 100 c 0
134 80 172 72 207 79 c 0
246 86 282 111 305 144 c 0
328 178 339 219 340 260 c 0
340 300 329 342 306 375 c 0
283 409 247 434 207 440 c 0
168 445 127 432 98 406 c 0
69 379 54 339 57 300 c 0
Z
1 316 m 0
-27 362 l 0
-15 416 16 465 61 497 c 0
106 529 164 544 219 538 c 0
283 530 343 493 383 442 c 0
422 390 443 325 444 260 c 0
444 194 425 127 385 75 c 0
346 22 284 -13 219 -19 c 0
164 -23 109 -5 67 29 c 0
25 64 -2 115 -8 170 c 0
2 121 31 77 72 50 c 0
113 22 165 10 214 19 c 0
268 27 317 60 349 104 c 0
382 148 398 204 399 259 c 0
399 314 383 369 351 414 c 0
318 459 268 491 214 499 c 0
161 506 106 490 66 455 c 0
26 421 1 368 1 316 c 0
Z
Spiro
419 738 v
382 700 v
24 700 v
3 331 v
-20 740 v
-20 740 v
419 678 v
382 640 v
84 640 v
63 331 v
39 680 v
39 680 v
419 618 v
382 580 v
144 580 v
123 331 v
99 620 v
99 620 v
112 283 v
85 330 v
205 419 c
325 258 c
205 99 c
103 202 v
200 138 c
280 259 c
200 380 c
57 300 v
29 346 v
212 479 c
385 259 c
212 40 c
47 186 v
207 79 c
340 260 c
207 440 c
1 316 v
-27 362 v
219 538 c
444 260 c
219 -19 c
-8 170 v
214 19 c
399 259 c
214 499 c
0 0 z
EndSpiro
EndSplineSet
        EndChar
StartChar: 6
Encoding: 54 54 0
Width: 526
InSpiro: 1
        Flags: H
        LayerCount: 2
        Back
        SplineSet
432 569 m 0
408 584 l 0
403 623 381 660 349 683 c 0
317 707 275 716 236 709 c 0
204 702 174 685 151 662 c 0
128 640 111 611 100 581 c 0
76 521 74 454 72 390 c 0
69 322 68 253 91 190 c 0
103 158 122 129 147 107 c 0
172 84 205 70 239 69 c 0
264 68 291 75 313 87 c 0
336 100 355 119 369 141 c 0
398 184 408 238 406 290 c 0
403 339 389 388 361 429 c 0
333 470 289 501 241 509 c 0
200 515 158 505 124 482 c 0
91 459 67 422 59 383 c 0
64 425 88 466 122 492 c 0
156 519 200 532 244 528 c 0
298 522 348 489 379 445 c 0
411 400 427 345 429 291 c 0
431 233 418 174 384 127 c 0
368 103 346 83 321 70 c 0
295 56 266 49 238 51 c 0
202 52 167 68 139 91 c 0
111 114 91 144 77 178 c 0
49 244 47 318 50 391 c 0
52 459 57 530 84 593 c 0
97 625 116 655 141 678 c 0
166 702 197 720 231 728 c 0
278 738 330 726 369 696 c 0
407 665 431 617 432 569 c 0
Z
403 563 m 0
379 578 l 0
374 609 357 639 331 658 c 0
306 677 272 685 241 680 c 0
212 675 185 659 165 638 c 0
145 617 130 590 121 562 c 0
103 507 104 447 102 389 c 0
99 328 94 267 112 209 c 0
121 181 136 154 158 133 c 0
180 113 209 99 240 99 c 0
261 98 283 105 302 116 c 0
320 128 336 144 347 162 c 0
371 200 378 245 376 289 c 0
373 331 363 374 339 409 c 0
316 445 279 473 237 480 c 0
203 485 168 477 141 458 c 0
113 439 93 408 87 376 c 0
91 411 110 445 138 468 c 0
166 491 203 502 240 499 c 0
263 496 286 488 307 475 c 0
327 462 344 445 358 425 c 0
385 386 397 337 399 290 c 0
400 240 390 189 363 148 c 0
349 128 331 110 309 98 c 0
288 86 263 79 239 80 c 0
206 81 175 95 150 116 c 0
126 138 108 166 97 197 c 0
74 258 76 325 79 390 c 0
81 452 83 517 106 575 c 0
117 604 133 632 156 654 c 0
178 676 207 693 238 699 c 0
277 706 320 695 352 669 c 0
383 643 402 603 403 563 c 0
Z
375 557 m 0
350 570 l 0
346 593 333 616 314 631 c 0
295 646 270 652 246 650 c 0
219 646 195 632 178 613 c 0
160 593 149 569 142 543 c 0
129 492 134 439 132 387 c 0
129 334 120 280 132 229 c 0
138 203 150 178 168 159 c 0
186 140 212 127 239 128 c 0
256 128 274 134 289 144 c 0
304 154 316 167 325 183 c 0
342 214 347 251 346 287 c 0
344 322 336 358 318 389 c 0
308 404 296 418 282 428 c 0
268 439 251 447 234 450 c 0
207 454 179 448 157 433 c 0
135 418 120 394 115 368 c 0
117 397 132 424 155 443 c 0
177 462 207 471 237 469 c 0
257 467 277 459 294 448 c 0
311 437 325 421 336 404 c 0
358 370 367 328 369 288 c 0
370 246 363 204 341 169 c 0
330 152 315 137 298 126 c 0
280 115 260 108 240 109 c 0
211 109 182 122 161 141 c 0
140 161 126 187 117 215 c 0
100 270 106 330 109 388 c 0
111 444 110 502 127 555 c 0
136 582 150 608 169 628 c 0
189 649 215 664 243 669 c 0
275 674 309 664 334 643 c 0
359 622 374 589 375 557 c 0
Z
Spiro
432 569 v
408 584 v
236 709 c
72 390 c
239 69 c
406 290 c
241 509 c
59 383 v
244 528 c
429 291 c
238 51 c
50 391 c
231 728 c
403 563 v
379 578 v
241 680 c
102 389 c
240 99 c
376 289 c
237 480 c
87 376 v
240 499 c
399 290 c
239 80 c
79 390 c
238 699 c
375 557 v
350 570 v
246 650 c
132 387 c
239 128 c
346 287 c
234 450 c
115 368 v
237 469 c
369 288 c
240 109 c
109 388 c
243 669 c
0 0 z
EndSpiro
EndSplineSet
        Fore
        SplineSet
443 518 m 0
396 549 l 0
393 595 370 640 334 668 c 0
297 697 248 708 203 699 c 0
169 691 138 673 113 649 c 0
88 625 70 595 57 564 c 0
31 500 27 429 25 361 c 0
22 288 22 214 49 147 c 0
62 113 83 82 110 59 c 0
138 35 172 20 209 19 c 0
237 17 266 25 291 39 c 0
316 53 337 73 353 97 c 0
385 144 396 203 393 261 c 0
389 314 374 367 343 411 c 0
312 455 265 489 213 499 c 0
164 508 113 496 73 468 c 0
33 440 5 395 -2 347 c 0
0 401 26 454 67 490 c 0
109 525 165 543 220 538 c 0
283 531 342 493 379 442 c 0
417 390 436 325 438 262 c 0
440 193 423 123 382 68 c 0
361 41 335 18 305 2 c 0
274 -13 240 -21 206 -19 c 0
165 -16 125 0 93 25 c 0
61 50 36 84 18 121 c 0
-16 195 -21 280 -19 362 c 0
-16 439 -7 518 25 588 c 0
41 624 64 656 92 682 c 0
121 709 156 729 194 738 c 0
257 752 326 735 375 692 c 0
424 649 450 582 443 518 c 0
Z
388 507 m 0
339 536 l 0
337 566 323 596 299 616 c 0
275 635 243 644 213 640 c 0
185 635 159 620 140 599 c 0
121 579 108 553 100 526 c 0
83 472 86 415 84 359 c 0
81 301 74 242 90 187 c 0
98 159 111 132 132 112 c 0
153 92 181 79 210 79 c 0
230 78 250 85 268 96 c 0
285 107 299 122 309 140 c 0
330 175 336 218 334 259 c 0
331 298 321 338 300 371 c 0
278 405 244 431 206 440 c 0
171 447 134 439 106 419 c 0
77 398 58 366 54 332 c 0
53 372 70 412 100 440 c 0
129 467 170 482 211 479 c 0
236 477 260 468 282 455 c 0
303 441 321 423 336 402 c 0
364 361 377 310 379 260 c 0
380 208 369 154 340 111 c 0
325 90 306 71 283 59 c 0
260 46 234 39 209 40 c 0
175 41 142 55 116 77 c 0
91 99 72 128 60 159 c 0
35 222 36 292 39 360 c 0
41 424 45 490 69 551 c 0
81 581 99 609 122 632 c 0
145 654 174 672 206 679 c 0
253 689 306 674 342 641 c 0
378 607 395 555 388 507 c 0
Z
335 498 m 0
283 521 l 0
282 536 275 551 264 562 c 0
252 573 237 579 222 580 c 0
210 580 199 577 189 572 c 0
180 566 171 559 164 550 c 0
150 533 143 511 140 489 c 0
134 445 146 400 144 356 c 0
141 311 125 268 128 224 c 0
130 202 136 180 150 163 c 0
157 155 166 148 176 143 c 0
186 138 198 136 209 138 c 0
221 139 233 144 242 152 c 0
251 161 259 171 264 182 c 0
274 205 275 231 274 256 c 0
272 281 268 308 256 331 c 0
250 342 242 353 233 361 c 0
223 370 211 376 199 380 c 0
178 384 156 380 140 368 c 0
123 356 112 336 111 316 c 0
107 342 115 369 133 389 c 0
151 408 177 419 204 419 c 0
222 418 240 412 255 401 c 0
270 391 283 377 292 362 c 0
312 331 318 293 319 257 c 0
319 221 314 185 296 154 c 0
287 139 275 126 261 116 c 0
246 106 229 99 212 99 c 0
185 97 158 109 139 128 c 0
120 146 107 171 101 197 c 0
87 249 95 303 99 357 c 0
102 409 99 462 114 512 c 0
122 537 134 561 152 580 c 0
169 600 193 614 219 619 c 0
251 624 286 612 309 589 c 0
331 565 341 530 335 498 c 0
Z
Spiro
443 518 v
396 549 v
203 699 c
25 361 c
209 19 c
393 261 c
213 499 c
-2 347 v
220 538 c
438 262 c
206 -19 c
-19 362 c
194 738 c
388 507 v
339 536 v
213 640 c
84 359 c
210 79 c
334 259 c
206 440 c
54 332 v
211 479 c
379 260 c
209 40 c
39 360 c
206 679 c
335 498 v
283 521 v
222 580 c
144 356 c
209 138 c
274 256 c
199 380 c
111 316 v
204 419 c
319 257 c
212 99 c
99 357 c
219 619 c
0 0 z
EndSpiro
EndSplineSet
        EndChar
StartChar: 7
Encoding: 55 55 0
Width: 526
InSpiro: 1
        Flags: H
        LayerCount: 2
        Back
        SplineSet
60 650 m 0
77 670 l 0
361 660 l 0
372 670 l 0
372 670 l 0
207 83 l 0
359 660 l 0
361 660 l 0
60 650 l 0
Z
60 680 m 0
78 700 l 0
391 690 l 0
402 700 l 0
402 700 l 0
237 76 l 0
389 690 l 0
391 690 l 0
60 680 l 0
Z
60 710 m 0
78 730 l 0
421 720 l 0
432 730 l 0
432 730 l 0
266 68 l 0
419 720 l 0
421 720 l 0
60 710 l 0
Z
Spiro
60 650 v
77 670 v
361 660 v
372 670 v
372 670 v
207 83 v
359 660 v
361 660 v
60 680 v
78 700 v
391 690 v
402 700 v
402 700 v
237 76 v
389 690 v
391 690 v
60 710 v
78 730 v
421 720 v
432 730 v
432 730 v
266 68 v
419 720 v
421 720 v
0 0 z
EndSpiro
EndSplineSet
        Fore
        SplineSet
0 581 m 0
36 620 l 0
302 600 l 0
324 620 l 0
324 620 l 0
145 46 l 0
299 600 l 0
302 600 l 0
0 581 l 0
Z
0 641 m 0
37 680 l 0
362 660 l 0
384 680 l 0
384 680 l 0
204 32 l 0
359 660 l 0
362 660 l 0
0 641 l 0
Z
0 701 m 0
37 740 l 0
422 720 l 0
444 740 l 0
444 740 l 0
264 17 l 0
419 720 l 0
422 720 l 0
0 701 l 0
Z
Spiro
0 581 v
36 620 v
302 600 v
324 620 v
324 620 v
145 46 v
299 600 v
302 600 v
0 641 v
37 680 v
362 660 v
384 680 v
384 680 v
204 32 v
359 660 v
362 660 v
0 701 v
37 740 v
422 720 v
444 740 v
444 740 v
264 17 v
419 720 v
422 720 v
0 0 z
EndSpiro
EndSplineSet
        EndChar
StartChar: 9
Encoding: 57 57 0
Width: 526
InSpiro: 1
        Flags: H
        LayerCount: 2
        Back
        SplineSet
246 42 m 0
244 68 l 0
328 154 385 266 406 385 c 0
414 437 416 491 405 543 c 0
395 583 377 622 349 653 c 0
321 683 282 705 241 709 c 0
195 712 149 694 118 662 c 0
86 630 70 584 72 539 c 0
73 495 92 452 122 421 c 0
153 390 195 371 239 369 c 0
278 366 318 377 350 399 c 0
383 421 408 454 421 492 c 0
411 451 387 414 354 389 c 0
321 363 279 349 238 350 c 0
189 350 140 371 106 405 c 0
71 440 51 489 50 538 c 0
48 588 68 639 104 675 c 0
139 711 191 731 242 728 c 0
288 724 331 701 363 668 c 0
396 635 417 592 428 548 c 0
440 493 438 436 429 382 c 0
406 253 341 132 246 42 c 0
Z
224 62 m 0
222 89 l 0
301 171 356 277 376 391 c 0
384 439 386 489 376 537 c 0
368 571 353 605 330 631 c 0
306 658 273 677 238 680 c 0
201 682 164 667 138 640 c 0
113 614 100 576 102 540 c 0
103 504 118 468 144 443 c 0
169 417 204 401 240 399 c 0
273 396 306 405 334 424 c 0
361 443 382 471 393 503 c 0
385 468 365 436 337 414 c 0
309 392 274 379 239 380 c 0
197 380 156 397 126 426 c 0
97 456 79 497 79 539 c 0
78 581 94 624 123 654 c 0
153 684 196 701 239 699 c 0
278 696 316 676 344 647 c 0
372 618 389 580 399 542 c 0
410 491 408 438 399 388 c 0
376 264 314 148 224 62 c 0
Z
202 82 m 0
200 109 l 0
275 187 327 288 346 396 c 0
353 440 356 485 347 530 c 0
341 558 330 586 311 609 c 0
292 631 265 648 236 650 c 0
207 651 178 639 159 618 c 0
140 597 130 568 132 540 c 0
133 511 145 484 164 463 c 0
184 443 211 430 240 428 c 0
267 425 295 432 317 448 c 0
340 463 357 486 365 513 c 0
359 483 343 456 320 438 c 0
298 419 268 408 239 409 c 0
205 409 171 423 147 447 c 0
123 471 109 505 109 539 c 0
108 573 120 607 144 632 c 0
168 656 202 671 237 669 c 0
270 666 302 649 325 624 c 0
348 599 362 567 370 535 c 0
380 488 377 439 369 393 c 0
347 275 287 165 202 82 c 0
Z
Spiro
246 42 v
244 68 v
406 385 c
405 543 c
241 709 c
72 539 c
239 369 c
421 492 v
238 350 c
50 538 c
242 728 c
428 548 c
429 382 c
224 62 v
222 89 v
376 391 c
376 537 c
238 680 c
102 540 c
240 399 c
393 503 v
239 380 c
79 539 c
239 699 c
399 542 c
399 388 c
202 82 v
200 109 v
346 396 c
347 530 c
236 650 c
132 540 c
240 428 c
365 513 v
239 409 c
109 539 c
237 669 c
370 535 c
369 393 c
0 0 z
EndSpiro
EndSplineSet
        Fore
        SplineSet
224 -35 m 0
219 18 l 0
309 107 371 226 393 352 c 0
402 406 404 463 392 518 c 0
381 562 362 605 330 638 c 0
299 671 257 695 212 699 c 0
161 703 109 682 74 646 c 0
40 609 22 557 25 507 c 0
27 459 48 413 81 379 c 0
115 345 160 323 208 319 c 0
252 314 299 324 337 347 c 0
376 371 407 407 424 449 c 0
412 400 383 356 344 326 c 0
304 295 254 279 205 280 c 0
146 280 88 306 47 347 c 0
6 389 -17 447 -19 506 c 0
-20 567 3 630 46 674 c 0
90 718 153 742 215 738 c 0
269 733 321 707 360 669 c 0
398 630 424 580 437 527 c 0
450 467 448 405 438 345 c 0
412 199 335 62 224 -35 c 0
Z
180 5 m 0
175 59 l 0
257 140 314 248 334 363 c 0
342 409 343 458 334 505 c 0
327 537 314 569 292 594 c 0
270 619 240 637 207 640 c 0
173 642 139 628 116 603 c 0
93 578 82 543 84 510 c 0
85 477 100 445 123 421 c 0
146 397 178 382 211 379 c 0
243 375 278 382 306 399 c 0
334 417 357 443 369 475 c 0
362 437 342 402 312 378 c 0
283 353 246 340 208 340 c 0
163 339 120 358 88 389 c 0
57 421 39 464 39 509 c 0
38 554 55 599 87 631 c 0
119 664 164 682 210 679 c 0
252 676 291 655 321 624 c 0
350 594 369 555 379 514 c 0
390 462 388 408 379 356 c 0
354 221 283 95 180 5 c 0
Z
136 45 m 0
131 99 l 0
206 171 257 269 274 373 c 0
280 412 281 452 275 492 c 0
271 512 266 532 254 549 c 0
248 558 240 565 232 571 c 0
223 576 213 579 203 580 c 0
186 580 169 572 158 559 c 0
148 546 142 528 144 512 c 0
145 493 153 476 165 463 c 0
178 449 195 441 213 438 c 0
234 434 257 438 275 449 c 0
294 461 308 479 315 500 c 0
313 473 301 447 282 428 c 0
263 410 236 399 210 399 c 0
180 398 151 411 131 431 c 0
110 452 99 481 99 511 c 0
98 539 109 567 129 588 c 0
149 608 177 620 206 619 c 0
235 617 263 601 282 578 c 0
302 556 313 528 320 499 c 0
329 455 326 409 319 366 c 0
296 242 231 127 136 45 c 0
Z
Spiro
224 -35 v
219 18 v
393 352 c
392 518 c
212 699 c
25 507 c
208 319 c
424 449 v
205 280 c
-19 506 c
215 738 c
437 527 c
438 345 c
180 5 v
175 59 v
334 363 c
334 505 c
207 640 c
84 510 c
211 379 c
369 475 v
208 340 c
39 509 c
210 679 c
379 514 c
379 356 c
136 45 v
131 99 v
274 373 c
275 492 c
203 580 c
144 512 c
213 438 c
315 500 v
210 399 c
99 511 c
206 619 c
320 499 c
319 366 c
0 0 z
EndSpiro
EndSplineSet
        EndChar
StartChar: A
Encoding: 65 65 0
Width: 526
InSpiro: 1
        Flags: H
        LayerCount: 2
        Back
        SplineSet
119 53 m 0
103 74 l 0
142 234 l 0
253 650 l 0
225 650 l 0
336 234 l 0
365 68 l 0
313 229 l 0
199 670 l 0
199 670 l 0
279 670 l 0
279 670 l 0
165 229 l 0
119 53 l 0
Z
90 60 m 0
74 82 l 0
113 242 l 0
226 700 l 0
226 700 l 0
252 700 l 0
252 700 l 0
365 242 l 0
394 76 l 0
342 237 l 0
238 687 l 0
240 687 l 0
136 237 l 0
90 60 l 0
Z
62 67 m 0
47 89 l 0
84 249 l 0
196 730 l 0
196 730 l 0
282 730 l 0
282 730 l 0
394 249 l 0
423 83 l 0
371 244 l 0
262 710 l 0
216 710 l 0
107 244 l 0
62 67 l 0
Z
97 200 m 0
115 220 l 0
368 210 l 0
97 200 l 0
Z
97 230 m 0
115 250 l 0
368 240 l 0
97 230 l 0
Z
97 260 m 0
115 280 l 0
368 270 l 0
97 260 l 0
Z
Spiro
119 53 v
103 74 v
142 234 v
253 650 v
225 650 v
336 234 v
365 68 v
313 229 v
199 670 v
199 670 v
279 670 v
279 670 v
165 229 v
90 60 v
74 82 v
113 242 v
226 700 v
226 700 v
252 700 v
252 700 v
365 242 v
394 76 v
342 237 v
238 687 v
240 687 v
136 237 v
62 67 v
47 89 v
84 249 v
196 730 v
196 730 v
282 730 v
282 730 v
394 249 v
423 83 v
371 244 v
262 710 v
216 710 v
107 244 v
97 200 v
115 220 v
368 210 v
97 230 v
115 250 v
368 240 v
97 260 v
115 280 v
368 270 v
0 0 z
EndSpiro
EndSplineSet
        Fore
        SplineSet
119 -14 m 0
88 30 l 0
129 200 l 0
238 580 l 0
180 580 l 0
289 200 l 0
311 17 l 0
244 189 l 0
129 620 l 0
129 620 l 0
289 620 l 0
289 620 l 0
174 189 l 0
119 -14 l 0
Z
61 0 m 0
30 45 l 0
71 214 l 0
184 680 l 0
184 680 l 0
234 680 l 0
234 680 l 0
347 214 l 0
369 32 l 0
302 205 l 0
207 656 l 0
211 656 l 0
116 205 l 0
61 0 l 0
Z
3 14 m 0
-27 59 l 0
12 228 l 0
124 740 l 0
124 740 l 0
294 740 l 0
294 740 l 0
406 228 l 0
428 46 l 0
361 219 l 0
254 700 l 0
164 700 l 0
57 219 l 0
3 14 l 0
Z
37 131 m 0
74 170 l 0
354 150 l 0
37 131 l 0
Z
37 191 m 0
74 230 l 0
354 210 l 0
37 191 l 0
Z
37 251 m 0
74 290 l 0
354 270 l 0
37 251 l 0
Z
Spiro
119 -14 v
88 30 v
129 200 v
238 580 v
180 580 v
289 200 v
311 17 v
244 189 v
129 620 v
129 620 v
289 620 v
289 620 v
174 189 v
61 0 v
30 45 v
71 214 v
184 680 v
184 680 v
234 680 v
234 680 v
347 214 v
369 32 v
302 205 v
207 656 v
211 656 v
116 205 v
3 14 v
-27 59 v
12 228 v
124 740 v
124 740 v
294 740 v
294 740 v
406 228 v
428 46 v
361 219 v
254 700 v
164 700 v
57 219 v
37 131 v
74 170 v
354 150 v
37 191 v
74 230 v
354 210 v
37 251 v
74 290 v
354 270 v
0 0 z
EndSpiro
EndSplineSet
        EndChar
StartChar: B
Encoding: 66 66 0
Width: 526
InSpiro: 1
        Flags: H
        LayerCount: 2
        Back
        SplineSet
127 60 m 0
106 79 l 0
106 670 l 0
106 670 l 0
118 660 l 0
240 670 l 0
258 671 276 672 294 668 c 0
312 664 329 655 341 642 c 0
354 629 362 612 367 594 c 0
371 576 372 558 372 540 c 0
371 521 370 503 366 486 c 0
361 468 353 451 340 438 c 0
328 425 311 416 294 412 c 0
276 408 258 408 240 410 c 0
73 420 l 0
240 430 l 0
254 430 269 432 283 436 c 0
297 440 310 448 321 458 c 0
331 469 339 482 343 496 c 0
347 510 349 525 349 540 c 0
348 554 347 569 342 583 c 0
338 597 330 610 320 620 c 0
310 630 297 638 283 642 c 0
269 647 254 648 240 650 c 0
118 660 l 0
119 660 l 0
127 60 l 0
Z
97 61 m 0
76 80 l 0
76 700 l 0
76 700 l 0
88 690 l 0
240 700 l 0
262 701 284 702 306 697 c 0
328 692 349 681 364 665 c 0
379 648 390 628 395 606 c 0
401 584 402 562 402 540 c 0
401 517 400 495 395 473 c 0
389 451 379 431 364 415 c 0
348 399 328 388 306 382 c 0
284 377 262 378 240 380 c 0
74 390 l 0
240 400 l 0
258 401 277 402 295 408 c 0
313 413 330 423 343 436 c 0
356 449 366 466 371 484 c 0
377 502 379 521 379 540 c 0
378 558 377 577 371 595 c 0
365 613 356 629 343 643 c 0
329 656 313 666 295 671 c 0
277 677 258 678 240 680 c 0
88 690 l 0
89 690 l 0
97 61 l 0
Z
68 61 m 0
48 80 l 0
48 730 l 0
48 730 l 0
60 720 l 0
240 730 l 0
266 731 293 732 318 726 c 0
344 720 368 706 387 687 c 0
405 668 417 644 424 618 c 0
430 593 431 566 432 540 c 0
432 513 430 486 424 461 c 0
417 435 405 410 387 391 c 0
369 372 344 359 319 353 c 0
293 347 266 348 240 350 c 0
74 360 l 0
240 370 l 0
262 371 285 373 307 379 c 0
329 386 349 398 365 414 c 0
381 430 393 450 399 472 c 0
406 494 408 517 409 540 c 0
409 562 406 585 400 607 c 0
393 629 381 649 365 665 c 0
349 682 329 693 307 700 c 0
285 707 262 708 240 710 c 0
60 720 l 0
60 720 l 0
68 61 l 0
Z
60 350 m 0
77 370 l 0
240 370 l 0
257 370 275 369 292 364 c 0
310 360 326 351 338 338 c 0
351 325 359 309 364 292 c 0
369 275 371 257 372 240 c 0
372 221 371 203 367 185 c 0
362 168 354 151 341 138 c 0
328 125 312 116 294 112 c 0
276 108 258 108 240 110 c 0
73 120 l 0
240 130 l 0
254 130 269 132 283 136 c 0
297 140 310 148 320 158 c 0
330 169 338 182 342 196 c 0
347 210 348 225 349 240 c 0
349 254 348 270 344 284 c 0
340 299 333 312 323 323 c 0
312 334 299 341 284 345 c 0
270 349 254 350 240 350 c 0
60 350 l 0
Z
60 380 m 0
78 400 l 0
240 400 l 0
261 400 284 399 305 393 c 0
326 388 345 376 361 361 c 0
376 345 387 325 393 304 c 0
399 283 401 261 402 240 c 0
402 217 401 194 396 173 c 0
390 151 380 130 364 114 c 0
349 98 328 87 306 82 c 0
285 77 262 78 240 80 c 0
74 90 l 0
240 100 l 0
258 101 277 102 295 108 c 0
313 113 329 123 342 136 c 0
355 150 365 166 370 184 c 0
376 202 378 221 379 240 c 0
379 259 378 278 373 296 c 0
368 315 359 332 345 346 c 0
332 360 315 369 296 374 c 0
278 379 259 380 240 380 c 0
60 380 l 0
Z
60 410 m 0
78 430 l 0
240 430 l 0
265 430 292 429 317 422 c 0
342 415 365 402 383 384 c 0
401 365 414 341 421 316 c 0
429 292 431 265 432 240 c 0
432 213 431 186 425 160 c 0
418 135 406 110 388 91 c 0
369 72 345 59 319 53 c 0
293 47 266 48 240 50 c 0
74 60 l 0
240 70 l 0
262 71 285 73 307 79 c 0
328 86 349 98 364 114 c 0
380 130 392 151 399 172 c 0
405 194 408 217 409 240 c 0
409 263 408 286 402 309 c 0
396 331 384 352 368 369 c 0
352 385 331 397 309 403 c 0
286 409 263 410 240 410 c 0
60 410 l 0
Z
Spiro
127 60 v
106 79 v
106 670 v
106 670 v
118 660 v
240 670 ]
372 540 c
240 410 [
73 420 v
240 430 ]
349 540 c
240 650 [
118 660 v
119 660 v
97 61 v
76 80 v
76 700 v
76 700 v
88 690 v
240 700 ]
402 540 c
240 380 [
74 390 v
240 400 ]
379 540 c
240 680 [
88 690 v
89 690 v
68 61 v
48 80 v
48 730 v
48 730 v
60 720 v
240 730 ]
432 540 c
240 350 [
74 360 v
240 370 ]
409 540 c
240 710 [
60 720 v
60 720 v
60 350 v
77 370 v
240 370 ]
372 240 c
240 110 [
73 120 v
240 130 ]
349 240 c
240 350 [
60 380 v
78 400 v
240 400 ]
402 240 c
240 80 [
74 90 v
240 100 ]
379 240 c
240 380 [
60 410 v
78 430 v
240 430 ]
432 240 c
240 50 [
74 60 v
240 70 ]
409 240 c
240 410 [
0 0 z
EndSpiro
EndSplineSet
        Fore
        SplineSet
136 1 m 0
94 39 l 0
94 620 l 0
94 620 l 0
117 600 l 0
210 620 l 0
226 623 242 626 258 624 c 0
275 622 290 614 302 602 c 0
313 591 320 575 324 559 c 0
327 543 326 526 326 510 c 0
325 494 324 478 320 463 c 0
316 447 309 433 298 422 c 0
287 410 272 403 257 400 c 0
241 396 225 398 210 400 c 0
27 420 l 0
210 440 l 0
219 441 228 442 237 445 c 0
246 447 254 452 261 459 c 0
268 465 273 473 276 482 c 0
279 491 280 500 280 510 c 0
279 519 277 527 274 536 c 0
270 544 265 552 258 558 c 0
252 564 244 569 236 572 c 0
227 576 218 578 210 580 c 0
117 600 l 0
119 600 l 0
136 1 l 0
Z
76 2 m 0
34 40 l 0
34 680 l 0
34 680 l 0
57 660 l 0
210 680 l 0
234 683 259 685 283 681 c 0
307 676 329 665 346 647 c 0
363 629 374 606 380 583 c 0
385 559 386 534 386 510 c 0
385 485 384 461 379 437 c 0
373 414 362 391 345 374 c 0
328 356 306 344 282 340 c 0
258 335 234 337 210 340 c 0
28 360 l 0
210 380 l 0
227 381 244 384 260 389 c 0
277 394 292 403 304 415 c 0
317 427 326 442 332 459 c 0
337 475 340 492 340 510 c 0
339 527 337 544 331 560 c 0
325 576 316 591 303 603 c 0
291 615 276 624 260 629 c 0
244 635 226 637 210 640 c 0
57 660 l 0
59 660 l 0
76 2 l 0
Z
16 2 m 0
-25 40 l 0
-24 740 l 0
-24 740 l 0
-1 720 l 0
210 740 l 0
242 743 275 745 307 738 c 0
339 731 369 715 391 692 c 0
414 668 429 638 436 607 c 0
444 575 445 542 446 510 c 0
446 477 445 444 437 412 c 0
430 380 415 349 392 326 c 0
370 302 339 286 307 280 c 0
275 273 242 276 210 280 c 0
28 300 l 0
210 320 l 0
235 322 260 325 284 333 c 0
307 341 330 354 348 372 c 0
366 390 379 412 388 435 c 0
396 459 399 484 400 510 c 0
400 535 397 560 388 584 c 0
380 608 367 630 349 648 c 0
331 666 308 679 284 687 c 0
260 694 235 697 210 700 c 0
-1 720 l 0
0 720 l 0
16 2 l 0
Z
0 281 m 0
36 320 l 0
210 320 l 0
225 320 240 319 255 315 c 0
270 311 284 304 295 293 c 0
306 283 313 269 318 255 c 0
323 240 325 225 326 210 c 0
326 194 326 177 322 162 c 0
318 147 310 132 299 121 c 0
288 110 273 102 257 99 c 0
241 96 225 98 210 100 c 0
27 120 l 0
210 140 l 0
219 141 228 142 237 145 c 0
245 148 254 152 260 159 c 0
267 166 272 174 275 182 c 0
278 191 279 200 280 210 c 0
280 219 279 229 277 238 c 0
274 247 270 256 263 263 c 0
256 270 247 274 238 277 c 0
229 279 219 279 210 280 c 0
0 281 l 0
Z
0 341 m 0
37 380 l 0
210 380 l 0
233 380 257 379 279 373 c 0
302 367 323 355 340 338 c 0
357 322 368 300 375 278 c 0
382 256 384 232 386 209 c 0
387 184 386 160 380 136 c 0
375 112 363 90 346 73 c 0
329 55 306 44 282 39 c 0
258 35 234 37 210 40 c 0
28 60 l 0
210 80 l 0
227 81 244 84 260 89 c 0
276 95 291 104 303 116 c 0
316 128 325 143 330 159 c 0
336 175 339 192 340 210 c 0
340 227 339 245 335 262 c 0
330 280 321 296 308 308 c 0
296 321 280 330 262 334 c 0
245 339 227 339 210 340 c 0
0 341 l 0
Z
0 401 m 0
37 440 l 0
210 440 l 0
241 440 273 439 303 431 c 0
334 422 362 406 385 384 c 0
407 362 422 333 431 303 c 0
441 273 444 241 446 210 c 0
447 177 447 143 439 111 c 0
432 79 417 48 394 25 c 0
371 1 340 -13 308 -20 c 0
276 -26 242 -23 210 -20 c 0
28 0 l 0
210 20 l 0
234 22 260 25 283 34 c 0
307 42 329 55 347 72 c 0
365 90 378 112 386 136 c 0
395 159 398 184 400 210 c 0
401 235 399 262 392 287 c 0
385 312 372 336 354 354 c 0
336 372 312 385 287 392 c 0
262 399 236 399 210 400 c 0
0 401 l 0
Z
Spiro
136 1 v
94 39 v
94 620 v
94 620 v
117 600 v
210 620 ]
326 510 c
210 400 [
27 420 v
210 440 ]
280 510 c
210 580 [
117 600 v
119 600 v
76 2 v
34 40 v
34 680 v
34 680 v
57 660 v
210 680 ]
386 510 c
210 340 [
28 360 v
210 380 ]
340 510 c
210 640 [
57 660 v
59 660 v
16 2 v
-25 40 v
-24 740 v
-24 740 v
-1 720 v
210 740 ]
446 510 c
210 280 [
28 300 v
210 320 ]
400 510 c
210 700 [
-1 720 v
0 720 v
0 281 v
36 320 v
210 320 ]
326 210 c
210 100 [
27 120 v
210 140 ]
280 210 c
210 280 [
0 341 v
37 380 v
210 380 ]
386 209 c
210 40 [
28 60 v
210 80 ]
340 210 c
210 340 [
0 401 v
37 440 v
210 440 ]
446 210 c
210 -20 [
28 0 v
210 20 ]
400 210 c
210 400 [
0 0 z
EndSpiro
EndSplineSet
        EndChar
StartChar: C
Encoding: 67 67 0
Width: 526
InSpiro: 1
        Flags: H
        LayerCount: 2
        Back
        SplineSet
364 560 m 0
362 561 l 0
354 593 334 622 306 641 c 0
278 660 243 667 211 662 c 0
180 656 152 641 130 619 c 0
108 598 92 571 82 542 c 0
60 485 59 422 60 361 c 0
60 299 60 236 82 179 c 0
93 150 109 123 131 102 c 0
152 80 180 65 211 60 c 0
244 54 279 61 307 80 c 0
334 98 355 128 363 161 c 0
355 128 334 98 306 79 c 0
278 61 243 54 210 60 c 0
179 65 152 81 130 102 c 0
108 124 93 150 82 179 c 0
61 236 60 299 60 360 c 0
59 421 60 484 81 542 c 0
92 571 108 598 130 619 c 0
151 641 179 657 210 663 c 0
243 669 279 661 307 642 c 0
336 623 356 593 364 560 c 0
Z
362 560 m 0
360 561 l 0
352 592 332 621 305 640 c 0
278 658 244 666 212 661 c 0
181 656 154 640 132 619 c 0
110 597 94 571 83 542 c 0
62 485 62 422 62 362 c 0
61 300 62 238 83 181 c 0
94 152 110 125 132 104 c 0
153 82 181 66 212 62 c 0
244 56 278 64 306 82 c 0
333 100 353 129 361 162 c 0
353 129 333 100 306 81 c 0
278 63 243 55 211 61 c 0
180 66 153 81 131 103 c 0
109 124 93 151 82 180 c 0
61 237 61 299 61 361 c 0
60 422 61 484 82 542 c 0
93 571 109 598 131 619 c 0
152 641 180 656 211 662 c 0
244 667 279 660 306 641 c 0
334 622 354 592 362 560 c 0
Z
360 559 m 0
358 560 l 0
350 591 331 620 304 638 c 0
277 656 243 664 212 659 c 0
182 654 154 638 132 617 c 0
111 596 95 569 84 540 c 0
64 483 63 421 64 361 c 0
64 300 64 238 85 181 c 0
95 152 111 126 132 104 c 0
154 83 182 67 212 63 c 0
244 57 278 65 305 83 c 0
332 101 351 130 359 162 c 0
351 129 332 100 304 82 c 0
277 64 243 56 211 62 c 0
180 66 153 82 131 104 c 0
109 125 94 152 83 181 c 0
62 238 62 301 63 362 c 0
63 422 63 484 84 541 c 0
94 569 110 596 132 617 c 0
153 639 181 654 211 660 c 0
243 665 278 658 305 639 c 0
333 620 353 591 360 559 c 0
Z
Spiro
364 560 v
362 561 v
211 662 c
60 361 c
211 60 c
363 161 v
210 60 c
60 360 c
210 663 c
362 560 v
360 561 v
212 661 c
62 362 c
212 62 c
361 162 v
211 61 c
61 361 c
211 662 c
360 559 v
358 560 v
212 659 c
64 361 c
212 63 c
359 162 v
211 62 c
63 362 c
211 660 c
0 0 z
EndSpiro
EndSplineSet
        Fore
        SplineSet
444 520 m 0
397 549 l 0
394 594 370 639 334 667 c 0
297 695 249 707 204 699 c 0
169 692 137 675 112 651 c 0
86 627 67 597 54 564 c 0
27 500 23 428 25 359 c 0
26 289 31 219 58 155 c 0
71 124 90 94 115 70 c 0
139 45 170 27 204 19 c 0
252 6 306 16 347 45 c 0
388 75 415 122 420 173 c 0
420 116 395 60 352 24 c 0
309 -12 250 -28 195 -19 c 0
156 -12 119 6 90 32 c 0
60 58 37 91 20 126 c 0
-12 198 -19 279 -19 358 c 0
-18 436 -9 516 23 588 c 0
40 623 63 656 92 683 c 0
121 709 156 729 195 738 c 0
257 752 326 734 375 692 c 0
423 650 449 583 444 520 c 0
Z
388 508 m 0
339 536 l 0
337 566 322 596 298 615 c 0
275 635 243 644 213 640 c 0
184 636 159 621 139 600 c 0
119 580 106 554 97 527 c 0
81 473 84 415 86 359 c 0
87 303 86 247 103 194 c 0
112 168 125 143 143 122 c 0
162 101 186 85 213 79 c 0
247 70 284 77 313 98 c 0
341 118 360 152 363 187 c 0
365 146 348 104 318 76 c 0
288 48 246 35 206 40 c 0
173 43 142 59 117 82 c 0
93 104 75 133 63 164 c 0
39 225 38 293 40 360 c 0
41 424 44 491 69 551 c 0
81 581 98 609 121 632 c 0
145 655 174 672 206 679 c 0
253 689 306 674 341 641 c 0
377 607 395 556 388 508 c 0
Z
334 497 m 0
283 520 l 0
282 535 275 551 263 562 c 0
252 573 236 579 221 580 c 0
209 580 198 577 188 572 c 0
178 567 170 560 162 552 c 0
148 535 140 513 137 491 c 0
131 447 143 403 145 359 c 0
146 316 139 273 146 231 c 0
149 210 156 190 169 172 c 0
181 155 200 142 221 138 c 0
240 134 261 138 277 149 c 0
293 161 304 179 307 199 c 0
309 174 301 147 284 129 c 0
268 110 243 99 218 99 c 0
191 98 164 111 145 129 c 0
126 148 113 173 105 199 c 0
91 251 97 306 100 360 c 0
102 411 99 464 114 513 c 0
122 538 134 562 151 581 c 0
169 600 192 614 218 619 c 0
250 624 285 612 308 588 c 0
331 564 341 529 334 497 c 0
Z
Spiro
444 520 v
397 549 v
204 699 c
25 359 c
204 19 c
420 173 v
195 -19 c
-19 358 c
195 738 c
388 508 v
339 536 v
213 640 c
86 359 c
213 79 c
363 187 v
206 40 c
40 360 c
206 679 c
334 497 v
283 520 v
221 580 c
145 359 c
221 138 c
307 199 v
218 99 c
100 360 c
218 619 c
0 0 z
EndSpiro
EndSplineSet
        EndChar
StartChar: D
Encoding: 68 68 0
Width: 526
InSpiro: 1
        Flags: H
        LayerCount: 2
        Back
        SplineSet
106 110 m 0
106 130 l 0
116 120 l 0
106 670 l 0
106 670 l 0
118 660 l 0
240 670 l 0
258 671 276 672 294 668 c 0
312 665 329 656 342 643 c 0
355 629 363 612 367 594 c 0
371 576 372 558 372 540 c 0
372 240 l 0
372 221 371 203 367 186 c 0
362 168 353 152 340 139 c 0
327 127 311 118 293 114 c 0
276 110 258 109 240 110 c 0
106 110 l 0
106 130 l 0
106 110 l 0
Z
119 120 m 0
240 130 l 0
254 131 269 132 283 136 c 0
298 140 311 147 322 157 c 0
333 168 340 181 344 195 c 0
348 210 349 225 349 240 c 0
349 540 l 0
349 554 348 569 344 584 c 0
340 598 333 611 322 622 c 0
311 632 298 639 283 643 c 0
269 647 254 648 240 650 c 0
118 660 l 0
119 660 l 0
129 110 l 0
129 110 l 0
119 120 l 0
119 120 l 0
Z
76 80 m 0
76 100 l 0
86 90 l 0
76 700 l 0
76 700 l 0
88 690 l 0
240 700 l 0
262 701 285 702 307 697 c 0
329 692 349 682 365 666 c 0
381 649 391 628 396 607 c 0
401 585 402 562 402 540 c 0
402 240 l 0
402 217 401 195 396 173 c 0
390 152 379 132 363 116 c 0
348 101 327 90 306 85 c 0
284 80 262 79 240 80 c 0
76 80 l 0
76 100 l 0
76 80 l 0
Z
89 90 m 0
240 100 l 0
258 101 277 102 296 107 c 0
314 112 331 121 345 134 c 0
359 148 368 165 373 183 c 0
378 201 379 221 379 240 c 0
379 540 l 0
379 558 378 578 373 596 c 0
368 614 359 631 345 645 c 0
331 658 314 667 296 672 c 0
277 677 258 678 240 680 c 0
88 690 l 0
89 690 l 0
99 80 l 0
99 80 l 0
89 90 l 0
89 90 l 0
Z
48 50 m 0
48 70 l 0
58 60 l 0
48 730 l 0
48 730 l 0
60 720 l 0
240 730 l 0
266 731 293 732 319 726 c 0
345 720 370 708 388 689 c 0
407 670 419 645 425 619 c 0
431 593 432 566 432 540 c 0
432 240 l 0
432 213 431 187 425 161 c 0
418 136 405 112 386 93 c 0
368 75 343 62 318 56 c 0
292 50 266 49 240 50 c 0
48 50 l 0
48 70 l 0
48 50 l 0
Z
60 60 m 0
240 70 l 0
263 71 286 72 308 78 c 0
330 84 351 95 368 111 c 0
385 128 396 148 402 171 c 0
408 193 409 216 409 240 c 0
409 540 l 0
409 563 408 586 402 608 c 0
396 631 385 651 368 668 c 0
351 684 330 695 308 701 c 0
286 707 263 708 240 710 c 0
60 720 l 0
60 720 l 0
70 50 l 0
70 50 l 0
60 60 l 0
60 60 l 0
Z
Spiro
106 110 v
106 130 v
116 120 v
106 670 v
106 670 v
118 660 v
240 670 ]
372 540 [
372 240 ]
240 110 [
106 110 v
106 130 v
119 120 v
240 130 ]
349 240 [
349 540 ]
240 650 [
118 660 v
119 660 v
129 110 v
129 110 v
119 120 v
76 80 v
76 100 v
86 90 v
76 700 v
76 700 v
88 690 v
240 700 ]
402 540 [
402 240 ]
240 80 [
76 80 v
76 100 v
89 90 v
240 100 ]
379 240 [
379 540 ]
240 680 [
88 690 v
89 690 v
99 80 v
99 80 v
89 90 v
48 50 v
48 70 v
58 60 v
48 730 v
48 730 v
60 720 v
240 730 ]
432 540 [
432 240 ]
240 50 [
48 50 v
48 70 v
60 60 v
240 70 ]
409 240 [
409 540 ]
240 710 [
60 720 v
60 720 v
70 50 v
70 50 v
60 60 v
0 0 z
EndSpiro
EndSplineSet
        Fore
        SplineSet
94 100 m 0
94 140 l 0
114 120 l 0
94 620 l 0
94 620 l 0
117 600 l 0
210 620 l 0
225 623 242 626 258 624 c 0
274 621 290 614 301 602 c 0
312 590 319 574 322 558 c 0
325 542 326 526 326 510 c 0
326 210 l 0
326 194 325 178 321 163 c 0
317 148 309 134 297 124 c 0
286 113 271 106 256 103 c 0
241 100 225 99 210 100 c 0
94 100 l 0
94 140 l 0
94 100 l 0
Z
120 120 m 0
210 140 l 0
219 142 228 143 236 146 c 0
245 149 254 153 261 159 c 0
268 165 273 173 276 182 c 0
279 191 279 200 280 210 c 0
280 510 l 0
280 519 279 528 276 537 c 0
273 546 268 554 261 560 c 0
254 566 245 570 236 573 c 0
228 576 219 578 210 580 c 0
117 600 l 0
119 600 l 0
139 100 l 0
139 100 l 0
120 120 l 0
120 120 l 0
Z
34 40 m 0
34 80 l 0
54 60 l 0
34 680 l 0
34 680 l 0
57 660 l 0
210 680 l 0
234 683 259 685 283 681 c 0
307 676 330 665 347 647 c 0
364 630 375 607 380 583 c 0
385 559 386 534 386 510 c 0
386 210 l 0
386 186 385 162 379 139 c 0
373 116 361 94 343 78 c 0
326 61 304 51 281 45 c 0
257 40 233 39 210 40 c 0
34 40 l 0
34 80 l 0
34 40 l 0
Z
60 60 m 0
210 80 l 0
227 82 244 84 261 89 c 0
278 94 294 102 307 114 c 0
320 126 329 141 334 158 c 0
339 174 340 192 340 210 c 0
340 510 l 0
340 527 339 545 334 561 c 0
329 578 320 594 307 605 c 0
294 617 278 625 261 630 c 0
244 635 227 637 210 640 c 0
57 660 l 0
59 660 l 0
79 40 l 0
79 40 l 0
60 60 l 0
60 60 l 0
Z
-24 -20 m 0
-24 20 l 0
-4 0 l 0
-24 740 l 0
-24 740 l 0
-1 720 l 0
210 740 l 0
242 743 275 745 307 739 c 0
339 732 370 717 393 693 c 0
416 670 431 639 438 607 c 0
445 575 446 542 446 510 c 0
446 210 l 0
446 177 445 145 437 114 c 0
429 83 413 54 389 32 c 0
366 9 336 -4 305 -12 c 0
274 -19 242 -20 210 -20 c 0
-24 -20 l 0
-24 20 l 0
-24 -20 l 0
Z
1 0 m 0
210 20 l 0
235 22 261 25 285 32 c 0
310 39 334 50 353 68 c 0
371 85 385 108 392 133 c 0
399 158 400 184 400 210 c 0
400 510 l 0
400 535 399 561 392 586 c 0
385 611 371 634 353 651 c 0
334 669 310 680 285 687 c 0
261 695 235 697 210 700 c 0
-1 720 l 0
0 720 l 0
20 -20 l 0
20 -20 l 0
1 0 l 0
1 0 l 0
Z
Spiro
94 100 v
94 140 v
114 120 v
94 620 v
94 620 v
117 600 v
210 620 ]
326 510 [
326 210 ]
210 100 [
94 100 v
94 140 v
120 120 v
210 140 ]
280 210 [
280 510 ]
210 580 [
117 600 v
119 600 v
139 100 v
139 100 v
120 120 v
34 40 v
34 80 v
54 60 v
34 680 v
34 680 v
57 660 v
210 680 ]
386 510 [
386 210 ]
210 40 [
34 40 v
34 80 v
60 60 v
210 80 ]
340 210 [
340 510 ]
210 640 [
57 660 v
59 660 v
79 40 v
79 40 v
60 60 v
-24 -20 v
-24 20 v
-4 0 v
-24 740 v
-24 740 v
-1 720 v
210 740 ]
446 510 [
446 210 ]
210 -20 [
-24 -20 v
-24 20 v
1 0 v
210 20 ]
400 210 [
400 510 ]
210 700 [
-1 720 v
0 720 v
20 -20 v
20 -20 v
1 0 v
0 0 z
EndSpiro
EndSplineSet
        EndChar
StartChar: E
Encoding: 69 69 0
Width: 526
InSpiro: 1
        Flags: H
        LayerCount: 2
        Back
        SplineSet
419 729 m 0
401 710 l 0
72 710 l 0
72 70 l 0
405 60 l 0
50 50 l 0
50 50 l 0
50 730 l 0
50 730 l 0
419 729 l 0
Z
419 699 m 0
401 680 l 0
102 680 l 0
102 100 l 0
405 90 l 0
79 80 l 0
79 80 l 0
79 700 l 0
79 700 l 0
419 699 l 0
Z
419 669 m 0
401 650 l 0
132 650 l 0
132 130 l 0
405 120 l 0
109 110 l 0
109 110 l 0
109 670 l 0
109 670 l 0
419 669 l 0
Z
60 350 m 0
77 370 l 0
405 360 l 0
60 350 l 0
Z
60 380 m 0
78 400 l 0
405 390 l 0
60 380 l 0
Z
60 410 m 0
78 430 l 0
405 420 l 0
60 410 l 0
Z
Spiro
419 729 v
401 710 v
72 710 v
72 70 v
405 60 v
50 50 v
50 50 v
50 730 v
50 730 v
419 699 v
401 680 v
102 680 v
102 100 v
405 90 v
79 80 v
79 80 v
79 700 v
79 700 v
419 669 v
401 650 v
132 650 v
132 130 v
405 120 v
109 110 v
109 110 v
109 670 v
109 670 v
60 350 v
77 370 v
405 360 v
60 380 v
78 400 v
405 390 v
60 410 v
78 430 v
405 420 v
0 0 z
EndSpiro
EndSplineSet
        Fore
        SplineSet
419 738 m 0
382 700 l 0
24 700 l 0
24 20 l 0
391 0 l 0
-20 -20 l 0
-20 -20 l 0
-20 740 l 0
-20 740 l 0
419 738 l 0
Z
419 678 m 0
382 640 l 0
84 640 l 0
84 80 l 0
391 60 l 0
39 40 l 0
39 40 l 0
39 680 l 0
39 680 l 0
419 678 l 0
Z
419 618 m 0
382 580 l 0
144 580 l 0
144 140 l 0
391 120 l 0
99 100 l 0
99 100 l 0
99 620 l 0
99 620 l 0
419 618 l 0
Z
0 281 m 0
36 320 l 0
391 300 l 0
0 281 l 0
Z
0 341 m 0
37 380 l 0
391 360 l 0
0 341 l 0
Z
0 401 m 0
37 440 l 0
391 420 l 0
0 401 l 0
Z
Spiro
419 738 v
382 700 v
24 700 v
24 20 v
391 0 v
-20 -20 v
-20 -20 v
-20 740 v
-20 740 v
419 678 v
382 640 v
84 640 v
84 80 v
391 60 v
39 40 v
39 40 v
39 680 v
39 680 v
419 618 v
382 580 v
144 580 v
144 140 v
391 120 v
99 100 v
99 100 v
99 620 v
99 620 v
0 281 v
36 320 v
391 300 v
0 341 v
37 380 v
391 360 v
0 401 v
37 440 v
391 420 v
0 0 z
EndSpiro
EndSplineSet
        EndChar
StartChar: F
Encoding: 70 70 0
Width: 526
InSpiro: 1
        Flags: H
        LayerCount: 2
        Back
        SplineSet
363 664 m 0
362 663 l 0
60 663 l 0
60 61 l 0
60 664 l 0
60 664 l 0
363 664 l 0
Z
363 662 m 0
362 661 l 0
62 661 l 0
62 61 l 0
61 662 l 0
61 662 l 0
363 662 l 0
Z
363 660 m 0
362 659 l 0
64 659 l 0
64 61 l 0
63 660 l 0
63 660 l 0
363 660 l 0
Z
60 359 m 0
60 360 l 0
263 360 l 0
60 359 l 0
Z
60 361 m 0
61 362 l 0
263 362 l 0
60 361 l 0
Z
60 363 m 0
61 364 l 0
263 364 l 0
60 363 l 0
Z
Spiro
363 664 v
362 663 v
60 663 v
60 61 v
60 664 v
60 664 v
363 662 v
362 661 v
62 661 v
62 61 v
61 662 v
61 662 v
363 660 v
362 659 v
64 659 v
64 61 v
63 660 v
63 660 v
60 359 v
60 360 v
263 360 v
60 361 v
61 362 v
263 362 v
60 363 v
61 364 v
263 364 v
0 0 z
EndSpiro
EndSplineSet
        Fore
        SplineSet
419 738 m 0
382 700 l 0
24 700 l 0
3 31 l 0
-20 740 l 0
-20 740 l 0
419 738 l 0
Z
419 678 m 0
382 640 l 0
84 640 l 0
63 31 l 0
39 680 l 0
39 680 l 0
419 678 l 0
Z
419 618 m 0
382 580 l 0
144 580 l 0
123 31 l 0
99 620 l 0
99 620 l 0
419 618 l 0
Z
0 281 m 0
37 320 l 0
291 300 l 0
0 281 l 0
Z
0 341 m 0
37 380 l 0
291 360 l 0
0 341 l 0
Z
0 401 m 0
37 440 l 0
291 420 l 0
0 401 l 0
Z
Spiro
419 738 v
382 700 v
24 700 v
3 31 v
-20 740 v
-20 740 v
419 678 v
382 640 v
84 640 v
63 31 v
39 680 v
39 680 v
419 618 v
382 580 v
144 580 v
123 31 v
99 620 v
99 620 v
0 281 v
37 320 v
291 300 v
0 341 v
37 380 v
291 360 v
0 401 v
37 440 v
291 420 v
0 0 z
EndSpiro
EndSplineSet
        EndChar
StartChar: G
Encoding: 71 71 0
Width: 526
InSpiro: 1
        Flags: H
        LayerCount: 2
        Back
        SplineSet
432 569 m 0
408 584 l 0
402 623 380 659 348 682 c 0
317 705 275 715 237 709 c 0
204 703 174 687 150 664 c 0
127 641 109 613 97 582 c 0
72 521 70 454 72 389 c 0
73 324 77 258 101 198 c 0
113 168 130 140 153 117 c 0
176 94 204 76 236 69 c 0
259 63 283 62 307 68 c 0
330 74 351 87 367 105 c 0
383 122 394 145 400 168 c 0
405 191 406 216 406 240 c 0
406 410 l 0
224 420 l 0
429 430 l 0
429 430 l 0
429 240 l 0
429 212 428 184 421 157 c 0
415 130 402 105 382 85 c 0
363 65 338 51 310 46 c 0
283 40 255 42 229 51 c 0
196 61 167 80 142 104 c 0
118 128 100 157 86 188 c 0
59 250 51 319 50 388 c 0
48 458 52 530 80 594 c 0
94 626 113 656 139 680 c 0
165 704 197 721 232 728 c 0
279 737 330 724 368 694 c 0
406 664 430 617 432 569 c 0
Z
404 564 m 0
379 578 l 0
374 609 356 638 331 657 c 0
305 676 272 684 241 680 c 0
211 675 185 660 164 639 c 0
143 618 128 592 119 564 c 0
99 509 101 448 102 390 c 0
102 331 103 271 122 216 c 0
132 189 146 163 167 141 c 0
187 120 213 104 242 99 c 0
260 95 280 95 298 101 c 0
317 106 333 117 346 131 c 0
358 146 367 164 371 182 c 0
375 201 376 220 376 240 c 0
376 380 l 0
224 390 l 0
399 400 l 0
399 400 l 0
399 240 l 0
399 217 398 194 393 172 c 0
388 150 377 129 362 112 c 0
346 96 326 84 304 78 c 0
282 73 258 74 237 80 c 0
206 87 179 105 157 127 c 0
135 149 119 176 107 205 c 0
84 263 80 326 79 389 c 0
77 452 79 517 102 576 c 0
114 606 131 633 154 655 c 0
177 677 206 693 238 699 c 0
277 705 320 694 351 669 c 0
382 643 402 604 404 564 c 0
Z
376 557 m 0
351 570 l 0
347 593 333 616 314 631 c 0
295 645 270 652 246 650 c 0
220 647 195 633 178 614 c 0
160 595 148 571 141 545 c 0
127 495 131 442 132 390 c 0
132 337 128 283 142 233 c 0
149 207 161 183 179 164 c 0
197 145 221 131 248 128 c 0
262 126 277 127 290 132 c 0
303 138 316 146 325 158 c 0
334 169 339 182 342 196 c 0
345 211 346 225 346 240 c 0
346 350 l 0
224 360 l 0
369 370 l 0
369 370 l 0
369 240 l 0
369 222 368 204 364 187 c 0
360 169 353 153 341 139 c 0
329 126 314 116 297 111 c 0
280 106 262 105 245 109 c 0
217 114 191 129 172 149 c 0
152 169 138 195 128 221 c 0
110 274 109 332 109 389 c 0
108 445 106 504 125 557 c 0
134 584 148 610 168 630 c 0
188 650 214 664 243 669 c 0
275 673 309 664 334 642 c 0
359 621 375 589 376 557 c 0
Z
Spiro
432 569 v
408 584 v
237 709 c
72 389 c
236 69 c
406 240 [
406 410 v
224 420 v
429 430 v
429 430 v
429 240 ]
229 51 c
50 388 c
232 728 c
404 564 v
379 578 v
241 680 c
102 390 c
242 99 c
376 240 [
376 380 v
224 390 v
399 400 v
399 400 v
399 240 ]
237 80 c
79 389 c
238 699 c
376 557 v
351 570 v
246 650 c
132 390 c
248 128 c
346 240 [
346 350 v
224 360 v
369 370 v
369 370 v
369 240 ]
245 109 c
109 389 c
243 669 c
0 0 z
EndSpiro
EndSplineSet
        Fore
        SplineSet
445 520 m 0
397 549 l 0
393 594 370 639 334 667 c 0
297 695 249 707 204 699 c 0
169 692 137 675 112 651 c 0
86 627 67 597 53 564 c 0
26 499 23 428 25 358 c 0
26 289 32 219 58 157 c 0
72 125 90 96 114 71 c 0
139 47 169 29 202 20 c 0
227 12 255 11 281 18 c 0
308 24 332 38 350 58 c 0
368 78 381 103 387 129 c 0
393 155 394 183 394 210 c 0
394 400 l 0
178 420 l 0
439 440 l 0
439 440 l 0
440 210 l 0
440 175 439 140 431 107 c 0
422 73 406 42 381 18 c 0
356 -5 324 -21 290 -27 c 0
256 -33 221 -29 189 -18 c 0
117 7 60 66 27 135 c 0
-5 203 -16 280 -19 357 c 0
-21 436 -13 517 20 589 c 0
37 624 60 657 90 684 c 0
120 710 156 729 195 738 c 0
257 751 326 733 374 691 c 0
422 649 449 583 445 520 c 0
Z
389 508 m 0
340 536 l 0
338 566 323 596 299 615 c 0
275 635 243 644 213 640 c 0
185 635 159 621 139 600 c 0
120 580 106 554 97 528 c 0
80 474 83 416 84 360 c 0
84 303 82 245 100 192 c 0
108 165 122 139 142 119 c 0
161 98 187 83 215 79 c 0
232 76 249 77 266 82 c 0
282 88 297 98 308 112 c 0
319 125 326 141 330 158 c 0
333 175 334 192 334 210 c 0
334 340 l 0
178 360 l 0
379 380 l 0
379 380 l 0
380 210 l 0
380 185 379 160 374 136 c 0
368 112 357 90 340 72 c 0
323 54 300 42 276 37 c 0
252 31 227 33 204 40 c 0
173 48 145 66 122 89 c 0
100 112 82 140 70 169 c 0
45 229 40 294 39 359 c 0
37 424 40 491 65 552 c 0
78 582 96 610 120 633 c 0
144 656 173 672 206 679 c 0
253 688 305 673 341 640 c 0
376 607 395 556 389 508 c 0
Z
335 497 m 0
283 520 l 0
282 535 275 551 264 562 c 0
252 573 236 579 221 580 c 0
210 580 199 577 189 572 c 0
179 567 171 560 164 551 c 0
150 534 142 513 139 491 c 0
133 448 144 404 144 361 c 0
143 314 129 268 135 223 c 0
138 200 147 177 162 160 c 0
170 152 180 145 191 141 c 0
201 136 213 135 225 137 c 0
233 138 240 141 247 145 c 0
254 149 260 155 264 162 c 0
268 169 271 177 272 185 c 0
273 193 274 201 274 210 c 0
274 280 l 0
178 300 l 0
319 320 l 0
319 320 l 0
320 210 l 0
320 195 320 181 317 167 c 0
314 153 308 140 299 128 c 0
291 117 279 108 265 103 c 0
252 98 238 96 224 98 c 0
197 100 172 113 153 132 c 0
134 151 121 175 112 200 c 0
96 251 98 306 99 360 c 0
99 412 96 465 112 514 c 0
120 539 132 563 150 582 c 0
168 601 192 614 218 619 c 0
250 624 285 612 308 588 c 0
331 564 341 529 335 497 c 0
Z
Spiro
445 520 v
397 549 v
204 699 c
25 358 c
202 20 c
394 210 [
394 400 v
178 420 v
439 440 v
439 440 v
440 210 ]
189 -18 c
-19 357 c
195 738 c
389 508 v
340 536 v
213 640 c
84 360 c
215 79 c
334 210 [
334 340 v
178 360 v
379 380 v
379 380 v
380 210 ]
204 40 c
39 359 c
206 679 c
335 497 v
283 520 v
221 580 c
144 361 c
225 137 c
274 210 [
274 280 v
178 300 v
319 320 v
319 320 v
320 210 ]
224 98 c
99 360 c
218 619 c
0 0 z
EndSpiro
EndSplineSet
        EndChar
StartChar: H
Encoding: 72 72 0
Width: 526
InSpiro: 1
        Flags: H
        LayerCount: 2
        Back
        SplineSet
127 60 m 0
106 79 l 0
118 704 l 0
127 60 l 0
Z
97 61 m 0
76 80 l 0
88 704 l 0
97 61 l 0
Z
68 61 m 0
48 80 l 0
60 704 l 0
68 61 l 0
Z
60 350 m 0
77 370 l 0
405 360 l 0
60 350 l 0
Z
60 380 m 0
78 400 l 0
405 390 l 0
60 380 l 0
Z
60 410 m 0
78 430 l 0
405 420 l 0
60 410 l 0
Z
427 60 m 0
406 79 l 0
418 704 l 0
427 60 l 0
Z
397 61 m 0
376 80 l 0
388 704 l 0
397 61 l 0
Z
367 61 m 0
346 80 l 0
358 704 l 0
367 61 l 0
Z
Spiro
127 60 v
106 79 v
118 704 v
97 61 v
76 80 v
88 704 v
68 61 v
48 80 v
60 704 v
60 350 v
77 370 v
405 360 v
60 380 v
78 400 v
405 390 v
60 410 v
78 430 v
405 420 v
427 60 v
406 79 v
418 704 v
397 61 v
376 80 v
388 704 v
367 61 v
346 80 v
358 704 v
0 0 z
EndSpiro
EndSplineSet
        Fore
        SplineSet
136 1 m 0
94 39 l 0
117 688 l 0
136 1 l 0
Z
76 2 m 0
34 40 l 0
57 688 l 0
76 2 l 0
Z
16 2 m 0
-25 40 l 0
-2 688 l 0
16 2 l 0
Z
0 281 m 0
36 320 l 0
391 300 l 0
0 281 l 0
Z
0 341 m 0
37 380 l 0
391 360 l 0
0 341 l 0
Z
0 401 m 0
37 440 l 0
391 420 l 0
0 401 l 0
Z
436 1 m 0
394 39 l 0
417 688 l 0
436 1 l 0
Z
376 2 m 0
334 40 l 0
357 688 l 0
376 2 l 0
Z
316 2 m 0
274 40 l 0
297 688 l 0
316 2 l 0
Z
Spiro
136 1 v
94 39 v
117 688 v
76 2 v
34 40 v
57 688 v
16 2 v
-25 40 v
-2 688 v
0 281 v
36 320 v
391 300 v
0 341 v
37 380 v
391 360 v
0 401 v
37 440 v
391 420 v
436 1 v
394 39 v
417 688 v
376 2 v
334 40 v
357 688 v
316 2 v
274 40 v
297 688 v
0 0 z
EndSpiro
EndSplineSet
        EndChar
StartChar: J
Encoding: 74 74 0
Width: 526
InSpiro: 1
        Flags: H
        LayerCount: 2
        Back
        SplineSet
60 650 m 0
77 670 l 0
361 660 l 0
372 670 l 0
372 670 l 0
372 390 l 0
372 332 372 274 354 220 c 0
344 193 330 167 310 147 c 0
290 127 264 112 236 109 c 0
206 105 175 113 152 132 c 0
129 151 114 179 112 209 c 0
116 182 132 157 154 142 c 0
177 127 206 121 233 128 c 0
258 133 280 149 296 169 c 0
313 188 324 212 331 237 c 0
346 286 347 338 349 390 c 0
359 660 l 0
361 660 l 0
60 650 l 0
Z
60 680 m 0
78 700 l 0
391 690 l 0
402 700 l 0
402 700 l 0
402 390 l 0
402 326 401 260 378 201 c 0
366 171 349 143 325 121 c 0
302 99 272 84 241 80 c 0
204 74 165 85 136 108 c 0
107 131 87 166 84 203 c 0
89 168 109 136 138 117 c 0
167 98 204 91 238 99 c 0
266 105 291 121 311 143 c 0
331 164 346 190 355 217 c 0
375 272 377 331 379 390 c 0
389 690 l 0
391 690 l 0
60 680 l 0
Z
60 710 m 0
78 730 l 0
421 720 l 0
432 730 l 0
432 730 l 0
432 390 l 0
432 319 430 246 402 181 c 0
388 148 367 118 340 95 c 0
314 72 281 55 246 51 c 0
202 44 156 57 121 83 c 0
86 110 62 152 57 196 c 0
63 154 87 116 122 92 c 0
157 68 201 59 243 69 c 0
274 75 304 93 327 115 c 0
350 138 368 167 380 197 c 0
404 258 407 324 409 390 c 0
419 720 l 0
421 720 l 0
60 710 l 0
Z
Spiro
60 650 v
77 670 v
361 660 v
372 670 v
372 670 v
372 390 ]
236 109 c
112 209 v
233 128 c
349 390 [
359 660 v
361 660 v
60 680 v
78 700 v
391 690 v
402 700 v
402 700 v
402 390 ]
241 80 c
84 203 v
238 99 c
379 390 [
389 690 v
391 690 v
60 710 v
78 730 v
421 720 v
432 730 v
432 730 v
432 390 ]
246 51 c
57 196 v
243 69 c
409 390 [
419 720 v
421 720 v
0 0 z
EndSpiro
EndSplineSet
        Fore
        SplineSet
0 581 m 0
36 620 l 0
302 600 l 0
324 620 l 0
324 620 l 0
325 360 l 0
325 306 326 252 310 201 c 0
302 176 290 152 271 133 c 0
253 114 228 100 202 99 c 0
175 97 148 107 130 126 c 0
111 145 102 172 105 199 c 0
107 178 119 158 136 146 c 0
154 135 176 131 197 138 c 0
216 144 233 158 244 176 c 0
256 193 262 214 267 234 c 0
275 275 276 317 280 359 c 0
299 600 l 0
302 600 l 0
0 581 l 0
Z
0 641 m 0
37 680 l 0
362 660 l 0
384 680 l 0
384 680 l 0
385 360 l 0
385 293 384 224 358 162 c 0
346 132 327 103 302 81 c 0
277 59 246 43 213 40 c 0
171 35 128 48 97 76 c 0
66 104 48 145 49 187 c 0
52 150 72 116 102 96 c 0
132 75 171 69 206 79 c 0
232 86 256 102 274 123 c 0
292 144 305 169 315 195 c 0
333 247 336 303 340 359 c 0
359 660 l 0
362 660 l 0
0 641 l 0
Z
0 701 m 0
37 740 l 0
422 720 l 0
444 740 l 0
444 740 l 0
445 360 l 0
445 279 442 195 407 122 c 0
390 86 365 52 333 27 c 0
301 2 263 -14 223 -19 c 0
167 -25 109 -8 66 27 c 0
22 63 -4 117 -8 173 c 0
-1 122 27 74 69 45 c 0
111 16 166 6 216 19 c 0
249 27 280 45 305 69 c 0
330 93 350 123 363 155 c 0
391 218 396 289 400 359 c 0
419 720 l 0
422 720 l 0
0 701 l 0
Z
Spiro
0 581 v
36 620 v
302 600 v
324 620 v
324 620 v
325 360 ]
202 99 c
105 199 v
197 138 c
280 359 [
299 600 v
302 600 v
0 641 v
37 680 v
362 660 v
384 680 v
384 680 v
385 360 ]
213 40 c
49 187 v
206 79 c
340 359 [
359 660 v
362 660 v
0 701 v
37 740 v
422 720 v
444 740 v
444 740 v
445 360 ]
223 -19 c
-8 173 v
216 19 c
400 359 [
419 720 v
422 720 v
0 0 z
EndSpiro
EndSplineSet
        EndChar
StartChar: K
Encoding: 75 75 0
Width: 526
InSpiro: 1
        Flags: H
        LayerCount: 2
        Back
        SplineSet
383 737 m 0
384 711 l 0
72 397 l 0
61 75 l 0
50 412 l 0
50 392 l 0
383 737 l 0
Z
405 716 m 0
406 690 l 0
102 385 l 0
91 75 l 0
79 400 l 0
79 400 l 0
405 716 l 0
Z
426 694 m 0
427 668 l 0
132 372 l 0
121 75 l 0
109 387 l 0
109 387 l 0
426 694 l 0
Z
52 718 m 0
72 700 l 0
72 381 l 0
380 58 l 0
50 387 l 0
50 367 l 0
52 718 l 0
Z
81 718 m 0
102 700 l 0
102 394 l 0
402 80 l 0
79 380 l 0
79 380 l 0
81 718 l 0
Z
111 718 m 0
132 700 l 0
132 406 l 0
423 101 l 0
109 392 l 0
109 392 l 0
111 718 l 0
Z
Spiro
383 737 v
384 711 v
72 397 v
61 75 v
50 412 v
50 392 v
405 716 v
406 690 v
102 385 v
91 75 v
79 400 v
79 400 v
426 694 v
427 668 v
132 372 v
121 75 v
109 387 v
109 387 v
52 718 v
72 700 v
72 381 v
380 58 v
50 387 v
50 367 v
81 718 v
102 700 v
102 394 v
402 80 v
79 380 v
79 380 v
111 718 v
132 700 v
132 406 v
423 101 v
109 392 v
109 392 v
0 0 z
EndSpiro
EndSplineSet
        Fore
        SplineSet
347 755 m 0
350 702 l 0
24 375 l 0
3 31 l 0
-20 404 l 0
-20 364 l 0
347 755 l 0
Z
390 713 m 0
393 660 l 0
84 351 l 0
63 31 l 0
39 380 l 0
39 380 l 0
390 713 l 0
Z
432 670 m 0
435 617 l 0
144 326 l 0
123 31 l 0
99 355 l 0
99 355 l 0
432 670 l 0
Z
-16 717 m 0
25 679 l 0
24 343 l 0
341 -3 l 0
-20 355 l 0
-20 315 l 0
-16 717 l 0
Z
43 717 m 0
85 679 l 0
84 368 l 0
384 40 l 0
39 340 l 0
39 340 l 0
43 717 l 0
Z
103 717 m 0
145 679 l 0
144 392 l 0
426 82 l 0
99 364 l 0
99 364 l 0
103 717 l 0
Z
Spiro
347 755 v
350 702 v
24 375 v
3 31 v
-20 404 v
-20 364 v
390 713 v
393 660 v
84 351 v
63 31 v
39 380 v
39 380 v
432 670 v
435 617 v
144 326 v
123 31 v
99 355 v
99 355 v
-16 717 v
25 679 v
24 343 v
341 -3 v
-20 355 v
-20 315 v
43 717 v
85 679 v
84 368 v
384 40 v
39 340 v
39 340 v
103 717 v
145 679 v
144 392 v
426 82 v
99 364 v
99 364 v
0 0 z
EndSpiro
EndSplineSet
        EndChar
StartChar: L
Encoding: 76 76 0
Width: 526
InSpiro: 1
        Flags: H
        LayerCount: 2
        Back
        SplineSet
60 663 m 0
60 662 l 0
60 60 l 0
363 60 l 0
60 60 l 0
60 60 l 0
60 663 l 0
Z
61 663 m 0
62 662 l 0
62 62 l 0
363 62 l 0
61 61 l 0
61 61 l 0
61 663 l 0
Z
63 663 m 0
64 662 l 0
64 64 l 0
363 64 l 0
63 63 l 0
63 63 l 0
63 663 l 0
Z
Spiro
60 663 v
60 662 v
60 60 v
363 60 v
60 60 v
60 60 v
61 663 v
62 662 v
62 62 v
363 62 v
61 61 v
61 61 v
63 663 v
64 662 v
64 64 v
363 64 v
63 63 v
63 63 v
0 0 z
EndSpiro
EndSplineSet
        Fore
        SplineSet
-16 717 m 0
25 679 l 0
24 20 l 0
391 0 l 0
-20 -20 l 0
-20 -20 l 0
-16 717 l 0
Z
43 717 m 0
85 679 l 0
84 80 l 0
391 60 l 0
39 40 l 0
39 40 l 0
43 717 l 0
Z
103 717 m 0
145 679 l 0
144 140 l 0
391 120 l 0
99 100 l 0
99 100 l 0
103 717 l 0
Z
Spiro
-16 717 v
25 679 v
24 20 v
391 0 v
-20 -20 v
-20 -20 v
43 717 v
85 679 v
84 80 v
391 60 v
39 40 v
39 40 v
103 717 v
145 679 v
144 140 v
391 120 v
99 100 v
99 100 v
0 0 z
EndSpiro
EndSplineSet
        EndChar
StartChar: M
Encoding: 77 77 0
Width: 676
InSpiro: 1
        Flags: H
        LayerCount: 2
        Back
        SplineSet
127 60 m 0
106 79 l 0
106 650 l 0
76 650 l 0
314 33 l 0
552 650 l 0
522 650 l 0
511 75 l 0
499 670 l 0
499 670 l 0
579 670 l 0
579 670 l 0
326 -5 l 0
303 -5 l 0
50 670 l 0
50 670 l 0
129 670 l 0
129 670 l 0
127 60 l 0
Z
97 61 m 0
76 80 l 0
76 700 l 0
76 700 l 0
102 700 l 0
102 700 l 0
314 118 l 0
526 700 l 0
526 700 l 0
552 700 l 0
552 700 l 0
541 75 l 0
537 687 l 0
540 687 l 0
326 80 l 0
303 80 l 0
88 687 l 0
91 687 l 0
97 61 l 0
Z
68 61 m 0
48 80 l 0
48 730 l 0
48 730 l 0
132 730 l 0
132 730 l 0
314 204 l 0
496 730 l 0
496 730 l 0
582 730 l 0
582 730 l 0
571 75 l 0
559 710 l 0
515 710 l 0
326 165 l 0
303 165 l 0
113 710 l 0
70 710 l 0
68 61 l 0
Z
Spiro
127 60 v
106 79 v
106 650 v
76 650 v
314 33 v
552 650 v
522 650 v
511 75 v
499 670 v
499 670 v
579 670 v
579 670 v
326 -5 v
303 -5 v
50 670 v
50 670 v
129 670 v
129 670 v
97 61 v
76 80 v
76 700 v
76 700 v
102 700 v
102 700 v
314 118 v
526 700 v
526 700 v
552 700 v
552 700 v
541 75 v
537 687 v
540 687 v
326 80 v
303 80 v
88 687 v
91 687 v
68 61 v
48 80 v
48 730 v
48 730 v
132 730 v
132 730 v
314 204 v
496 730 v
496 730 v
582 730 v
582 730 v
571 75 v
559 710 v
515 710 v
326 165 v
303 165 v
113 710 v
70 710 v
0 0 z
EndSpiro
EndSplineSet
        Fore
        SplineSet
136 1 m 0
94 39 l 0
94 580 l 0
33 580 l 0
284 -55 l 0
535 580 l 0
474 580 l 0
453 31 l 0
429 620 l 0
429 620 l 0
589 620 l 0
589 620 l 0
307 -130 l 0
262 -130 l 0
-20 620 l 0
-20 620 l 0
139 620 l 0
139 620 l 0
136 1 l 0
Z
76 2 m 0
34 40 l 0
34 680 l 0
34 680 l 0
84 680 l 0
84 680 l 0
284 117 l 0
484 680 l 0
484 680 l 0
534 680 l 0
534 680 l 0
513 31 l 0
506 656 l 0
511 655 l 0
307 40 l 0
262 40 l 0
57 655 l 0
62 656 l 0
76 2 l 0
Z
16 2 m 0
-25 40 l 0
-24 740 l 0
-24 740 l 0
144 740 l 0
144 740 l 0
284 293 l 0
424 740 l 0
424 740 l 0
594 740 l 0
594 740 l 0
573 31 l 0
549 700 l 0
463 700 l 0
307 210 l 0
262 210 l 0
105 700 l 0
20 700 l 0
16 2 l 0
Z
Spiro
136 1 v
94 39 v
94 580 v
33 580 v
284 -55 v
535 580 v
474 580 v
453 31 v
429 620 v
429 620 v
589 620 v
589 620 v
307 -130 v
262 -130 v
-20 620 v
-20 620 v
139 620 v
139 620 v
76 2 v
34 40 v
34 680 v
34 680 v
84 680 v
84 680 v
284 117 v
484 680 v
484 680 v
534 680 v
534 680 v
513 31 v
506 656 v
511 655 v
307 40 v
262 40 v
57 655 v
62 656 v
16 2 v
-25 40 v
-24 740 v
-24 740 v
144 740 v
144 740 v
284 293 v
424 740 v
424 740 v
594 740 v
594 740 v
573 31 v
549 700 v
463 700 v
307 210 v
262 210 v
105 700 v
20 700 v
0 0 z
EndSpiro
EndSplineSet
        EndChar
StartChar: N
Encoding: 78 78 0
Width: 526
InSpiro: 1
        Flags: H
        LayerCount: 2
        Back
        SplineSet
127 60 m 0
106 79 l 0
106 650 l 0
78 650 l 0
408 5 l 0
417 704 l 0
430 -47 l 0
407 -47 l 0
50 670 l 0
50 670 l 0
129 670 l 0
129 670 l 0
127 60 l 0
Z
97 61 m 0
76 80 l 0
76 700 l 0
76 700 l 0
102 700 l 0
102 700 l 0
378 132 l 0
387 704 l 0
400 80 l 0
377 80 l 0
88 687 l 0
91 687 l 0
97 61 l 0
Z
68 61 m 0
48 80 l 0
48 730 l 0
48 730 l 0
132 730 l 0
132 730 l 0
348 261 l 0
357 704 l 0
370 207 l 0
347 207 l 0
113 710 l 0
70 710 l 0
68 61 l 0
Z
Spiro
127 60 v
106 79 v
106 650 v
78 650 v
408 5 v
417 704 v
430 -47 v
407 -47 v
50 670 v
50 670 v
129 670 v
129 670 v
97 61 v
76 80 v
76 700 v
76 700 v
102 700 v
102 700 v
378 132 v
387 704 v
400 80 v
377 80 v
88 687 v
91 687 v
68 61 v
48 80 v
48 730 v
48 730 v
132 730 v
132 730 v
348 261 v
357 704 v
370 207 v
347 207 v
113 710 v
70 710 v
0 0 z
EndSpiro
EndSplineSet
        Fore
        SplineSet
136 1 m 0
94 39 l 0
94 580 l 0
37 580 l 0
398 -112 l 0
416 688 l 0
441 -214 l 0
396 -214 l 0
-20 620 l 0
-20 620 l 0
139 620 l 0
139 620 l 0
136 1 l 0
Z
76 2 m 0
34 40 l 0
34 680 l 0
34 680 l 0
84 680 l 0
84 680 l 0
338 146 l 0
356 688 l 0
381 40 l 0
336 40 l 0
57 655 l 0
62 656 l 0
76 2 l 0
Z
16 2 m 0
-25 40 l 0
-24 740 l 0
-24 740 l 0
144 740 l 0
144 740 l 0
277 411 l 0
296 688 l 0
321 294 l 0
276 294 l 0
107 700 l 0
20 700 l 0
16 2 l 0
Z
Spiro
136 1 v
94 39 v
94 580 v
37 580 v
398 -112 v
416 688 v
441 -214 v
396 -214 v
-20 620 v
-20 620 v
139 620 v
139 620 v
76 2 v
34 40 v
34 680 v
34 680 v
84 680 v
84 680 v
338 146 v
356 688 v
381 40 v
336 40 v
57 655 v
62 656 v
16 2 v
-25 40 v
-24 740 v
-24 740 v
144 740 v
144 740 v
277 411 v
296 688 v
321 294 v
276 294 v
107 700 v
20 700 v
0 0 z
EndSpiro
EndSplineSet
        EndChar
StartChar: Q
Encoding: 81 81 0
Width: 526
InSpiro: 1
        Flags: H
        LayerCount: 2
        Back
        SplineSet
266 247 m 0
293 239 l 0
370 63 l 0
266 247 l 0
Z
293 261 m 0
320 253 l 0
397 77 l 0
293 261 l 0
Z
320 274 m 0
347 266 l 0
424 90 l 0
320 274 l 0
Z
72 389 m 0
94 367 114 344 129 316 c 0
143 289 153 260 160 230 c 0
168 200 173 170 184 141 c 0
189 126 196 112 205 100 c 0
214 87 225 76 239 69 c 0
255 59 275 55 294 56 c 0
313 57 332 63 348 73 c 0
381 93 404 127 416 163 c 0
428 199 430 238 427 277 c 0
424 315 416 353 406 390 c 0
389 448 368 505 342 560 c 0
315 615 283 668 239 710 c 0
195 750 139 779 79 779 c 0
50 779 20 772 -5 758 c 0
-31 743 -53 722 -67 696 c 0
-81 670 -88 640 -87 610 c 0
-85 580 -76 551 -62 526 c 0
-47 500 -27 477 -6 457 c 0
15 436 38 418 61 399 c 0
64 395 68 392 72 389 c 0
Z
102 390 m 0
121 371 139 349 151 324 c 0
163 299 170 272 175 245 c 0
180 218 183 191 192 164 c 0
196 151 201 138 209 127 c 0
217 116 227 105 239 99 c 0
253 90 271 86 288 88 c 0
305 89 321 95 335 105 c 0
364 123 382 154 391 187 c 0
400 220 400 255 397 289 c 0
393 322 385 356 376 389 c 0
361 441 344 492 323 542 c 0
302 592 276 641 239 680 c 0
220 699 198 715 174 727 c 0
149 739 122 746 95 745 c 0
68 745 41 738 18 725 c 0
-4 711 -23 690 -35 666 c 0
-47 642 -52 615 -50 588 c 0
-48 561 -38 535 -24 512 c 0
-10 489 8 469 28 451 c 0
48 433 70 417 91 400 c 0
94 396 98 393 102 390 c 0
Z
132 390 m 0
149 373 164 353 173 330 c 0
183 308 187 284 190 260 c 0
193 236 193 211 199 188 c 0
202 176 207 164 213 154 c 0
220 144 228 135 239 129 c 0
251 121 267 118 282 120 c 0
296 121 311 127 323 136 c 0
346 154 361 182 367 212 c 0
373 241 371 271 366 300 c 0
361 330 354 359 346 388 c 0
333 433 319 479 304 524 c 0
288 569 269 613 239 650 c 0
222 668 203 685 181 696 c 0
159 708 135 714 110 714 c 0
85 714 60 708 39 694 c 0
18 681 1 662 -8 639 c 0
-18 617 -21 591 -17 566 c 0
-14 542 -3 519 10 498 c 0
24 478 43 461 62 445 c 0
81 430 102 416 121 400 c 0
124 396 128 393 132 390 c 0
Z
Spiro
266 247 v
293 239 v
370 63 v
293 261 v
320 253 v
397 77 v
320 274 v
347 266 v
424 90 v
72 389 o
239 69 c
406 390 o
239 710 c
61 399 o
61 379 o
240 729 c
429 389 o
238 51 c
50 388 o
102 390 o
239 99 c
376 389 o
239 680 c
91 400 o
91 380 o
238 699 c
399 390 o
240 80 c
79 389 o
132 390 o
239 129 c
346 388 o
239 650 c
121 400 o
121 380 o
238 669 c
369 389 o
240 110 c
109 389 o
0 0 z
EndSpiro
EndSplineSet
        Fore
        SplineSet
189 225 m 0
243 209 l 0
322 7 l 0
189 225 l 0
Z
242 252 m 0
296 236 l 0
375 34 l 0
242 252 l 0
Z
296 278 m 0
350 262 l 0
429 60 l 0
296 278 l 0
Z
25 359 m 0
48 336 69 310 85 281 c 0
101 252 112 221 120 189 c 0
129 157 136 125 148 94 c 0
160 64 180 35 209 19 c 0
226 8 247 4 268 5 c 0
288 6 308 13 326 23 c 0
362 43 387 79 401 117 c 0
415 156 418 198 416 239 c 0
413 280 405 320 394 360 c 0
376 422 352 483 323 542 c 0
294 600 257 655 210 700 c 0
164 742 105 773 43 776 c 0
11 777 -19 771 -47 757 c 0
-75 743 -99 721 -116 695 c 0
-133 669 -142 638 -142 606 c 0
-143 575 -135 544 -122 516 c 0
-108 488 -88 463 -66 441 c 0
-44 419 -20 399 3 379 c 0
10 372 17 365 25 359 c 0
Z
85 360 m 0
103 341 119 319 130 295 c 0
140 271 146 245 150 219 c 0
154 193 157 166 164 141 c 0
168 129 174 116 181 105 c 0
188 95 198 85 210 79 c 0
224 71 240 68 256 69 c 0
273 71 288 77 301 87 c 0
328 105 344 136 352 167 c 0
360 199 359 232 355 264 c 0
350 296 342 327 334 359 c 0
320 408 304 458 285 506 c 0
267 554 244 602 209 640 c 0
191 658 171 675 148 686 c 0
125 698 100 705 74 705 c 0
49 706 23 700 1 687 c 0
-21 675 -39 656 -52 634 c 0
-64 611 -69 585 -68 560 c 0
-66 534 -58 509 -45 487 c 0
-32 465 -14 446 3 429 c 0
22 411 43 396 63 380 c 0
70 373 77 366 85 360 c 0
Z
Spiro
189 225 v
243 209 v
322 7 v
242 252 v
296 236 v
375 34 v
296 278 v
350 262 v
429 60 v
25 359 o
209 19 c
394 360 o
210 700 c
3 379 o
3 339 o
209 739 c
439 359 o
208 -19 c
-19 358 o
85 360 o
210 79 c
334 359 o
209 640 c
63 380 o
63 340 o
208 679 c
379 360 o
209 40 c
40 359 o
145 360 o
210 139 c
274 358 o
209 580 c
123 380 o
123 340 o
208 619 c
319 359 o
209 100 c
100 359 o
0 0 z
EndSpiro
EndSplineSet
        EndChar
StartChar: R
Encoding: 82 82 0
Width: 526
InSpiro: 1
        Flags: H
        LayerCount: 2
        Back
        SplineSet
127 60 m 0
106 79 l 0
106 670 l 0
106 670 l 0
118 660 l 0
240 670 l 0
258 671 276 672 294 668 c 0
312 664 329 655 341 642 c 0
354 629 362 612 367 594 c 0
371 576 372 558 372 540 c 0
371 521 370 503 366 486 c 0
361 468 353 451 340 438 c 0
328 425 311 416 294 412 c 0
276 408 258 408 240 410 c 0
73 420 l 0
240 430 l 0
254 430 269 432 283 436 c 0
297 440 310 448 321 458 c 0
331 469 339 482 343 496 c 0
347 510 349 525 349 540 c 0
348 554 347 569 342 583 c 0
338 597 330 610 320 620 c 0
310 630 297 638 283 642 c 0
269 647 254 648 240 650 c 0
118 660 l 0
119 660 l 0
127 60 l 0
Z
97 61 m 0
76 80 l 0
76 700 l 0
76 700 l 0
88 690 l 0
240 700 l 0
262 701 284 702 306 697 c 0
328 692 349 681 364 665 c 0
379 648 390 628 395 606 c 0
401 584 402 562 402 540 c 0
401 517 400 495 395 473 c 0
389 451 379 431 364 415 c 0
348 399 328 388 306 382 c 0
284 377 262 378 240 380 c 0
74 390 l 0
240 400 l 0
258 401 277 402 295 408 c 0
313 413 330 423 343 436 c 0
356 449 366 466 371 484 c 0
377 502 379 521 379 540 c 0
378 558 377 577 371 595 c 0
365 613 356 629 343 643 c 0
329 656 313 666 295 671 c 0
277 677 258 678 240 680 c 0
88 690 l 0
89 690 l 0
97 61 l 0
Z
68 61 m 0
48 80 l 0
48 730 l 0
48 730 l 0
60 720 l 0
240 730 l 0
266 731 293 732 318 726 c 0
344 720 368 706 387 687 c 0
405 668 417 644 424 618 c 0
430 593 431 566 432 540 c 0
432 513 430 486 424 461 c 0
417 435 405 410 387 391 c 0
369 372 344 359 319 353 c 0
293 347 266 348 240 350 c 0
74 360 l 0
240 370 l 0
262 371 285 373 307 379 c 0
329 386 349 398 365 414 c 0
381 430 393 450 399 472 c 0
406 494 408 517 409 540 c 0
409 562 406 585 400 607 c 0
393 629 381 649 365 665 c 0
349 682 329 693 307 700 c 0
285 707 262 708 240 710 c 0
60 720 l 0
60 720 l 0
68 61 l 0
Z
60 350 m 0
77 370 l 0
211 360 l 0
222 370 l 0
222 370 l 0
371 63 l 0
210 360 l 0
211 360 l 0
60 350 l 0
Z
60 380 m 0
78 400 l 0
241 390 l 0
252 400 l 0
252 400 l 0
397 77 l 0
240 390 l 0
241 390 l 0
60 380 l 0
Z
60 410 m 0
78 430 l 0
271 420 l 0
282 430 l 0
282 430 l 0
424 90 l 0
270 420 l 0
271 420 l 0
60 410 l 0
Z
Spiro
127 60 v
106 79 v
106 670 v
106 670 v
118 660 v
240 670 ]
372 540 c
240 410 [
73 420 v
240 430 ]
349 540 c
240 650 [
118 660 v
119 660 v
97 61 v
76 80 v
76 700 v
76 700 v
88 690 v
240 700 ]
402 540 c
240 380 [
74 390 v
240 400 ]
379 540 c
240 680 [
88 690 v
89 690 v
68 61 v
48 80 v
48 730 v
48 730 v
60 720 v
240 730 ]
432 540 c
240 350 [
74 360 v
240 370 ]
409 540 c
240 710 [
60 720 v
60 720 v
60 350 v
77 370 v
211 360 v
222 370 v
222 370 v
371 63 v
210 360 v
211 360 v
60 380 v
78 400 v
241 390 v
252 400 v
252 400 v
397 77 v
240 390 v
241 390 v
60 410 v
78 430 v
271 420 v
282 430 v
282 430 v
424 90 v
270 420 v
271 420 v
0 0 z
EndSpiro
EndSplineSet
        Fore
        SplineSet
136 1 m 0
94 39 l 0
94 620 l 0
94 620 l 0
117 600 l 0
210 620 l 0
226 623 242 626 258 624 c 0
275 622 290 614 302 602 c 0
313 591 320 575 324 559 c 0
327 543 326 526 326 510 c 0
325 494 324 478 320 463 c 0
316 447 309 433 298 422 c 0
287 410 272 403 257 400 c 0
241 396 225 398 210 400 c 0
27 420 l 0
210 440 l 0
219 441 228 442 237 445 c 0
246 447 254 452 261 459 c 0
268 465 273 473 276 482 c 0
279 491 280 500 280 510 c 0
279 519 277 527 274 536 c 0
270 544 265 552 258 558 c 0
252 564 244 569 236 572 c 0
227 576 218 578 210 580 c 0
117 600 l 0
119 600 l 0
136 1 l 0
Z
76 2 m 0
34 40 l 0
34 680 l 0
34 680 l 0
57 660 l 0
210 680 l 0
234 683 259 685 283 681 c 0
307 676 329 665 346 647 c 0
363 629 374 606 380 583 c 0
385 559 386 534 386 510 c 0
385 485 384 461 379 437 c 0
373 414 362 391 345 374 c 0
328 356 306 344 282 340 c 0
258 335 234 337 210 340 c 0
28 360 l 0
210 380 l 0
227 381 244 384 260 389 c 0
277 394 292 403 304 415 c 0
317 427 326 442 332 459 c 0
337 475 340 492 340 510 c 0
339 527 337 544 331 560 c 0
325 576 316 591 303 603 c 0
291 615 276 624 260 629 c 0
244 635 226 637 210 640 c 0
57 660 l 0
59 660 l 0
76 2 l 0
Z
16 2 m 0
-25 40 l 0
-24 740 l 0
-24 740 l 0
-1 720 l 0
210 740 l 0
242 743 275 745 307 738 c 0
339 731 369 715 391 692 c 0
414 668 429 638 436 607 c 0
444 575 445 542 446 510 c 0
446 477 445 444 437 412 c 0
430 380 415 349 392 326 c 0
370 302 339 286 307 280 c 0
275 273 242 276 210 280 c 0
28 300 l 0
210 320 l 0
235 322 260 325 284 333 c 0
307 341 330 354 348 372 c 0
366 390 379 412 388 435 c 0
396 459 399 484 400 510 c 0
400 535 397 560 388 584 c 0
380 608 367 630 349 648 c 0
331 666 308 679 284 687 c 0
260 694 235 697 210 700 c 0
-1 720 l 0
0 720 l 0
16 2 l 0
Z
0 281 m 0
36 320 l 0
152 300 l 0
174 320 l 0
174 320 l 0
324 8 l 0
150 300 l 0
152 300 l 0
0 281 l 0
Z
0 341 m 0
37 380 l 0
212 360 l 0
234 380 l 0
234 380 l 0
375 34 l 0
210 360 l 0
212 360 l 0
0 341 l 0
Z
0 401 m 0
37 440 l 0
272 420 l 0
294 440 l 0
294 440 l 0
428 60 l 0
270 420 l 0
272 420 l 0
0 401 l 0
Z
Spiro
136 1 v
94 39 v
94 620 v
94 620 v
117 600 v
210 620 ]
326 510 c
210 400 [
27 420 v
210 440 ]
280 510 c
210 580 [
117 600 v
119 600 v
76 2 v
34 40 v
34 680 v
34 680 v
57 660 v
210 680 ]
386 510 c
210 340 [
28 360 v
210 380 ]
340 510 c
210 640 [
57 660 v
59 660 v
16 2 v
-25 40 v
-24 740 v
-24 740 v
-1 720 v
210 740 ]
446 510 c
210 280 [
28 300 v
210 320 ]
400 510 c
210 700 [
-1 720 v
0 720 v
0 281 v
36 320 v
152 300 v
174 320 v
174 320 v
324 8 v
150 300 v
152 300 v
0 341 v
37 380 v
212 360 v
234 380 v
234 380 v
375 34 v
210 360 v
212 360 v
0 401 v
37 440 v
272 420 v
294 440 v
294 440 v
428 60 v
270 420 v
272 420 v
0 0 z
EndSpiro
EndSplineSet
        EndChar
StartChar: S
Encoding: 83 83 0
Width: 526
InSpiro: 1
        Flags: H
        LayerCount: 2
        Back
        SplineSet
434 576 m 0
409 587 l 0
398 623 376 656 345 678 c 0
314 700 275 711 238 709 c 0
195 706 153 686 124 655 c 0
94 624 76 582 72 540 c 0
69 514 72 487 81 463 c 0
90 439 107 417 129 403 c 0
158 383 195 379 230 374 c 0
247 372 265 369 282 365 c 0
299 360 316 353 330 342 c 0
344 330 356 314 363 296 c 0
370 279 372 259 372 241 c 0
370 206 355 172 331 148 c 0
306 123 272 109 238 109 c 0
208 108 178 119 155 138 c 0
132 156 115 183 110 213 c 0
118 186 135 163 158 148 c 0
181 133 209 125 237 128 c 0
266 130 294 143 314 163 c 0
334 184 347 212 349 242 c 0
350 273 338 306 315 327 c 0
301 338 285 346 268 351 c 0
252 356 234 359 217 361 c 0
182 365 146 368 116 386 c 0
89 401 70 426 59 454 c 0
48 482 46 513 50 543 c 0
55 590 76 635 110 669 c 0
143 703 189 724 237 728 c 0
282 730 328 716 364 689 c 0
400 661 425 620 434 576 c 0
Z
406 566 m 0
381 577 l 0
373 607 354 635 328 653 c 0
303 672 271 681 240 680 c 0
204 678 169 661 144 635 c 0
119 609 104 574 102 539 c 0
100 518 102 497 110 477 c 0
117 458 129 440 146 428 c 0
159 417 176 410 193 405 c 0
210 400 227 398 245 396 c 0
280 391 316 387 346 368 c 0
366 354 382 334 391 311 c 0
400 288 403 263 402 239 c 0
398 197 380 157 351 128 c 0
322 98 281 81 240 80 c 0
203 79 167 91 139 113 c 0
110 135 90 167 82 203 c 0
92 170 114 142 142 123 c 0
170 105 205 96 239 99 c 0
274 101 309 118 334 143 c 0
360 169 376 204 379 240 c 0
380 260 377 282 370 301 c 0
362 320 349 338 333 351 c 0
318 361 302 368 285 372 c 0
268 377 250 379 233 382 c 0
198 386 162 391 133 411 c 0
112 424 97 445 88 467 c 0
79 490 76 515 79 540 c 0
82 580 100 620 129 649 c 0
158 678 198 696 239 699 c 0
277 700 317 688 347 664 c 0
378 639 399 604 406 566 c 0
Z
378 555 m 0
353 566 l 0
347 590 332 613 312 628 c 0
291 643 266 651 241 650 c 0
212 648 184 635 164 614 c 0
144 593 133 564 132 536 c 0
131 520 133 504 139 489 c 0
144 475 153 461 165 451 c 0
177 439 193 431 210 425 c 0
227 420 244 418 261 415 c 0
296 411 332 408 363 392 c 0
389 377 409 352 421 324 c 0
432 296 435 265 432 235 c 0
426 187 404 140 370 107 c 0
336 73 289 52 241 51 c 0
198 49 156 63 123 88 c 0
89 114 65 151 55 192 c 0
67 154 92 120 126 98 c 0
159 76 200 65 240 69 c 0
283 72 324 92 354 122 c 0
385 153 404 195 409 238 c 0
411 263 409 290 399 314 c 0
390 339 373 360 352 375 c 0
322 394 285 398 250 402 c 0
232 405 214 407 197 412 c 0
180 417 163 424 150 436 c 0
135 447 124 463 117 481 c 0
110 499 107 518 109 537 c 0
111 570 125 603 149 628 c 0
173 652 206 667 240 669 c 0
272 670 305 659 330 638 c 0
356 617 373 587 378 555 c 0
Z
Spiro
434 576 v
409 587 v
238 709 c
72 540 c
129 403 c
330 342 c
372 241 c
238 109 c
110 213 v
237 128 c
349 242 c
315 327 c
116 386 c
50 543 c
237 728 c
406 566 v
381 577 v
240 680 c
102 539 c
146 428 c
346 368 c
402 239 c
240 80 c
82 203 v
239 99 c
379 240 c
333 351 c
133 411 c
79 540 c
239 699 c
378 555 v
353 566 v
241 650 c
132 536 c
165 451 c
363 392 c
432 235 c
241 51 c
55 192 v
240 69 c
409 238 c
352 375 c
150 436 c
109 537 c
240 669 c
0 0 z
EndSpiro
EndSplineSet
        Fore
        SplineSet
449 531 m 0
398 554 l 0
389 596 365 636 330 662 c 0
295 689 251 702 208 699 c 0
160 695 115 672 83 638 c 0
50 603 30 558 25 511 c 0
21 482 23 452 33 425 c 0
43 398 61 373 86 358 c 0
116 338 154 335 190 331 c 0
208 328 227 326 244 320 c 0
261 315 278 307 292 295 c 0
314 274 325 243 325 213 c 0
324 182 311 152 289 131 c 0
267 110 237 98 207 99 c 0
179 99 151 111 132 131 c 0
112 150 100 178 100 206 c 0
106 184 121 165 140 152 c 0
159 140 183 135 206 138 c 0
225 140 243 148 257 162 c 0
271 175 279 194 280 214 c 0
280 233 272 251 259 266 c 0
247 278 232 287 215 293 c 0
199 298 182 301 165 303 c 0
131 307 96 308 65 323 c 0
30 338 4 369 -8 404 c 0
-22 439 -24 478 -19 516 c 0
-10 572 14 625 54 666 c 0
94 706 148 733 205 738 c 0
264 742 324 723 369 685 c 0
415 646 444 590 449 531 c 0
Z
394 511 m 0
343 534 l 0
338 564 321 593 297 612 c 0
273 631 241 641 211 640 c 0
177 638 145 622 122 598 c 0
99 573 86 541 84 508 c 0
82 489 85 469 91 452 c 0
98 434 109 418 124 406 c 0
137 394 153 387 170 382 c 0
187 377 205 375 222 372 c 0
257 368 294 364 324 346 c 0
346 331 363 310 373 285 c 0
383 261 386 234 384 208 c 0
380 164 360 121 329 90 c 0
298 59 255 40 211 40 c 0
170 39 130 54 99 81 c 0
69 107 49 145 45 186 c 0
55 152 77 122 107 103 c 0
136 83 172 75 208 79 c 0
241 82 273 97 297 121 c 0
321 145 336 177 339 211 c 0
340 230 337 249 330 267 c 0
323 285 312 301 297 313 c 0
283 323 266 331 249 335 c 0
232 340 215 343 197 345 c 0
163 349 126 353 97 373 c 0
74 387 58 409 48 433 c 0
39 458 36 484 39 511 c 0
43 553 62 595 92 626 c 0
123 656 164 676 208 679 c 0
254 682 302 665 336 634 c 0
371 603 392 557 394 511 c 0
Z
337 490 m 0
285 513 l 0
284 531 276 549 263 561 c 0
249 574 231 581 213 580 c 0
194 578 176 569 163 555 c 0
151 541 144 522 144 504 c 0
143 484 149 465 162 451 c 0
172 437 187 428 204 422 c 0
220 416 237 413 254 411 c 0
288 407 324 408 356 395 c 0
391 380 418 349 432 314 c 0
446 279 449 239 444 202 c 0
435 144 409 89 368 49 c 0
327 8 271 -16 214 -19 c 0
161 -20 107 -2 67 30 c 0
26 64 -1 112 -10 165 c 0
3 119 34 78 74 52 c 0
114 25 163 13 211 19 c 0
258 24 304 46 337 80 c 0
371 114 393 159 399 207 c 0
402 236 400 266 389 293 c 0
379 320 360 345 335 360 c 0
303 378 265 381 229 386 c 0
211 388 193 391 176 396 c 0
158 402 142 411 129 424 c 0
107 444 97 475 99 505 c 0
100 534 113 562 133 583 c 0
154 604 182 617 212 619 c 0
245 620 280 607 303 583 c 0
327 558 339 523 337 490 c 0
Z
Spiro
449 531 v
398 554 v
208 699 c
25 511 c
86 358 c
292 295 c
325 213 c
207 99 c
100 206 v
206 138 c
280 214 c
259 266 c
65 323 c
-19 516 c
205 738 c
394 511 v
343 534 v
211 640 c
84 508 c
124 406 c
324 346 c
384 208 c
211 40 c
45 186 v
208 79 c
339 211 c
297 313 c
97 373 c
39 511 c
208 679 c
337 490 v
285 513 v
213 580 c
144 504 c
162 451 c
356 395 c
444 202 c
214 -19 c
-10 165 v
211 19 c
399 207 c
335 360 c
129 424 c
99 505 c
212 619 c
0 0 z
EndSpiro
EndSplineSet
        EndChar
StartChar: T
Encoding: 84 84 0
Width: 526
InSpiro: 1
        Flags: H
        LayerCount: 2
        Back
        SplineSet
60 650 m 0
77 670 l 0
405 660 l 0
60 650 l 0
Z
60 680 m 0
78 700 l 0
405 690 l 0
60 680 l 0
Z
60 710 m 0
78 730 l 0
405 720 l 0
60 710 l 0
Z
201 718 m 0
222 700 l 0
211 75 l 0
201 718 l 0
Z
231 718 m 0
252 700 l 0
241 75 l 0
231 718 l 0
Z
261 718 m 0
282 700 l 0
271 75 l 0
261 718 l 0
Z
Spiro
60 650 v
77 670 v
405 660 v
60 680 v
78 700 v
405 690 v
60 710 v
78 730 v
405 720 v
201 718 v
222 700 v
211 75 v
231 718 v
252 700 v
241 75 v
261 718 v
282 700 v
271 75 v
0 0 z
EndSpiro
EndSplineSet
        Fore
        SplineSet
0 581 m 0
36 620 l 0
391 600 l 0
0 581 l 0
Z
0 641 m 0
37 680 l 0
391 660 l 0
0 641 l 0
Z
0 701 m 0
37 740 l 0
391 720 l 0
0 701 l 0
Z
133 717 m 0
175 680 l 0
153 31 l 0
133 717 l 0
Z
193 717 m 0
235 680 l 0
213 31 l 0
193 717 l 0
Z
253 717 m 0
295 680 l 0
273 31 l 0
253 717 l 0
Z
Spiro
0 581 v
36 620 v
391 600 v
0 641 v
37 680 v
391 660 v
0 701 v
37 740 v
391 720 v
133 717 v
175 680 v
153 31 v
193 717 v
235 680 v
213 31 v
253 717 v
295 680 v
273 31 v
0 0 z
EndSpiro
EndSplineSet
        EndChar
StartChar: U
Encoding: 85 85 0
Width: 526
InSpiro: 1
        Flags: H
        LayerCount: 2
        Back
        SplineSet
60 663 m 0
60 662 l 0
60 362 l 0
59 299 58 235 78 175 c 0
88 145 103 117 126 96 c 0
149 74 179 59 211 60 c 0
242 60 272 74 295 96 c 0
317 117 333 146 343 175 c 0
362 235 361 299 362 362 c 0
363 662 l 0
363 362 l 0
362 299 364 235 344 175 c 0
334 146 318 117 296 96 c 0
273 74 243 60 212 60 c 0
180 59 150 74 127 95 c 0
104 117 88 145 78 175 c 0
58 234 60 299 60 362 c 0
60 663 l 0
Z
61 663 m 0
62 662 l 0
62 362 l 0
61 299 60 236 79 177 c 0
89 147 104 119 127 97 c 0
149 76 179 61 211 62 c 0
242 62 272 76 294 98 c 0
316 119 332 147 341 177 c 0
360 236 359 299 360 362 c 0
361 662 l 0
361 362 l 0
361 299 362 235 342 176 c 0
332 146 317 118 294 96 c 0
271 75 241 60 210 61 c 0
178 61 148 75 126 97 c 0
104 119 88 147 79 176 c 0
59 236 61 299 61 362 c 0
61 663 l 0
Z
63 663 m 0
64 662 l 0
64 362 l 0
63 300 62 237 81 178 c 0
90 149 105 121 128 99 c 0
150 78 180 63 211 64 c 0
241 64 271 78 293 100 c 0
315 121 330 149 340 178 c 0
359 237 357 300 358 362 c 0
359 662 l 0
359 362 l 0
359 299 360 236 341 177 c 0
331 148 316 119 293 98 c 0
271 77 241 62 210 63 c 0
179 63 149 77 127 99 c 0
105 120 90 148 80 178 c 0
61 237 63 300 63 362 c 0
63 663 l 0
Z
Spiro
60 663 v
60 662 v
60 362 ]
211 60 c
362 362 [
363 662 v
363 362 ]
212 60 c
60 362 [
61 663 v
62 662 v
62 362 ]
211 62 c
360 362 [
361 662 v
361 362 ]
210 61 c
61 362 [
63 663 v
64 662 v
64 362 ]
211 64 c
358 362 [
359 662 v
359 362 ]
210 63 c
63 362 [
0 0 z
EndSpiro
EndSplineSet
        Fore
        SplineSet
-16 717 m 0
25 680 l 0
26 360 l 0
26 287 25 213 50 146 c 0
63 112 82 80 110 57 c 0
137 33 172 18 209 20 c 0
244 21 278 37 304 62 c 0
329 86 348 117 360 150 c 0
385 217 389 289 394 360 c 0
417 688 l 0
440 360 l 0
442 317 445 275 442 233 c 0
439 191 429 148 411 110 c 0
392 72 364 39 329 15 c 0
294 -8 252 -21 210 -20 c 0
168 -18 128 -3 94 21 c 0
61 45 35 79 16 116 c 0
-19 191 -20 277 -20 360 c 0
-16 717 l 0
Z
43 717 m 0
85 680 l 0
86 360 l 0
86 303 83 245 96 189 c 0
103 162 114 135 133 113 c 0
143 103 154 94 167 88 c 0
180 81 194 78 209 79 c 0
223 79 236 83 249 90 c 0
261 97 272 106 281 117 c 0
298 138 309 165 316 192 c 0
329 247 330 304 334 360 c 0
357 688 l 0
380 360 l 0
384 291 388 219 363 155 c 0
350 123 331 93 303 72 c 0
276 51 242 38 208 40 c 0
174 41 142 56 117 78 c 0
92 101 74 130 62 161 c 0
38 224 39 293 40 360 c 0
43 717 l 0
Z
103 717 m 0
145 680 l 0
146 360 l 0
146 317 141 275 142 232 c 0
143 211 146 189 157 171 c 0
162 162 170 153 178 147 c 0
187 142 198 138 209 139 c 0
219 139 229 143 238 149 c 0
246 155 253 164 258 173 c 0
268 191 271 213 271 234 c 0
273 276 271 318 274 360 c 0
297 688 l 0
320 360 l 0
323 306 329 252 316 200 c 0
309 174 298 149 279 130 c 0
270 120 259 112 247 107 c 0
234 102 221 99 208 100 c 0
182 101 158 115 141 135 c 0
124 155 114 180 108 205 c 0
96 255 99 308 100 360 c 0
103 717 l 0
Z
Spiro
-16 717 v
25 680 v
26 360 ]
209 20 c
394 360 [
417 688 v
440 360 ]
210 -20 c
-20 360 [
43 717 v
85 680 v
86 360 ]
209 79 c
334 360 [
357 688 v
380 360 ]
208 40 c
40 360 [
103 717 v
145 680 v
146 360 ]
209 139 c
274 360 [
297 688 v
320 360 ]
208 100 c
100 360 [
0 0 z
EndSpiro
EndSplineSet
        EndChar
StartChar: V
Encoding: 86 86 0
Width: 526
InSpiro: 1
        Flags: H
        LayerCount: 2
        Back
        SplineSet
59 662 m 0
60 661 l 0
211 57 l 0
363 661 l 0
212 54 l 0
211 54 l 0
59 662 l 0
Z
60 663 m 0
62 662 l 0
211 64 l 0
361 662 l 0
212 61 l 0
211 61 l 0
60 663 l 0
Z
62 663 m 0
64 662 l 0
211 72 l 0
359 662 l 0
212 69 l 0
211 69 l 0
62 663 l 0
Z
Spiro
59 662 v
60 661 v
211 57 v
363 661 v
212 54 v
211 54 v
60 663 v
62 662 v
211 64 v
361 662 v
212 61 v
211 61 v
62 663 v
64 662 v
211 72 v
359 662 v
212 69 v
211 69 v
0 0 z
EndSpiro
EndSplineSet
        Fore
        SplineSet
-29 695 m 0
20 669 l 0
209 -103 l 0
422 672 l 0
231 -207 l 0
186 -207 l 0
-29 695 l 0
Z
28 710 m 0
78 684 l 0
209 143 l 0
364 687 l 0
232 40 l 0
187 40 l 0
28 710 l 0
Z
87 725 m 0
137 698 l 0
209 392 l 0
305 701 l 0
232 287 l 0
187 287 l 0
87 725 l 0
Z
Spiro
-29 695 v
20 669 v
209 -103 v
422 672 v
231 -207 v
186 -207 v
28 710 v
78 684 v
209 143 v
364 687 v
232 40 v
187 40 v
87 725 v
137 698 v
209 392 v
305 701 v
232 287 v
187 287 v
0 0 z
EndSpiro
EndSplineSet
        EndChar
StartChar: W
Encoding: 87 87 0
Width: 826
InSpiro: 1
        Flags: H
        LayerCount: 2
        Back
        SplineSet
59 662 m 0
60 661 l 0
211 57 l 0
362 659 l 0
360 659 l 0
511 57 l 0
663 661 l 0
512 54 l 0
511 54 l 0
359 660 l 0
359 660 l 0
363 660 l 0
363 660 l 0
212 54 l 0
211 54 l 0
59 662 l 0
Z
60 663 m 0
62 662 l 0
211 64 l 0
360 662 l 0
360 662 l 0
362 662 l 0
362 662 l 0
511 64 l 0
661 662 l 0
512 61 l 0
511 61 l 0
361 661 l 0
361 661 l 0
212 61 l 0
211 61 l 0
60 663 l 0
Z
62 663 m 0
64 662 l 0
211 72 l 0
358 664 l 0
358 664 l 0
364 664 l 0
364 664 l 0
511 72 l 0
659 662 l 0
512 69 l 0
511 69 l 0
363 663 l 0
359 663 l 0
212 69 l 0
211 69 l 0
62 663 l 0
Z
Spiro
59 662 v
60 661 v
211 57 v
362 659 v
360 659 v
511 57 v
663 661 v
512 54 v
511 54 v
359 660 v
359 660 v
363 660 v
363 660 v
212 54 v
211 54 v
60 663 v
62 662 v
211 64 v
360 662 v
360 662 v
362 662 v
362 662 v
511 64 v
661 662 v
512 61 v
511 61 v
361 661 v
361 661 v
212 61 v
211 61 v
62 663 v
64 662 v
211 72 v
358 664 v
358 664 v
364 664 v
364 664 v
511 72 v
659 662 v
512 69 v
511 69 v
363 663 v
359 663 v
212 69 v
211 69 v
0 0 z
EndSpiro
EndSplineSet
        Fore
        SplineSet
-29 695 m 0
20 669 l 0
209 -106 l 0
388 580 l 0
330 580 l 0
509 -106 l 0
722 672 l 0
532 -207 l 0
487 -207 l 0
279 620 l 0
279 620 l 0
439 620 l 0
439 620 l 0
231 -207 l 0
186 -207 l 0
-29 695 l 0
Z
28 710 m 0
78 684 l 0
209 143 l 0
334 680 l 0
334 680 l 0
384 680 l 0
384 680 l 0
509 143 l 0
664 687 l 0
532 40 l 0
487 40 l 0
357 656 l 0
361 656 l 0
232 40 l 0
187 40 l 0
28 710 l 0
Z
87 725 m 0
137 698 l 0
208 397 l 0
274 740 l 0
274 740 l 0
444 740 l 0
444 740 l 0
511 397 l 0
605 701 l 0
532 287 l 0
487 287 l 0
403 700 l 0
315 700 l 0
232 287 l 0
187 287 l 0
87 725 l 0
Z
Spiro
-29 695 v
20 669 v
209 -106 v
388 580 v
330 580 v
509 -106 v
722 672 v
532 -207 v
487 -207 v
279 620 v
279 620 v
439 620 v
439 620 v
231 -207 v
186 -207 v
28 710 v
78 684 v
209 143 v
334 680 v
334 680 v
384 680 v
384 680 v
509 143 v
664 687 v
532 40 v
487 40 v
357 656 v
361 656 v
232 40 v
187 40 v
87 725 v
137 698 v
208 397 v
274 740 v
274 740 v
444 740 v
444 740 v
511 397 v
605 701 v
532 287 v
487 287 v
403 700 v
315 700 v
232 287 v
187 287 v
0 0 z
EndSpiro
EndSplineSet
        EndChar
StartChar: X
Encoding: 88 88 0
Width: 526
InSpiro: 1
        Flags: H
        LayerCount: 2
        Back
        SplineSet
59 662 m 0
60 661 l 0
360 60 l 0
59 662 l 0
Z
60 663 m 0
62 662 l 0
362 61 l 0
60 663 l 0
Z
61 663 m 0
63 662 l 0
363 61 l 0
61 663 l 0
Z
360 663 m 0
360 662 l 0
60 61 l 0
360 663 l 0
Z
362 663 m 0
362 662 l 0
61 61 l 0
362 663 l 0
Z
363 662 m 0
363 661 l 0
62 60 l 0
363 662 l 0
Z
Spiro
59 662 v
60 661 v
360 60 v
60 663 v
62 662 v
362 61 v
61 663 v
63 662 v
363 61 v
360 663 v
360 662 v
60 61 v
362 663 v
362 662 v
61 61 v
363 662 v
363 661 v
62 60 v
0 0 z
EndSpiro
EndSplineSet
        Fore
        SplineSet
-35 675 m 0
18 659 l 0
322 7 l 0
-35 675 l 0
Z
17 702 m 0
71 686 l 0
375 34 l 0
17 702 l 0
Z
71 728 m 0
125 712 l 0
429 60 l 0
71 728 l 0
Z
318 745 m 0
338 694 l 0
-4 60 l 0
318 745 l 0
Z
371 719 m 0
391 668 l 0
48 34 l 0
371 719 l 0
Z
425 692 m 0
445 641 l 0
102 7 l 0
425 692 l 0
Z
Spiro
-35 675 v
18 659 v
322 7 v
17 702 v
71 686 v
375 34 v
71 728 v
125 712 v
429 60 v
318 745 v
338 694 v
-4 60 v
371 719 v
391 668 v
48 34 v
425 692 v
445 641 v
102 7 v
0 0 z
EndSpiro
EndSplineSet
        EndChar
StartChar: Y
Encoding: 89 89 0
Width: 526
InSpiro: 1
        Flags: H
        LayerCount: 2
        Back
        SplineSet
42 697 m 0
68 689 l 0
239 344 l 0
421 688 l 0
251 312 l 0
228 312 l 0
42 697 l 0
Z
68 711 m 0
95 703 l 0
239 412 l 0
394 702 l 0
251 380 l 0
228 380 l 0
68 711 l 0
Z
95 724 m 0
122 716 l 0
239 479 l 0
367 715 l 0
251 447 l 0
228 447 l 0
95 724 l 0
Z
201 418 m 0
222 400 l 0
211 75 l 0
201 418 l 0
Z
231 418 m 0
252 400 l 0
241 75 l 0
231 418 l 0
Z
261 418 m 0
282 400 l 0
271 75 l 0
261 418 l 0
Z
Spiro
42 697 v
68 689 v
239 344 v
421 688 v
251 312 v
228 312 v
68 711 v
95 703 v
239 412 v
394 702 v
251 380 v
228 380 v
95 724 v
122 716 v
239 479 v
367 715 v
251 447 v
228 447 v
201 418 v
222 400 v
211 75 v
231 418 v
252 400 v
241 75 v
261 418 v
282 400 v
271 75 v
0 0 z
EndSpiro
EndSplineSet
        Fore
        SplineSet
-34 675 m 0
19 659 l 0
209 270 l 0
423 658 l 0
232 205 l 0
187 205 l 0
-34 675 l 0
Z
18 702 m 0
72 686 l 0
209 405 l 0
370 685 l 0
232 340 l 0
187 340 l 0
18 702 l 0
Z
72 729 m 0
126 712 l 0
209 539 l 0
316 711 l 0
232 474 l 0
187 474 l 0
72 729 l 0
Z
133 417 m 0
175 380 l 0
153 31 l 0
133 417 l 0
Z
193 417 m 0
235 380 l 0
213 31 l 0
193 417 l 0
Z
253 417 m 0
295 380 l 0
273 31 l 0
253 417 l 0
Z
Spiro
-34 675 v
19 659 v
209 270 v
423 658 v
232 205 v
187 205 v
18 702 v
72 686 v
209 405 v
370 685 v
232 340 v
187 340 v
72 729 v
126 712 v
209 539 v
316 711 v
232 474 v
187 474 v
133 417 v
175 380 v
153 31 v
193 417 v
235 380 v
213 31 v
253 417 v
295 380 v
273 31 v
0 0 z
EndSpiro
EndSplineSet
        EndChar
StartChar: Z
Encoding: 90 90 0
Width: 526
InSpiro: 1
        Flags: H
        LayerCount: 2
        Back
        SplineSet
60 650 m 0
77 670 l 0
361 660 l 0
372 670 l 0
372 670 l 0
60 70 l 0
405 60 l 0
32 50 l 0
32 50 l 0
359 660 l 0
361 660 l 0
60 650 l 0
Z
60 680 m 0
78 700 l 0
391 690 l 0
402 700 l 0
402 700 l 0
108 100 l 0
405 90 l 0
79 80 l 0
79 80 l 0
389 690 l 0
391 690 l 0
60 680 l 0
Z
60 710 m 0
78 730 l 0
421 720 l 0
432 730 l 0
432 730 l 0
156 130 l 0
405 120 l 0
127 110 l 0
127 110 l 0
419 720 l 0
421 720 l 0
60 710 l 0
Z
Spiro
60 650 v
77 670 v
361 660 v
372 670 v
372 670 v
60 70 v
405 60 v
32 50 v
32 50 v
359 660 v
361 660 v
60 680 v
78 700 v
391 690 v
402 700 v
402 700 v
108 100 v
405 90 v
79 80 v
79 80 v
389 690 v
391 690 v
60 710 v
78 730 v
421 720 v
432 730 v
432 730 v
156 130 v
405 120 v
127 110 v
127 110 v
419 720 v
421 720 v
0 0 z
EndSpiro
EndSplineSet
        Fore
        SplineSet
0 581 m 0
36 620 l 0
302 600 l 0
324 620 l 0
324 620 l 0
2 20 l 0
391 0 l 0
-56 -20 l 0
-56 -20 l 0
299 600 l 0
302 600 l 0
0 581 l 0
Z
0 641 m 0
37 680 l 0
362 660 l 0
384 680 l 0
384 680 l 0
96 80 l 0
391 60 l 0
39 40 l 0
39 40 l 0
359 660 l 0
362 660 l 0
0 641 l 0
Z
0 701 m 0
37 740 l 0
422 720 l 0
444 740 l 0
444 740 l 0
192 140 l 0
391 120 l 0
136 100 l 0
136 100 l 0
419 720 l 0
422 720 l 0
0 701 l 0
Z
Spiro
0 581 v
36 620 v
302 600 v
324 620 v
324 620 v
2 20 v
391 0 v
-56 -20 v
-56 -20 v
299 600 v
302 600 v
0 641 v
37 680 v
362 660 v
384 680 v
384 680 v
96 80 v
391 60 v
39 40 v
39 40 v
359 660 v
362 660 v
0 701 v
37 740 v
422 720 v
444 740 v
444 740 v
192 140 v
391 120 v
136 100 v
136 100 v
419 720 v
422 720 v
0 0 z
EndSpiro
EndSplineSet
        EndChar
StartChar: c
Encoding: 99 99 0
Width: 526
InSpiro: 1
        Flags: H
        LayerCount: 2
        Back
        SplineSet
437 415 m 0
410 421 l 0
393 451 368 477 337 493 c 0
306 508 270 514 236 509 c 0
186 501 142 470 113 430 c 0
84 389 71 338 72 289 c 0
72 239 86 189 115 149 c 0
143 108 187 78 236 69 c 0
271 62 309 66 343 82 c 0
376 97 404 124 422 156 c 0
406 120 378 91 344 72 c 0
311 53 271 46 233 51 c 0
178 58 128 90 96 135 c 0
64 179 49 235 50 290 c 0
50 344 66 399 98 443 c 0
130 487 179 519 233 528 c 0
274 534 317 526 354 506 c 0
391 486 420 453 437 415 c 0
Z
411 400 m 0
384 406 l 0
371 431 349 452 324 466 c 0
299 479 269 484 241 480 c 0
198 473 160 447 136 411 c 0
112 376 101 332 102 290 c 0
102 247 113 204 137 169 c 0
161 133 199 107 241 99 c 0
270 93 302 97 330 110 c 0
357 123 381 145 396 172 c 0
383 141 360 116 332 99 c 0
304 83 270 76 238 80 c 0
190 85 146 114 118 153 c 0
90 192 78 241 79 290 c 0
79 337 92 385 120 424 c 0
148 463 190 491 238 499 c 0
273 504 310 497 341 479 c 0
372 461 397 433 411 400 c 0
Z
386 384 m 0
359 390 l 0
348 410 332 427 311 438 c 0
291 449 267 453 245 450 c 0
209 444 178 421 158 391 c 0
139 361 131 324 132 289 c 0
132 253 141 217 160 187 c 0
179 158 210 135 245 128 c 0
269 123 295 126 317 136 c 0
340 147 359 165 371 187 c 0
361 161 342 140 319 126 c 0
296 112 268 106 242 109 c 0
201 113 164 138 141 172 c 0
118 206 108 248 109 290 c 0
109 330 120 371 143 404 c 0
166 437 202 462 242 469 c 0
271 473 303 467 329 452 c 0
355 436 375 412 386 384 c 0
Z
Spiro
437 415 v
410 421 v
236 509 c
72 289 c
236 69 c
422 156 v
233 51 c
50 290 c
233 528 c
411 400 v
384 406 v
241 480 c
102 290 c
241 99 c
396 172 v
238 80 c
79 290 c
238 499 c
386 384 v
359 390 v
245 450 c
132 289 c
245 128 c
371 187 v
242 109 c
109 290 c
242 469 c
0 0 z
EndSpiro
EndSplineSet
        Fore
        SplineSet
455 439 m 0
399 435 l 0
374 461 343 481 308 492 c 0
274 503 237 505 202 498 c 0
149 486 102 454 71 410 c 0
39 366 24 312 25 259 c 0
25 205 42 152 73 109 c 0
105 66 150 34 202 20 c 0
239 9 280 8 318 18 c 0
356 27 392 47 421 74 c 0
395 39 360 11 320 -4 c 0
280 -20 235 -25 193 -18 c 0
130 -7 73 30 36 81 c 0
-1 132 -20 196 -19 260 c 0
-18 322 2 385 39 435 c 0
76 485 131 522 193 537 c 0
241 548 292 544 338 527 c 0
385 510 425 478 455 439 c 0
Z
414 395 m 0
358 391 l 0
340 411 318 427 292 435 c 0
267 444 240 445 214 440 c 0
175 431 140 406 118 373 c 0
95 340 85 299 86 260 c 0
86 220 98 181 120 148 c 0
143 116 176 90 214 79 c 0
242 70 273 69 302 76 c 0
331 83 358 98 380 119 c 0
361 90 335 67 304 53 c 0
273 39 238 34 205 40 c 0
155 48 110 77 81 118 c 0
52 159 38 210 40 260 c 0
41 309 56 358 85 397 c 0
114 437 157 467 205 479 c 0
243 488 285 485 322 470 c 0
359 455 392 428 414 395 c 0
Z
374 349 m 0
318 346 l 0
307 359 293 370 277 377 c 0
261 383 243 384 227 381 c 0
201 375 178 357 164 335 c 0
150 312 144 285 145 259 c 0
145 232 153 206 167 185 c 0
181 163 202 145 227 137 c 0
246 130 267 129 287 133 c 0
307 138 325 148 340 163 c 0
329 140 311 122 289 110 c 0
267 99 242 94 218 98 c 0
181 103 148 125 128 155 c 0
107 186 98 223 100 260 c 0
101 295 111 331 132 360 c 0
152 389 183 411 218 420 c 0
247 427 280 424 308 411 c 0
336 398 359 376 374 349 c 0
Z
Spiro
455 439 v
399 435 v
202 498 c
25 259 c
202 20 c
421 74 v
193 -18 c
-19 260 c
193 537 c
414 395 v
358 391 v
214 440 c
86 260 c
214 79 c
380 119 v
205 40 c
40 260 c
205 479 c
374 349 v
318 346 v
227 381 c
145 259 c
227 137 c
340 163 v
218 98 c
100 260 c
218 420 c
0 0 z
EndSpiro
EndSplineSet
        EndChar
StartChar: d
Encoding: 100 100 0
Width: 526
InSpiro: 1
        Flags: H
        LayerCount: 2
        Back
        SplineSet
427 60 m 0
406 79 l 0
418 704 l 0
427 60 l 0
Z
397 61 m 0
376 80 l 0
388 704 l 0
397 61 l 0
Z
367 61 m 0
346 80 l 0
358 704 l 0
367 61 l 0
Z
434 373 m 0
409 385 l 0
401 422 378 457 347 480 c 0
315 503 275 513 237 509 c 0
187 503 141 472 113 431 c 0
84 390 71 339 72 289 c 0
72 239 85 188 114 147 c 0
143 106 187 76 237 69 c 0
277 62 319 72 353 95 c 0
387 118 411 154 421 194 c 0
413 151 389 111 355 85 c 0
321 59 276 46 234 51 c 0
179 56 128 88 96 133 c 0
64 178 49 234 50 290 c 0
50 344 65 400 97 444 c 0
130 488 179 521 234 528 c 0
280 533 329 520 366 491 c 0
403 463 428 419 434 373 c 0
Z
405 365 m 0
380 377 l 0
374 408 356 436 330 455 c 0
305 474 272 483 241 480 c 0
219 477 198 469 180 458 c 0
162 446 147 430 135 412 c 0
111 376 101 333 102 290 c 0
102 247 112 203 136 168 c 0
160 132 198 105 241 99 c 0
274 94 309 102 337 121 c 0
364 140 384 170 392 203 c 0
386 167 367 133 339 110 c 0
311 88 274 77 238 80 c 0
213 81 190 90 169 102 c 0
149 115 131 132 117 152 c 0
90 192 78 241 79 290 c 0
79 337 92 386 119 425 c 0
147 464 190 493 238 499 c 0
277 503 318 491 349 467 c 0
380 442 401 404 405 365 c 0
Z
376 355 m 0
351 368 l 0
346 392 333 415 313 430 c 0
294 445 268 452 244 450 c 0
226 448 208 441 194 431 c 0
179 421 166 407 157 392 c 0
138 361 131 324 132 289 c 0
132 253 140 217 159 187 c 0
168 172 180 158 195 148 c 0
209 137 226 130 244 128 c 0
270 123 298 130 320 145 c 0
342 160 357 184 363 211 c 0
359 181 345 154 322 135 c 0
300 116 270 106 241 109 c 0
220 110 200 117 183 128 c 0
165 139 151 154 139 172 c 0
117 206 108 248 109 290 c 0
109 330 119 371 142 405 c 0
153 421 167 436 184 447 c 0
201 459 220 466 241 469 c 0
273 472 308 462 333 441 c 0
358 420 374 387 376 355 c 0
Z
Spiro
427 60 v
406 79 v
418 704 v
397 61 v
376 80 v
388 704 v
367 61 v
346 80 v
358 704 v
434 373 v
409 385 v
237 509 c
72 289 c
237 69 c
421 194 v
234 51 c
50 290 c
234 528 c
405 365 v
380 377 v
241 480 c
102 290 c
241 99 c
392 203 v
238 80 c
79 290 c
238 499 c
376 355 v
351 368 v
244 450 c
132 289 c
244 128 c
363 211 v
241 109 c
109 290 c
241 469 c
0 0 z
EndSpiro
EndSplineSet
        Fore
        SplineSet
436 1 m 0
394 39 l 0
417 688 l 0
436 1 l 0
Z
376 2 m 0
334 40 l 0
357 688 l 0
376 2 l 0
Z
316 2 m 0
274 40 l 0
297 688 l 0
316 2 l 0
Z
448 325 m 0
398 351 l 0
391 395 367 437 331 464 c 0
296 491 249 504 205 499 c 0
150 492 101 459 69 414 c 0
38 369 24 313 25 259 c 0
25 204 41 150 72 105 c 0
103 61 151 28 205 19 c 0
253 10 304 21 344 49 c 0
384 77 413 121 422 170 c 0
417 116 391 64 350 29 c 0
309 -5 253 -23 200 -19 c 0
135 -13 74 23 36 76 c 0
-2 128 -19 194 -19 260 c 0
-18 324 1 388 39 440 c 0
77 492 136 529 200 538 c 0
260 546 325 527 371 487 c 0
418 447 446 386 448 325 c 0
Z
391 309 m 0
341 335 l 0
338 365 322 395 298 414 c 0
274 434 242 443 212 440 c 0
192 437 172 429 156 418 c 0
139 407 125 392 115 375 c 0
93 341 85 300 86 260 c 0
86 220 96 180 117 146 c 0
139 113 173 86 212 79 c 0
246 72 283 79 311 99 c 0
340 120 360 152 365 187 c 0
364 146 347 106 317 79 c 0
288 51 247 37 207 40 c 0
181 41 156 49 135 63 c 0
113 76 94 94 80 115 c 0
51 157 38 209 40 260 c 0
41 309 54 360 83 401 c 0
112 441 157 472 207 479 c 0
254 485 304 469 339 437 c 0
374 405 393 356 391 309 c 0
Z
333 293 m 0
283 318 l 0
283 334 276 351 264 363 c 0
252 375 234 381 218 380 c 0
204 379 192 373 182 365 c 0
171 357 163 347 157 335 c 0
146 312 143 285 145 259 c 0
146 233 150 208 161 185 c 0
167 174 175 164 184 155 c 0
194 147 205 141 218 138 c 0
238 132 260 137 277 149 c 0
294 162 305 182 307 203 c 0
310 176 302 149 284 129 c 0
267 110 241 98 215 99 c 0
196 99 178 105 162 114 c 0
147 124 134 138 124 153 c 0
104 185 98 223 100 260 c 0
101 295 109 331 129 361 c 0
138 376 151 389 165 399 c 0
180 409 197 416 215 419 c 0
248 423 283 411 306 386 c 0
329 362 339 325 333 293 c 0
Z
Spiro
436 1 v
394 39 v
417 688 v
376 2 v
334 40 v
357 688 v
316 2 v
274 40 v
297 688 v
448 325 v
398 351 v
205 499 c
25 259 c
205 19 c
422 170 v
200 -19 c
-19 260 c
200 538 c
391 309 v
341 335 v
212 440 c
86 260 c
212 79 c
365 187 v
207 40 c
40 260 c
207 479 c
333 293 v
283 318 v
218 380 c
145 259 c
218 138 c
307 203 v
215 99 c
100 260 c
215 419 c
0 0 z
EndSpiro
EndSplineSet
        EndChar
StartChar: e
Encoding: 101 101 0
Width: 526
InSpiro: 1
        Flags: H
        LayerCount: 2
        Back
        SplineSet
90 250 m 0
108 270 l 0
406 270 l 0
419 310 419 355 405 395 c 0
392 429 369 459 340 480 c 0
310 501 273 511 237 509 c 0
211 506 187 498 165 485 c 0
144 471 125 453 111 432 c 0
82 391 70 339 72 289 c 0
73 239 87 190 115 149 c 0
144 109 187 78 236 69 c 0
271 62 309 66 342 82 c 0
375 97 403 124 421 156 c 0
405 120 378 90 344 72 c 0
310 53 271 45 233 51 c 0
179 58 130 90 98 134 c 0
66 178 50 233 50 288 c 0
49 343 63 400 96 445 c 0
128 491 180 523 236 528 c 0
276 531 317 519 351 496 c 0
385 473 411 439 426 402 c 0
444 353 446 298 429 250 c 0
429 250 l 0
90 250 l 0
Z
90 280 m 0
108 300 l 0
376 300 l 0
385 327 385 358 377 386 c 0
368 414 349 439 325 457 c 0
301 474 270 482 241 480 c 0
219 478 198 470 180 458 c 0
162 447 146 431 134 413 c 0
110 377 100 333 102 290 c 0
103 247 114 204 138 169 c 0
162 134 199 107 241 99 c 0
270 93 302 97 329 110 c 0
357 123 380 145 395 172 c 0
382 141 360 116 331 99 c 0
303 83 270 76 238 80 c 0
190 85 147 114 119 153 c 0
92 192 79 241 79 289 c 0
78 337 90 386 118 426 c 0
145 465 189 494 238 499 c 0
272 502 307 492 335 473 c 0
364 454 386 425 398 393 c 0
411 356 411 316 399 280 c 0
399 280 l 0
90 280 l 0
Z
90 310 m 0
108 330 l 0
347 330 l 0
351 345 351 361 348 377 c 0
342 399 328 420 309 433 c 0
290 446 266 452 243 450 c 0
225 448 208 441 193 431 c 0
178 421 166 407 156 392 c 0
138 362 131 325 132 290 c 0
132 254 141 218 160 188 c 0
179 158 210 135 245 128 c 0
269 122 295 125 317 136 c 0
340 147 359 165 371 187 c 0
361 161 342 139 319 125 c 0
296 111 268 105 242 109 c 0
201 113 164 139 141 172 c 0
119 206 109 248 109 289 c 0
108 329 118 370 140 404 c 0
152 421 166 436 183 447 c 0
200 459 219 466 240 469 c 0
268 472 297 465 321 449 c 0
345 433 363 409 371 382 c 0
377 358 376 333 369 310 c 0
369 310 l 0
90 310 l 0
Z
Spiro
90 250 v
108 270 v
406 270 v
405 395 c
237 509 c
72 289 c
236 69 c
421 156 v
233 51 c
50 288 c
236 528 c
426 402 c
429 250 v
429 250 v
90 280 v
108 300 v
376 300 v
377 386 c
241 480 c
102 290 c
241 99 c
395 172 v
238 80 c
79 289 c
238 499 c
398 393 c
399 280 v
399 280 v
90 310 v
108 330 v
347 330 v
348 377 c
243 450 c
132 290 c
245 128 c
371 187 v
242 109 c
109 289 c
240 469 c
371 382 c
369 310 v
369 310 v
0 0 z
EndSpiro
EndSplineSet
        Fore
        SplineSet
60 181 m 0
97 220 l 0
394 220 l 0
410 268 409 323 391 371 c 0
376 408 351 442 319 465 c 0
286 488 246 501 206 499 c 0
178 497 150 488 126 473 c 0
102 459 82 439 66 416 c 0
34 370 21 312 25 257 c 0
28 204 45 152 76 110 c 0
107 67 151 34 202 20 c 0
239 8 280 8 318 17 c 0
356 26 391 46 420 74 c 0
394 38 359 10 319 -5 c 0
278 -21 233 -26 191 -18 c 0
129 -6 75 31 38 81 c 0
1 131 -17 193 -19 256 c 0
-20 322 -3 389 36 442 c 0
75 495 137 533 203 538 c 0
252 541 301 526 342 499 c 0
383 471 414 431 434 386 c 0
461 321 463 246 439 180 c 0
439 180 l 0
60 181 l 0
Z
60 241 m 0
97 280 l 0
334 280 l 0
341 303 341 329 335 353 c 0
327 379 310 402 288 418 c 0
266 434 238 442 211 440 c 0
190 438 170 431 153 420 c 0
136 409 122 394 111 376 c 0
89 342 81 300 84 260 c 0
86 220 98 181 121 148 c 0
144 116 177 90 215 79 c 0
243 70 273 69 302 76 c 0
331 83 357 98 379 119 c 0
361 90 334 66 303 52 c 0
272 38 237 34 204 40 c 0
155 48 111 78 82 119 c 0
53 159 39 209 39 259 c 0
38 309 51 361 80 403 c 0
110 444 157 474 208 479 c 0
244 481 281 471 311 451 c 0
342 430 365 400 378 366 c 0
392 325 393 280 379 240 c 0
379 240 l 0
60 241 l 0
Z
60 301 m 0
97 340 l 0
281 335 l 0
279 336 278 337 277 339 c 0
268 347 260 356 250 364 c 0
241 371 230 378 218 380 c 0
204 382 190 378 179 371 c 0
167 364 158 353 152 341 c 0
140 317 140 288 144 262 c 0
147 236 155 210 168 187 c 0
182 165 202 146 227 137 c 0
245 129 267 127 287 132 c 0
306 137 325 147 339 163 c 0
328 140 310 122 289 110 c 0
267 98 242 94 218 98 c 0
181 103 149 126 128 156 c 0
108 187 99 224 99 261 c 0
98 296 106 332 125 361 c 0
144 391 176 414 211 419 c 0
235 422 262 416 282 402 c 0
303 387 318 364 322 340 c 0
324 326 322 312 319 300 c 0
319 300 l 0
60 301 l 0
Z
Spiro
60 181 v
97 220 v
394 220 v
391 371 c
206 499 c
25 257 c
202 20 c
420 74 v
191 -18 c
-19 256 c
203 538 c
434 386 c
439 180 v
439 180 v
60 241 v
97 280 v
334 280 v
335 353 c
211 440 c
84 260 c
215 79 c
379 119 v
204 40 c
39 259 c
208 479 c
378 366 c
379 240 v
379 240 v
60 301 v
97 340 v
281 335 v
277 339 c
218 380 c
144 262 c
227 137 c
339 163 v
218 98 c
99 261 c
211 419 c
322 340 c
319 300 v
319 300 v
0 0 z
EndSpiro
EndSplineSet
        EndChar
StartChar: f
Encoding: 102 102 0
Width: 376
InSpiro: 1
        Flags: H
        LayerCount: 2
        Back
        SplineSet
271 724 m 0
250 707 l 0
223 710 195 706 171 695 c 0
146 683 125 665 110 644 c 0
94 622 84 596 79 570 c 0
73 543 72 516 72 490 c 0
61 75 l 0
50 490 l 0
49 522 48 555 54 588 c 0
60 620 73 651 93 677 c 0
114 702 143 721 174 730 c 0
206 738 240 736 271 724 c 0
Z
269 698 m 0
249 679 l 0
226 680 203 675 183 665 c 0
163 654 145 639 132 620 c 0
120 601 112 579 107 557 c 0
103 535 102 512 102 490 c 0
91 75 l 0
79 490 l 0
78 518 77 547 82 575 c 0
87 603 98 630 115 652 c 0
133 675 157 692 185 700 c 0
212 708 242 707 269 698 c 0
Z
267 670 m 0
249 650 l 0
230 649 212 644 195 635 c 0
179 626 166 612 156 597 c 0
146 581 140 563 136 545 c 0
133 527 132 508 132 490 c 0
121 75 l 0
109 490 l 0
108 513 107 538 111 561 c 0
116 585 124 608 139 627 c 0
153 646 173 661 196 669 c 0
219 676 244 677 267 670 c 0
Z
60 450 m 0
77 470 l 0
255 460 l 0
60 450 l 0
Z
60 480 m 0
78 500 l 0
255 490 l 0
60 480 l 0
Z
60 510 m 0
78 530 l 0
255 520 l 0
60 510 l 0
Z
Spiro
271 724 v
250 707 v
72 490 [
61 75 v
50 490 ]
269 698 v
249 679 v
102 490 [
91 75 v
79 490 ]
267 670 v
249 650 v
132 490 [
121 75 v
109 490 ]
60 450 v
77 470 v
255 460 v
60 480 v
78 500 v
255 490 v
60 510 v
78 530 v
255 520 v
0 0 z
EndSpiro
EndSplineSet
        Fore
        SplineSet
275 728 m 0
231 696 l 0
201 700 170 696 142 685 c 0
115 673 91 654 73 630 c 0
55 606 43 578 36 549 c 0
29 519 27 489 26 460 c 0
3 31 l 0
-20 460 l 0
-22 503 -24 546 -16 589 c 0
-8 631 10 673 39 704 c 0
69 736 109 757 152 762 c 0
195 766 240 754 275 728 c 0
Z
269 677 m 0
230 639 l 0
208 640 186 635 167 626 c 0
147 616 130 601 118 583 c 0
106 566 97 545 93 524 c 0
88 503 87 481 86 460 c 0
63 31 l 0
40 460 l 0
38 493 36 527 42 561 c 0
48 594 62 626 85 651 c 0
107 676 139 694 172 699 c 0
205 703 241 695 269 677 c 0
Z
260 630 m 0
232 584 l 0
218 582 204 577 193 569 c 0
181 562 172 551 164 539 c 0
157 528 153 514 150 501 c 0
147 487 146 473 146 460 c 0
123 31 l 0
100 460 l 0
98 484 97 508 101 532 c 0
105 556 114 579 129 598 c 0
144 616 165 630 189 636 c 0
212 642 238 640 260 630 c 0
Z
0 381 m 0
36 420 l 0
241 400 l 0
0 381 l 0
Z
0 441 m 0
37 480 l 0
241 460 l 0
0 441 l 0
Z
0 501 m 0
37 540 l 0
241 520 l 0
0 501 l 0
Z
Spiro
275 728 v
231 696 v
26 460 [
3 31 v
-20 460 ]
269 677 v
230 639 v
86 460 [
63 31 v
40 460 ]
260 630 v
232 584 v
146 460 [
123 31 v
100 460 ]
0 381 v
36 420 v
241 400 v
0 441 v
37 480 v
241 460 v
0 501 v
37 540 v
241 520 v
0 0 z
EndSpiro
EndSplineSet
        EndChar
StartChar: g
Encoding: 103 103 0
Width: 526
InSpiro: 1
        Flags: H
        LayerCount: 2
        Back
        SplineSet
351 518 m 0
372 500 l 0
372 90 l 0
372 33 372 -24 353 -78 c 0
344 -105 330 -130 310 -150 c 0
290 -170 264 -185 236 -189 c 0
206 -192 175 -183 152 -165 c 0
129 -146 114 -118 112 -89 c 0
117 -115 133 -139 155 -154 c 0
177 -169 206 -175 233 -170 c 0
258 -164 280 -149 297 -130 c 0
314 -111 326 -87 334 -63 c 0
349 -13 348 38 349 90 c 0
351 518 l 0
Z
381 518 m 0
402 500 l 0
402 90 l 0
402 26 401 -39 377 -98 c 0
366 -128 348 -155 325 -177 c 0
302 -199 272 -214 241 -219 c 0
204 -224 165 -213 136 -190 c 0
107 -167 87 -132 84 -96 c 0
90 -129 110 -161 139 -180 c 0
167 -199 204 -207 238 -200 c 0
266 -194 292 -178 313 -157 c 0
333 -136 348 -110 358 -83 c 0
378 -28 378 31 379 90 c 0
381 518 l 0
Z
411 518 m 0
432 500 l 0
432 90 l 0
432 19 430 -53 402 -118 c 0
388 -150 367 -180 340 -203 c 0
314 -227 281 -243 246 -248 c 0
202 -254 155 -241 120 -214 c 0
85 -187 62 -146 57 -102 c 0
64 -143 88 -180 123 -204 c 0
157 -228 201 -237 243 -229 c 0
275 -222 304 -206 328 -183 c 0
352 -161 370 -133 382 -102 c 0
407 -42 408 24 409 90 c 0
411 518 l 0
Z
434 373 m 0
409 385 l 0
401 422 378 457 347 480 c 0
315 503 275 513 237 509 c 0
187 503 141 472 113 431 c 0
84 390 71 339 72 289 c 0
72 239 85 188 114 147 c 0
143 106 187 76 237 69 c 0
277 62 319 72 353 95 c 0
387 118 411 154 421 194 c 0
413 151 389 111 355 85 c 0
321 59 276 46 234 51 c 0
179 56 128 88 96 133 c 0
64 178 49 234 50 290 c 0
50 344 65 400 97 444 c 0
130 488 179 521 234 528 c 0
280 533 329 520 366 491 c 0
403 463 428 419 434 373 c 0
Z
405 365 m 0
380 377 l 0
374 408 356 436 330 455 c 0
305 474 272 483 241 480 c 0
219 477 198 469 180 458 c 0
162 446 147 430 135 412 c 0
111 376 101 333 102 290 c 0
102 247 112 203 136 168 c 0
160 132 198 105 241 99 c 0
274 94 309 102 337 121 c 0
364 140 384 170 392 203 c 0
386 167 367 133 339 110 c 0
311 88 274 77 238 80 c 0
213 81 190 90 169 102 c 0
149 115 131 132 117 152 c 0
90 192 78 241 79 290 c 0
79 337 92 386 119 425 c 0
147 464 190 493 238 499 c 0
277 503 318 491 349 467 c 0
380 442 401 404 405 365 c 0
Z
376 355 m 0
351 368 l 0
346 392 333 415 313 430 c 0
294 445 268 452 244 450 c 0
226 448 208 441 194 431 c 0
179 421 166 407 157 392 c 0
138 361 131 324 132 289 c 0
132 253 140 217 159 187 c 0
168 172 180 158 195 148 c 0
209 137 226 130 244 128 c 0
270 123 298 130 320 145 c 0
342 160 357 184 363 211 c 0
359 181 345 154 322 135 c 0
300 116 270 106 241 109 c 0
220 110 200 117 183 128 c 0
165 139 151 154 139 172 c 0
117 206 108 248 109 290 c 0
109 330 119 371 142 405 c 0
153 421 167 436 184 447 c 0
201 459 220 466 241 469 c 0
273 472 308 462 333 441 c 0
358 420 374 387 376 355 c 0
Z
Spiro
351 518 v
372 500 v
372 90 ]
236 -189 c
112 -89 v
233 -170 c
349 90 [
381 518 v
402 500 v
402 90 ]
241 -219 c
84 -96 v
238 -200 c
379 90 [
411 518 v
432 500 v
432 90 ]
246 -248 c
57 -102 v
243 -229 c
409 90 [
434 373 v
409 385 v
237 509 c
72 289 c
237 69 c
421 194 v
234 51 c
50 290 c
234 528 c
405 365 v
380 377 v
241 480 c
102 290 c
241 99 c
392 203 v
238 80 c
79 290 c
238 499 c
376 355 v
351 368 v
244 450 c
132 289 c
244 128 c
363 211 v
241 109 c
109 290 c
241 469 c
0 0 z
EndSpiro
EndSplineSet
        Fore
        SplineSet
283 517 m 0
325 480 l 0
326 60 l 0
326 7 327 -46 311 -97 c 0
303 -122 290 -146 271 -165 c 0
253 -184 228 -197 202 -199 c 0
175 -200 148 -190 130 -171 c 0
112 -152 102 -125 105 -99 c 0
108 -119 120 -138 137 -149 c 0
154 -161 176 -165 197 -160 c 0
217 -154 235 -141 247 -123 c 0
259 -106 267 -86 271 -66 c 0
280 -24 279 17 280 60 c 0
283 517 l 0
Z
343 517 m 0
385 480 l 0
386 60 l 0
386 -6 385 -75 359 -136 c 0
346 -167 327 -196 302 -218 c 0
277 -240 246 -255 213 -259 c 0
171 -263 128 -249 98 -222 c 0
67 -194 48 -153 49 -112 c 0
53 -147 73 -180 103 -200 c 0
132 -221 171 -228 206 -220 c 0
233 -213 257 -197 277 -177 c 0
296 -157 310 -132 320 -106 c 0
338 -53 339 3 340 60 c 0
343 517 l 0
Z
403 517 m 0
445 480 l 0
446 60 l 0
446 -20 443 -104 408 -177 c 0
390 -213 365 -246 333 -271 c 0
301 -296 263 -313 223 -318 c 0
167 -324 109 -307 65 -271 c 0
22 -235 -4 -181 -8 -125 c 0
0 -175 29 -221 70 -250 c 0
112 -279 166 -289 216 -279 c 0
250 -271 282 -254 308 -231 c 0
334 -207 354 -178 368 -146 c 0
397 -82 399 -10 400 60 c 0
403 517 l 0
Z
448 325 m 0
398 351 l 0
391 395 367 437 331 464 c 0
296 491 249 504 205 499 c 0
150 492 101 459 69 414 c 0
38 369 24 313 25 259 c 0
25 204 41 150 72 105 c 0
103 61 151 28 205 19 c 0
253 10 304 21 344 49 c 0
384 77 413 121 422 170 c 0
417 116 391 64 350 29 c 0
309 -5 253 -23 200 -19 c 0
135 -13 74 23 36 76 c 0
-2 128 -19 194 -19 260 c 0
-18 324 1 388 39 440 c 0
77 492 136 529 200 538 c 0
260 546 325 527 371 487 c 0
418 447 446 386 448 325 c 0
Z
391 309 m 0
341 335 l 0
338 365 322 395 298 414 c 0
274 434 242 443 212 440 c 0
192 437 172 429 156 418 c 0
139 407 125 392 115 375 c 0
93 341 85 300 86 260 c 0
86 220 96 180 117 146 c 0
139 113 173 86 212 79 c 0
246 72 283 79 311 99 c 0
340 120 360 152 365 187 c 0
364 146 347 106 317 79 c 0
288 51 247 37 207 40 c 0
181 41 156 49 135 63 c 0
113 76 94 94 80 115 c 0
51 157 38 209 40 260 c 0
41 309 54 360 83 401 c 0
112 441 157 472 207 479 c 0
254 485 304 469 339 437 c 0
374 405 393 356 391 309 c 0
Z
333 293 m 0
283 318 l 0
283 334 276 351 264 363 c 0
252 375 234 381 218 380 c 0
204 379 192 373 182 365 c 0
171 357 163 347 157 335 c 0
146 312 143 285 145 259 c 0
146 233 150 208 161 185 c 0
167 174 175 164 184 155 c 0
194 147 205 141 218 138 c 0
238 132 260 137 277 149 c 0
294 162 305 182 307 203 c 0
310 176 302 149 284 129 c 0
267 110 241 98 215 99 c 0
196 99 178 105 162 114 c 0
147 124 134 138 124 153 c 0
104 185 98 223 100 260 c 0
101 295 109 331 129 361 c 0
138 376 151 389 165 399 c 0
180 409 197 416 215 419 c 0
248 423 283 411 306 386 c 0
329 362 339 325 333 293 c 0
Z
Spiro
283 517 v
325 480 v
326 60 ]
202 -199 c
105 -99 v
197 -160 c
280 60 [
343 517 v
385 480 v
386 60 ]
213 -259 c
49 -112 v
206 -220 c
340 60 [
403 517 v
445 480 v
446 60 ]
223 -318 c
-8 -125 v
216 -279 c
400 60 [
448 325 v
398 351 v
205 499 c
25 259 c
205 19 c
422 170 v
200 -19 c
-19 260 c
200 538 c
391 309 v
341 335 v
212 440 c
86 260 c
212 79 c
365 187 v
207 40 c
40 260 c
207 479 c
333 293 v
283 318 v
218 380 c
145 259 c
218 138 c
307 203 v
215 99 c
100 260 c
215 419 c
0 0 z
EndSpiro
EndSplineSet
        EndChar
StartChar: h
Encoding: 104 104 0
Width: 526
InSpiro: 1
        Flags: H
        LayerCount: 2
        Back
        SplineSet
63 60 m 0
62 60 l 0
63 662 l 0
63 60 l 0
Z
61 60 m 0
60 61 l 0
61 662 l 0
61 60 l 0
Z
60 60 m 0
60 61 l 0
60 662 l 0
60 60 l 0
Z
62 319 m 0
62 320 l 0
75 348 96 373 122 391 c 0
148 408 179 418 211 420 c 0
233 420 255 417 275 408 c 0
296 399 314 385 328 368 c 0
341 350 350 329 355 308 c 0
359 286 360 264 360 242 c 0
360 61 l 0
359 242 l 0
358 263 358 285 353 307 c 0
349 328 340 349 327 366 c 0
313 384 296 398 276 406 c 0
255 415 233 419 212 419 c 0
180 418 148 408 122 390 c 0
96 373 74 347 62 319 c 0
Z
60 320 m 0
60 321 l 0
73 349 94 374 120 392 c 0
147 410 178 420 210 422 c 0
232 423 255 419 276 410 c 0
296 402 315 388 329 370 c 0
343 352 352 331 357 309 c 0
361 287 362 264 362 242 c 0
362 61 l 0
361 242 l 0
360 264 360 286 355 308 c 0
351 330 342 351 328 368 c 0
314 386 296 400 276 409 c 0
255 417 233 421 211 421 c 0
179 419 147 409 121 392 c 0
94 374 73 349 60 320 c 0
Z
60 320 m 0
60 321 l 0
73 349 94 375 120 392 c 0
147 410 178 421 210 423 c 0
232 424 255 420 276 412 c 0
297 403 316 389 330 371 c 0
344 353 354 332 358 309 c 0
363 287 364 264 364 242 c 0
364 61 l 0
363 242 l 0
362 264 362 287 357 309 c 0
352 331 343 352 330 370 c 0
316 387 297 401 276 410 c 0
256 419 233 422 211 422 c 0
179 420 147 410 120 392 c 0
94 374 73 349 60 320 c 0
Z
Spiro
63 60 v
62 60 v
63 662 v
61 60 v
60 61 v
61 662 v
60 60 v
60 61 v
60 662 v
62 319 v
62 320 v
211 420 c
360 242 [
360 61 v
359 242 ]
212 419 c
60 320 v
60 321 v
210 422 c
362 242 [
362 61 v
361 242 ]
211 421 c
60 320 v
60 321 v
210 423 c
364 242 [
364 61 v
363 242 ]
211 422 c
0 0 z
EndSpiro
EndSplineSet
        Fore
        SplineSet
136 1 m 0
94 39 l 0
117 688 l 0
136 1 l 0
Z
76 2 m 0
34 40 l 0
57 688 l 0
76 2 l 0
Z
16 2 m 0
-25 40 l 0
-2 688 l 0
16 2 l 0
Z
106 235 m 0
82 284 l 0
92 309 110 332 133 349 c 0
155 366 183 376 211 379 c 0
228 380 247 378 263 372 c 0
280 366 295 356 306 342 c 0
317 328 324 311 327 293 c 0
329 275 327 257 326 240 c 0
303 31 l 0
280 240 l 0
277 261 273 284 262 302 c 0
250 321 231 334 210 340 c 0
195 343 180 343 166 338 c 0
152 334 138 327 128 316 c 0
118 306 110 292 106 278 c 0
102 264 102 249 106 235 c 0
Z
48 260 m 0
27 310 l 0
62 377 131 427 207 439 c 0
233 443 261 442 287 435 c 0
312 427 336 413 354 393 c 0
372 372 383 347 387 320 c 0
391 293 388 266 386 240 c 0
363 31 l 0
340 240 l 0
337 258 335 277 330 295 c 0
325 314 317 331 306 346 c 0
283 377 247 396 210 400 c 0
170 403 129 390 99 364 c 0
68 338 50 299 48 260 c 0
Z
-9 284 m 0
-27 335 l 0
21 419 109 480 205 498 c 0
240 504 276 504 311 496 c 0
346 487 378 468 402 442 c 0
426 416 441 382 447 346 c 0
453 311 449 275 446 240 c 0
423 31 l 0
400 240 l 0
397 266 393 293 386 319 c 0
378 345 366 370 349 391 c 0
332 412 310 429 286 440 c 0
261 452 234 458 208 459 c 0
157 460 106 443 67 411 c 0
27 379 0 333 -9 284 c 0
Z
Spiro
136 1 v
94 39 v
117 688 v
76 2 v
34 40 v
57 688 v
16 2 v
-25 40 v
-2 688 v
106 235 v
82 284 v
211 379 c
326 240 [
303 31 v
280 240 ]
210 340 c
48 260 v
27 310 v
207 439 c
386 240 [
363 31 v
340 240 ]
210 400 c
-9 284 v
-27 335 v
205 498 c
446 240 [
423 31 v
400 240 ]
208 459 c
0 0 z
EndSpiro
EndSplineSet
        EndChar
StartChar: i
Encoding: 105 105 0
Width: 226
InSpiro: 1
        Flags: H
        LayerCount: 2
        Back
        SplineSet
52 518 m 0
72 500 l 0
61 75 l 0
52 518 l 0
Z
81 518 m 0
102 500 l 0
91 75 l 0
81 518 l 0
Z
111 518 m 0
132 500 l 0
121 75 l 0
111 518 l 0
Z
89 570 m 0
88 570 87 570 86 570 c 0
86 571 85 571 85 572 c 0
84 573 84 575 84 576 c 0
85 578 86 579 87 580 c 0
88 581 89 582 91 583 c 0
94 584 97 584 100 585 c 0
101 585 103 586 104 587 c 0
105 587 107 588 108 590 c 0
109 592 110 595 109 597 c 0
109 600 107 603 105 605 c 0
103 606 100 608 98 608 c 0
95 609 92 609 90 610 c 0
86 610 83 609 81 609 c 0
78 608 75 607 73 605 c 0
70 603 69 600 68 597 c 0
68 595 68 594 68 592 c 0
69 591 69 590 71 589 c 0
72 587 73 587 74 586 c 0
76 585 77 585 78 585 c 0
81 584 84 584 87 583 c 0
89 582 90 581 91 580 c 0
92 579 93 578 94 576 c 0
94 575 94 573 93 572 c 0
93 571 92 571 92 570 c 0
91 570 90 570 90 570 c 0
89 569 89 569 89 570 c 0
Z
89 585 m 0
88 585 88 585 88 585 c 0
88 586 88 586 88 586 c 0
88 586 88 587 88 587 c 0
89 587 89 587 89 588 c 0
90 588 90 588 91 588 c 0
92 589 92 589 93 590 c 0
93 590 93 591 93 591 c 0
93 592 93 592 92 593 c 0
92 593 92 594 91 594 c 0
91 594 90 594 90 595 c 0
89 595 88 595 87 594 c 0
86 594 86 594 85 593 c 0
85 592 84 591 84 591 c 0
84 590 85 589 86 589 c 0
86 588 87 588 87 588 c 0
88 588 88 588 89 587 c 0
89 587 89 587 90 587 c 0
90 587 90 586 90 586 c 0
90 586 90 585 90 585 c 0
90 585 90 585 90 585 c 0
89 584 89 584 89 585 c 0
Z
Spiro
52 518 v
72 500 v
61 75 v
81 518 v
102 500 v
91 75 v
111 518 v
132 500 v
121 75 v
89 570 c
108 590 c
90 610 c
71 589 c
90 570 c
90 550 c
49 590 c
89 630 c
131 589 c
90 550 c
89 585 c
93 590 c
90 595 c
86 589 c
90 585 c
90 565 c
63 590 c
89 615 c
116 589 c
90 565 c
0 0 z
EndSpiro
EndSplineSet
        Fore
        SplineSet
-16 517 m 0
25 480 l 0
3 31 l 0
-16 517 l 0
Z
43 517 m 0
85 480 l 0
63 31 l 0
43 517 l 0
Z
103 517 m 0
145 480 l 0
123 31 l 0
103 517 l 0
Z
59 600 m 0
57 600 55 600 54 601 c 0
53 602 52 603 51 604 c 0
49 607 49 610 50 613 c 0
50 616 52 619 54 621 c 0
57 623 59 625 62 626 c 0
68 628 74 629 80 631 c 0
83 631 86 632 89 634 c 0
92 635 95 637 97 640 c 0
100 644 101 650 100 656 c 0
99 661 96 666 92 670 c 0
87 674 82 676 76 678 c 0
71 679 65 680 60 680 c 0
54 679 48 679 42 678 c 0
37 676 31 673 27 670 c 0
23 666 19 661 18 655 c 0
17 649 19 643 23 639 c 0
24 636 27 634 30 633 c 0
32 632 35 631 38 630 c 0
44 629 50 628 56 626 c 0
59 624 61 623 64 621 c 0
66 619 67 616 68 613 c 0
69 610 69 607 67 604 c 0
66 603 65 602 64 601 c 0
63 600 61 600 60 600 c 0
59 599 59 599 59 600 c 0
Z
59 630 m 0
58 630 57 630 57 631 c 0
57 631 57 632 57 633 c 0
57 633 57 634 58 635 c 0
58 635 59 635 59 636 c 0
60 637 62 637 63 637 c 0
64 638 66 638 67 640 c 0
67 640 68 642 68 643 c 0
68 644 67 646 66 647 c 0
65 648 64 648 63 649 c 0
62 649 61 649 60 650 c 0
58 650 57 649 55 649 c 0
54 648 53 647 52 646 c 0
51 645 51 644 51 642 c 0
51 641 51 639 53 639 c 0
53 638 55 637 56 637 c 0
57 636 58 636 59 635 c 0
60 635 60 635 60 634 c 0
61 634 61 633 61 632 c 0
61 632 61 631 61 631 c 0
61 630 60 630 60 630 c 0
59 629 59 629 59 630 c 0
Z
Spiro
-16 517 v
25 480 v
3 31 v
43 517 v
85 480 v
63 31 v
103 517 v
145 480 v
123 31 v
59 600 c
97 640 c
60 680 c
23 639 c
60 600 c
60 560 c
-23 640 c
59 720 c
143 639 c
60 560 c
59 630 c
67 640 c
60 650 c
53 639 c
60 630 c
60 590 c
7 640 c
59 690 c
113 639 c
60 590 c
0 0 z
EndSpiro
EndSplineSet
        EndChar
StartChar: j
Encoding: 106 106 0
Width: 466
InSpiro: 1
        Flags: H
        LayerCount: 2
        Back
        SplineSet
291 518 m 0
312 500 l 0
312 90 l 0
312 38 315 -13 308 -65 c 0
305 -90 299 -116 287 -139 c 0
275 -162 256 -181 232 -191 c 0
217 -196 202 -197 187 -195 c 0
172 -192 158 -186 146 -176 c 0
134 -166 125 -153 120 -139 c 0
115 -125 114 -109 117 -95 c 0
115 -108 118 -121 123 -133 c 0
129 -145 137 -155 148 -163 c 0
158 -171 171 -175 184 -177 c 0
197 -178 210 -177 223 -172 c 0
244 -162 261 -143 271 -122 c 0
281 -100 286 -76 288 -52 c 0
291 -5 288 42 289 90 c 0
291 518 l 0
Z
321 518 m 0
342 500 l 0
342 90 l 0
342 32 344 -24 334 -81 c 0
329 -109 320 -137 305 -161 c 0
291 -186 270 -207 244 -219 c 0
225 -227 204 -230 184 -227 c 0
164 -224 144 -216 128 -203 c 0
112 -191 100 -174 93 -155 c 0
86 -136 84 -115 88 -95 c 0
85 -113 88 -132 95 -148 c 0
103 -165 115 -180 130 -191 c 0
145 -202 163 -208 181 -210 c 0
199 -211 218 -208 235 -200 c 0
258 -188 277 -167 289 -144 c 0
302 -120 309 -94 313 -68 c 0
320 -16 318 37 319 90 c 0
321 518 l 0
Z
351 518 m 0
372 500 l 0
372 90 l 0
372 27 373 -35 359 -96 c 0
353 -126 342 -156 325 -182 c 0
309 -208 286 -231 258 -245 c 0
234 -256 208 -260 183 -257 c 0
157 -255 133 -245 112 -230 c 0
92 -214 76 -193 67 -169 c 0
58 -145 55 -119 60 -94 c 0
56 -117 59 -141 68 -163 c 0
78 -185 93 -204 112 -218 c 0
131 -231 154 -240 178 -241 c 0
201 -243 225 -238 247 -228 c 0
273 -214 294 -192 308 -167 c 0
323 -142 332 -113 338 -85 c 0
349 -27 348 31 349 90 c 0
351 518 l 0
Z
329 570 m 0
328 570 327 570 326 570 c 0
326 571 325 571 325 572 c 0
324 573 324 575 324 576 c 0
325 578 326 579 327 580 c 0
328 581 329 582 331 583 c 0
334 584 337 584 340 585 c 0
341 585 343 586 344 587 c 0
345 587 347 588 348 590 c 0
349 592 350 595 349 597 c 0
349 600 347 603 345 605 c 0
343 606 340 608 338 608 c 0
335 609 332 609 330 610 c 0
326 610 323 609 321 609 c 0
318 608 315 607 313 605 c 0
310 603 309 600 308 597 c 0
308 595 308 594 308 592 c 0
309 591 309 590 311 589 c 0
312 587 313 587 314 586 c 0
316 585 317 585 318 585 c 0
321 584 324 584 327 583 c 0
329 582 330 581 331 580 c 0
332 579 333 578 334 576 c 0
334 575 334 573 333 572 c 0
333 571 332 571 332 570 c 0
331 570 330 570 330 570 c 0
329 569 329 569 329 570 c 0
Z
329 585 m 0
328 585 328 585 328 585 c 0
328 586 328 586 328 586 c 0
328 586 328 587 328 587 c 0
329 587 329 587 329 588 c 0
330 588 330 588 331 588 c 0
332 589 332 589 333 590 c 0
333 590 333 591 333 591 c 0
333 592 333 592 332 593 c 0
332 593 332 594 331 594 c 0
331 594 330 594 330 595 c 0
329 595 328 595 327 594 c 0
326 594 326 594 325 593 c 0
325 592 324 591 324 591 c 0
324 590 325 589 326 589 c 0
326 588 327 588 327 588 c 0
328 588 328 588 329 587 c 0
329 587 329 587 330 587 c 0
330 587 330 586 330 586 c 0
330 586 330 585 330 585 c 0
330 585 330 585 330 585 c 0
329 584 329 584 329 585 c 0
Z
Spiro
291 518 v
312 500 v
312 90 ]
232 -191 c
117 -95 v
223 -172 c
289 90 [
321 518 v
342 500 v
342 90 ]
244 -219 c
88 -95 v
235 -200 c
319 90 [
351 518 v
372 500 v
372 90 ]
258 -245 c
60 -94 v
247 -228 c
349 90 [
329 570 c
348 590 c
330 610 c
311 589 c
330 570 c
330 550 c
288 590 c
329 630 c
371 589 c
330 550 c
329 585 c
333 590 c
330 595 c
326 589 c
330 585 c
330 565 c
303 590 c
329 615 c
356 589 c
330 565 c
0 0 z
EndSpiro
EndSplineSet
        Fore
        SplineSet
223 517 m 0
265 480 l 0
266 60 l 0
266 10 270 -38 265 -87 c 0
263 -112 258 -136 246 -158 c 0
240 -169 232 -179 223 -187 c 0
214 -195 202 -201 191 -204 c 0
178 -206 165 -206 154 -202 c 0
142 -199 131 -192 122 -182 c 0
114 -173 108 -162 106 -149 c 0
103 -137 104 -124 109 -113 c 0
108 -130 116 -147 130 -158 c 0
144 -168 163 -171 180 -165 c 0
189 -161 197 -155 204 -147 c 0
210 -139 215 -130 218 -121 c 0
225 -101 226 -81 225 -61 c 0
223 -20 219 19 220 60 c 0
223 517 l 0
Z
283 517 m 0
325 480 l 0
326 60 l 0
326 0 328 -59 316 -117 c 0
310 -146 301 -174 285 -199 c 0
269 -224 247 -246 220 -258 c 0
198 -266 175 -269 152 -266 c 0
130 -262 108 -251 91 -236 c 0
74 -221 61 -200 55 -178 c 0
49 -156 50 -132 57 -111 c 0
53 -129 54 -149 60 -166 c 0
67 -184 79 -200 94 -211 c 0
109 -223 127 -230 146 -231 c 0
164 -233 184 -229 201 -221 c 0
223 -209 241 -188 252 -166 c 0
264 -143 270 -118 274 -93 c 0
281 -42 279 8 280 60 c 0
283 517 l 0
Z
343 517 m 0
385 480 l 0
386 60 l 0
386 -9 386 -80 368 -148 c 0
359 -182 345 -214 324 -243 c 0
304 -271 277 -296 246 -311 c 0
216 -325 182 -330 149 -326 c 0
116 -322 84 -308 59 -287 c 0
33 -266 14 -238 3 -206 c 0
-6 -175 -7 -141 0 -109 c 0
-5 -137 -3 -167 6 -195 c 0
17 -222 35 -246 59 -264 c 0
82 -281 111 -292 140 -294 c 0
169 -296 199 -289 225 -276 c 0
252 -261 274 -238 291 -211 c 0
307 -185 318 -155 325 -125 c 0
339 -65 339 -2 340 60 c 0
343 517 l 0
Z
299 600 m 0
297 600 295 600 294 601 c 0
293 602 292 603 291 604 c 0
289 607 289 610 290 613 c 0
290 616 292 619 294 621 c 0
297 623 299 625 302 626 c 0
308 628 314 629 320 631 c 0
323 631 326 632 329 634 c 0
332 635 335 637 337 640 c 0
340 644 341 650 340 656 c 0
339 661 336 666 332 670 c 0
327 674 322 676 316 678 c 0
311 679 305 680 300 680 c 0
294 679 288 679 282 678 c 0
277 676 271 673 267 670 c 0
263 666 259 661 258 655 c 0
257 649 259 643 263 639 c 0
264 636 267 634 270 633 c 0
272 632 275 631 278 630 c 0
284 629 290 628 296 626 c 0
299 624 301 623 304 621 c 0
306 619 307 616 308 613 c 0
309 610 309 607 307 604 c 0
306 603 305 602 304 601 c 0
303 600 301 600 300 600 c 0
299 599 299 599 299 600 c 0
Z
299 630 m 0
298 630 297 630 297 631 c 0
297 631 297 632 297 633 c 0
297 633 297 634 298 635 c 0
298 635 299 635 299 636 c 0
300 637 302 637 303 637 c 0
304 638 306 638 307 640 c 0
307 640 308 642 308 643 c 0
308 644 307 646 306 647 c 0
305 648 304 648 303 649 c 0
302 649 301 649 300 650 c 0
298 650 297 649 295 649 c 0
294 648 293 647 292 646 c 0
291 645 291 644 291 642 c 0
291 641 291 639 293 639 c 0
293 638 295 637 296 637 c 0
297 636 298 636 299 635 c 0
300 635 300 635 300 634 c 0
301 634 301 633 301 632 c 0
301 632 301 631 301 631 c 0
301 630 300 630 300 630 c 0
299 629 299 629 299 630 c 0
Z
Spiro
223 517 v
265 480 v
266 60 ]
191 -204 c
109 -113 v
180 -165 c
220 60 [
283 517 v
325 480 v
326 60 ]
220 -258 c
57 -111 v
201 -221 c
280 60 [
343 517 v
385 480 v
386 60 ]
246 -311 c
0 -109 v
225 -276 c
340 60 [
299 600 c
337 640 c
300 680 c
263 639 c
300 600 c
300 560 c
217 640 c
299 720 c
383 639 c
300 560 c
299 630 c
307 640 c
300 650 c
293 639 c
300 630 c
300 590 c
247 640 c
299 690 c
353 639 c
300 590 c
0 0 z
EndSpiro
EndSplineSet
        EndChar
StartChar: k
Encoding: 107 107 0
Width: 466
InSpiro: 1
        Flags: H
        LayerCount: 2
        Back
        SplineSet
52 718 m 0
72 700 l 0
61 75 l 0
52 718 l 0
Z
81 718 m 0
102 700 l 0
91 75 l 0
81 718 l 0
Z
111 718 m 0
132 700 l 0
121 75 l 0
111 718 l 0
Z
327 538 m 0
326 511 l 0
62 289 l 0
322 57 l 0
34 280 l 0
34 300 l 0
327 538 l 0
Z
346 515 m 0
345 488 l 0
108 290 l 0
341 80 l 0
79 280 l 0
79 300 l 0
346 515 l 0
Z
366 491 m 0
365 464 l 0
155 289 l 0
362 103 l 0
126 280 l 0
126 300 l 0
366 491 l 0
Z
Spiro
52 718 v
72 700 v
61 75 v
81 718 v
102 700 v
91 75 v
111 718 v
132 700 v
121 75 v
327 538 v
326 511 v
62 289 v
322 57 v
34 280 v
34 300 v
346 515 v
345 488 v
108 290 v
341 80 v
79 280 v
79 300 v
366 491 v
365 464 v
155 289 v
362 103 v
126 280 v
126 300 v
0 0 z
EndSpiro
EndSplineSet
        Fore
        SplineSet
-16 717 m 0
25 680 l 0
3 31 l 0
-16 717 l 0
Z
43 717 m 0
85 680 l 0
63 31 l 0
43 717 l 0
Z
103 717 m 0
145 680 l 0
123 31 l 0
103 717 l 0
Z
296 556 m 0
294 503 l 0
4 259 l 0
286 -5 l 0
-52 240 l 0
-52 280 l 0
296 556 l 0
Z
334 510 m 0
332 457 l 0
97 260 l 0
324 41 l 0
40 240 l 0
40 280 l 0
334 510 l 0
Z
373 463 m 0
371 410 l 0
190 259 l 0
363 87 l 0
133 240 l 0
133 280 l 0
373 463 l 0
Z
Spiro
-16 717 v
25 680 v
3 31 v
43 717 v
85 680 v
63 31 v
103 717 v
145 680 v
123 31 v
296 556 v
294 503 v
4 259 v
286 -5 v
-52 240 v
-52 280 v
334 510 v
332 457 v
97 260 v
324 41 v
40 240 v
40 280 v
373 463 v
371 410 v
190 259 v
363 87 v
133 240 v
133 280 v
0 0 z
EndSpiro
EndSplineSet
        EndChar
StartChar: l
Encoding: 108 108 0
Width: 376
InSpiro: 1
        Flags: H
        LayerCount: 2
        Back
        SplineSet
52 718 m 0
72 700 l 0
72 290 l 0
71 261 72 233 77 205 c 0
82 177 92 150 108 126 c 0
124 103 147 84 172 72 c 0
198 61 227 56 256 61 c 0
226 52 194 52 165 62 c 0
136 71 110 90 92 115 c 0
73 139 61 168 55 198 c 0
49 228 49 259 50 290 c 0
52 718 l 0
Z
81 718 m 0
102 700 l 0
102 290 l 0
102 266 102 241 106 218 c 0
110 194 118 171 131 151 c 0
144 131 163 114 184 104 c 0
205 93 230 88 254 90 c 0
228 83 201 84 176 93 c 0
151 102 130 118 114 139 c 0
98 160 88 185 83 211 c 0
78 237 78 263 79 290 c 0
81 718 l 0
Z
111 718 m 0
132 700 l 0
132 290 l 0
132 270 132 250 135 230 c 0
138 211 144 192 155 175 c 0
165 158 179 144 196 134 c 0
213 124 233 118 253 118 c 0
231 113 208 115 188 123 c 0
168 132 150 146 137 164 c 0
124 181 116 202 112 224 c 0
108 246 108 268 109 290 c 0
111 718 l 0
Z
Spiro
52 718 v
72 700 v
72 290 ]
256 61 v
50 290 [
81 718 v
102 700 v
102 290 ]
254 90 v
79 290 [
111 718 v
132 700 v
132 290 ]
253 118 v
109 290 [
0 0 z
EndSpiro
EndSplineSet
        Fore
        SplineSet
-16 717 m 0
25 680 l 0
26 260 l 0
26 227 26 194 32 162 c 0
38 129 50 98 70 72 c 0
89 45 116 24 146 12 c 0
176 0 210 -2 243 4 c 0
209 -13 169 -19 132 -11 c 0
95 -3 61 16 36 45 c 0
11 73 -4 109 -12 146 c 0
-20 183 -20 222 -20 260 c 0
-16 717 l 0
Z
43 717 m 0
85 680 l 0
86 260 l 0
86 235 86 211 90 187 c 0
94 164 103 141 116 120 c 0
129 100 148 84 169 73 c 0
191 62 215 57 240 60 c 0
213 47 183 44 155 51 c 0
127 57 101 73 82 95 c 0
63 117 51 145 45 173 c 0
39 201 39 231 40 260 c 0
43 717 l 0
Z
103 717 m 0
145 680 l 0
146 260 l 0
146 244 146 228 148 212 c 0
150 196 155 181 162 167 c 0
177 139 204 118 236 112 c 0
216 105 195 105 176 111 c 0
157 117 140 129 127 145 c 0
115 161 107 180 103 199 c 0
99 219 99 239 100 260 c 0
103 717 l 0
Z
Spiro
-16 717 v
25 680 v
26 260 ]
243 4 v
-20 260 [
43 717 v
85 680 v
86 260 ]
240 60 v
40 260 [
103 717 v
145 680 v
146 260 ]
236 112 v
100 260 [
0 0 z
EndSpiro
EndSplineSet
        EndChar
StartChar: m
Encoding: 109 109 0
Width: 706
InSpiro: 1
        Flags: H
        LayerCount: 2
        Back
        SplineSet
52 518 m 0
72 500 l 0
61 75 l 0
52 518 l 0
Z
81 518 m 0
102 500 l 0
91 75 l 0
81 518 l 0
Z
111 518 m 0
132 500 l 0
121 75 l 0
111 518 l 0
Z
127 60 m 0
106 79 l 0
106 370 l 0
106 370 l 0
117 360 l 0
112 375 112 392 117 408 c 0
121 424 130 438 142 449 c 0
153 461 168 469 184 472 c 0
200 476 217 475 233 471 c 0
250 465 265 455 277 442 c 0
289 428 297 412 303 395 c 0
314 362 313 325 312 290 c 0
301 75 l 0
289 290 l 0
287 320 285 351 276 380 c 0
272 395 266 409 257 421 c 0
248 434 237 444 224 452 c 0
209 459 192 463 175 461 c 0
158 459 142 452 130 441 c 0
117 430 108 415 103 399 c 0
99 383 100 365 106 350 c 0
129 350 l 0
119 360 l 0
127 60 l 0
Z
97 61 m 0
76 80 l 0
76 400 l 0
76 400 l 0
87 390 l 0
88 426 108 462 138 483 c 0
168 503 208 510 244 499 c 0
263 492 282 481 296 466 c 0
311 451 322 433 329 413 c 0
344 374 344 331 342 290 c 0
331 75 l 0
319 290 l 0
316 326 314 363 302 397 c 0
296 414 288 431 276 445 c 0
265 459 251 471 235 480 c 0
218 488 199 492 180 491 c 0
161 490 143 484 127 474 c 0
111 464 98 450 89 434 c 0
80 417 75 398 76 380 c 0
99 380 l 0
89 390 l 0
97 61 l 0
Z
68 61 m 0
48 80 l 0
48 430 l 0
48 430 l 0
59 420 l 0
70 459 98 494 134 514 c 0
170 534 215 538 255 526 c 0
300 511 337 475 356 431 c 0
374 387 374 337 372 290 c 0
361 75 l 0
349 290 l 0
346 332 343 375 327 414 c 0
312 453 284 488 246 507 c 0
207 525 161 524 123 506 c 0
85 487 56 451 48 410 c 0
70 410 l 0
60 420 l 0
68 61 l 0
Z
367 60 m 0
346 79 l 0
346 340 l 0
346 358 346 376 350 394 c 0
353 411 361 428 373 442 c 0
385 456 401 466 418 471 c 0
435 476 454 475 472 470 c 0
488 464 504 454 516 441 c 0
528 428 537 412 543 395 c 0
554 361 553 325 552 290 c 0
541 75 l 0
529 290 l 0
527 320 526 351 519 381 c 0
515 396 509 410 500 423 c 0
491 435 479 446 465 451 c 0
451 455 435 455 422 450 c 0
408 445 396 435 388 423 c 0
379 411 374 397 371 383 c 0
369 369 369 354 369 340 c 0
367 60 l 0
Z
337 61 m 0
316 80 l 0
316 340 l 0
316 363 316 387 321 409 c 0
327 432 338 454 354 471 c 0
370 488 391 500 414 504 c 0
437 509 462 507 484 499 c 0
522 484 553 451 569 413 c 0
584 374 584 331 582 290 c 0
571 75 l 0
559 290 l 0
556 326 555 363 543 398 c 0
537 415 529 432 518 446 c 0
506 461 492 473 475 480 c 0
456 487 436 488 417 483 c 0
398 478 380 466 368 451 c 0
355 436 347 417 343 398 c 0
339 379 339 359 339 340 c 0
337 61 l 0
Z
307 61 m 0
286 80 l 0
286 340 l 0
286 368 286 397 293 425 c 0
300 452 314 479 335 499 c 0
355 519 382 532 410 536 c 0
438 541 468 537 495 527 c 0
539 509 576 474 595 430 c 0
604 408 610 385 612 361 c 0
614 337 613 313 612 290 c 0
601 75 l 0
589 290 l 0
586 332 583 375 568 415 c 0
560 435 550 453 536 470 c 0
522 486 505 499 486 508 c 0
463 517 437 520 412 515 c 0
388 510 366 497 349 479 c 0
332 461 321 438 315 414 c 0
309 389 309 364 309 340 c 0
307 61 l 0
Z
Spiro
52 518 v
72 500 v
61 75 v
81 518 v
102 500 v
91 75 v
111 518 v
132 500 v
121 75 v
127 60 v
106 79 v
106 370 v
106 370 v
117 360 v
233 471 c
312 290 [
301 75 v
289 290 ]
224 452 c
106 350 v
129 350 v
119 360 v
97 61 v
76 80 v
76 400 v
76 400 v
87 390 v
244 499 c
342 290 [
331 75 v
319 290 ]
235 480 c
76 380 v
99 380 v
89 390 v
68 61 v
48 80 v
48 430 v
48 430 v
59 420 v
255 526 c
372 290 [
361 75 v
349 290 ]
246 507 c
48 410 v
70 410 v
60 420 v
367 60 v
346 79 v
346 340 ]
472 470 c
552 290 [
541 75 v
529 290 ]
465 451 c
369 340 [
337 61 v
316 80 v
316 340 ]
484 499 c
582 290 [
571 75 v
559 290 ]
475 480 c
339 340 [
307 61 v
286 80 v
286 340 ]
495 527 c
612 290 [
601 75 v
589 290 ]
486 508 c
309 340 [
0 0 z
EndSpiro
EndSplineSet
        Fore
        SplineSet
-16 517 m 0
25 480 l 0
3 31 l 0
-16 517 l 0
Z
43 517 m 0
85 480 l 0
63 31 l 0
43 517 l 0
Z
103 517 m 0
145 480 l 0
123 31 l 0
103 517 l 0
Z
136 1 m 0
94 39 l 0
94 320 l 0
94 320 l 0
115 300 l 0
105 312 99 328 99 344 c 0
99 361 104 377 113 390 c 0
122 403 135 414 150 419 c 0
165 425 182 426 198 422 c 0
213 417 227 408 238 397 c 0
249 385 257 370 262 355 c 0
271 324 269 291 266 260 c 0
243 31 l 0
220 260 l 0
217 282 216 305 211 327 c 0
209 338 205 349 200 359 c 0
195 369 188 378 179 385 c 0
164 395 145 398 128 393 c 0
111 388 97 375 90 358 c 0
84 341 86 322 95 307 c 0
104 292 121 281 139 280 c 0
139 280 l 0
119 300 l 0
136 1 l 0
Z
76 2 m 0
34 40 l 0
34 380 l 0
34 380 l 0
56 360 l 0
59 397 79 434 110 456 c 0
141 478 181 486 219 478 c 0
240 472 261 461 277 446 c 0
294 432 307 413 315 392 c 0
324 371 328 349 329 326 c 0
330 304 328 282 326 260 c 0
303 31 l 0
280 260 l 0
276 293 273 328 261 360 c 0
250 392 231 423 202 441 c 0
184 451 164 456 144 457 c 0
124 457 104 451 87 441 c 0
70 430 56 415 46 398 c 0
37 380 32 360 34 340 c 0
79 340 l 0
59 360 l 0
76 2 l 0
Z
16 2 m 0
-25 40 l 0
-24 440 l 0
-24 440 l 0
-2 420 l 0
18 463 55 499 98 519 c 0
142 540 193 544 240 533 c 0
267 525 293 513 316 495 c 0
338 477 356 454 368 428 c 0
381 402 387 374 389 345 c 0
391 317 388 288 386 260 c 0
363 31 l 0
340 260 l 0
335 305 329 352 312 394 c 0
294 436 263 474 223 496 c 0
183 516 136 519 94 505 c 0
53 491 17 459 -1 420 c 0
0 420 l 0
16 2 l 0
Z
376 1 m 0
334 39 l 0
334 310 l 0
334 324 334 339 337 354 c 0
340 368 345 382 354 394 c 0
364 405 376 414 390 419 c 0
404 424 419 425 434 422 c 0
449 418 464 409 475 398 c 0
487 386 495 372 501 356 c 0
511 325 509 292 506 260 c 0
483 31 l 0
460 260 l 0
457 282 458 306 456 329 c 0
456 340 454 352 449 362 c 0
446 367 443 372 438 376 c 0
434 379 428 382 423 383 c 0
415 383 406 381 400 376 c 0
394 371 389 364 386 357 c 0
380 342 380 325 380 310 c 0
376 1 l 0
Z
316 2 m 0
274 40 l 0
274 310 l 0
274 335 274 360 280 385 c 0
287 410 299 433 317 450 c 0
335 468 359 480 384 484 c 0
409 489 435 486 459 478 c 0
500 463 536 431 554 390 c 0
563 370 567 348 568 326 c 0
570 304 568 282 566 260 c 0
543 31 l 0
520 260 l 0
516 294 513 329 504 362 c 0
499 378 492 394 481 408 c 0
471 422 458 434 442 441 c 0
425 447 406 448 389 442 c 0
372 437 356 426 345 412 c 0
334 398 327 381 324 363 c 0
320 346 320 327 320 310 c 0
316 2 l 0
Z
256 2 m 0
214 40 l 0
214 310 l 0
214 345 214 381 224 415 c 0
233 449 252 481 279 505 c 0
305 528 339 543 375 547 c 0
410 551 446 545 480 534 c 0
506 524 532 510 554 492 c 0
576 474 594 452 607 426 c 0
619 401 626 373 629 345 c 0
631 316 628 288 626 260 c 0
603 31 l 0
580 260 l 0
575 306 570 352 552 395 c 0
535 438 505 477 463 497 c 0
437 508 408 512 380 507 c 0
352 502 326 488 307 468 c 0
287 447 274 421 267 394 c 0
261 366 260 338 260 310 c 0
256 2 l 0
Z
Spiro
-16 517 v
25 480 v
3 31 v
43 517 v
85 480 v
63 31 v
103 517 v
145 480 v
123 31 v
136 1 v
94 39 v
94 320 v
94 320 v
115 300 v
198 422 c
266 260 [
243 31 v
220 260 ]
179 385 c
139 280 v
139 280 v
119 300 v
76 2 v
34 40 v
34 380 v
34 380 v
56 360 v
219 478 c
326 260 [
303 31 v
280 260 ]
202 441 c
34 340 v
79 340 v
59 360 v
16 2 v
-25 40 v
-24 440 v
-24 440 v
-2 420 v
240 533 c
386 260 [
363 31 v
340 260 ]
223 496 c
-1 420 v
0 420 v
376 1 v
334 39 v
334 310 ]
434 422 c
506 260 [
483 31 v
460 260 ]
423 383 c
380 310 [
316 2 v
274 40 v
274 310 ]
459 478 c
566 260 [
543 31 v
520 260 ]
442 441 c
320 310 [
256 2 v
214 40 v
214 310 ]
480 534 c
626 260 [
603 31 v
580 260 ]
463 497 c
260 310 [
0 0 z
EndSpiro
EndSplineSet
        EndChar
StartChar: n
Encoding: 110 110 0
Width: 466
InSpiro: 1
        Flags: H
        LayerCount: 2
        Back
        SplineSet
60 423 m 0
60 422 l 0
60 61 l 0
60 423 l 0
Z
61 423 m 0
62 422 l 0
62 61 l 0
61 423 l 0
Z
63 423 m 0
64 422 l 0
64 61 l 0
63 423 l 0
Z
63 60 m 0
62 60 l 0
62 321 l 0
64 355 83 388 111 407 c 0
140 426 178 431 211 420 c 0
227 414 243 404 255 391 c 0
268 378 278 363 285 347 c 0
298 314 300 277 300 242 c 0
300 61 l 0
299 242 l 0
298 277 297 313 283 346 c 0
276 362 267 378 254 390 c 0
242 403 226 413 210 419 c 0
177 430 140 425 111 406 c 0
83 387 64 354 63 320 c 0
63 60 l 0
Z
61 60 m 0
60 61 l 0
60 322 l 0
62 356 81 390 111 409 c 0
140 428 178 433 212 422 c 0
229 416 244 405 257 393 c 0
269 380 279 364 286 348 c 0
300 315 302 278 302 242 c 0
302 61 l 0
301 242 l 0
300 277 299 314 285 347 c 0
278 364 268 379 256 392 c 0
243 405 227 415 211 421 c 0
178 432 140 427 111 408 c 0
82 389 63 355 61 321 c 0
61 60 l 0
Z
60 60 m 0
60 61 l 0
60 322 l 0
62 356 81 390 111 409 c 0
140 429 178 434 212 423 c 0
229 417 245 407 258 394 c 0
271 381 281 366 288 349 c 0
302 315 304 278 304 242 c 0
304 61 l 0
303 242 l 0
302 278 301 315 287 348 c 0
279 365 269 380 256 393 c 0
243 406 228 416 211 422 c 0
177 433 139 428 110 408 c 0
81 389 62 355 60 321 c 0
60 60 l 0
Z
Spiro
60 423 v
60 422 v
60 61 v
61 423 v
62 422 v
62 61 v
63 423 v
64 422 v
64 61 v
63 60 v
62 60 v
62 321 v
211 420 c
300 242 [
300 61 v
299 242 ]
210 419 c
63 320 v
61 60 v
60 61 v
60 322 v
212 422 c
302 242 [
302 61 v
301 242 ]
211 421 c
61 321 v
60 60 v
60 61 v
60 322 v
212 423 c
304 242 [
304 61 v
303 242 ]
211 422 c
60 321 v
0 0 z
EndSpiro
EndSplineSet
        Fore
        SplineSet
-16 477 m 0
25 440 l 0
3 31 l 0
-16 477 l 0
Z
43 477 m 0
85 440 l 0
63 31 l 0
43 477 l 0
Z
103 477 m 0
145 440 l 0
123 31 l 0
103 477 l 0
Z
136 1 m 0
94 39 l 0
94 319 l 0
99 340 113 359 133 371 c 0
152 382 176 386 198 381 c 0
212 377 225 370 235 360 c 0
246 351 254 338 260 325 c 0
265 312 268 297 268 283 c 0
269 268 267 254 266 240 c 0
243 31 l 0
220 240 l 0
217 259 217 278 213 297 c 0
211 307 209 316 204 325 c 0
199 333 192 340 183 344 c 0
173 347 162 346 154 340 c 0
145 335 139 326 139 316 c 0
136 1 l 0
Z
76 2 m 0
34 40 l 0
34 320 l 0
42 359 67 395 100 417 c 0
134 438 177 446 217 438 c 0
237 433 257 424 273 411 c 0
290 399 304 382 313 363 c 0
322 344 327 323 329 302 c 0
330 281 328 260 326 240 c 0
303 31 l 0
280 240 l 0
276 271 273 302 261 331 c 0
256 346 248 360 238 372 c 0
228 384 216 394 202 401 c 0
188 406 173 409 159 408 c 0
144 406 130 401 118 393 c 0
105 385 95 374 88 361 c 0
82 348 78 333 79 319 c 0
76 2 l 0
Z
16 2 m 0
-25 40 l 0
-24 322 l 0
-12 378 22 429 70 461 c 0
118 493 179 505 236 495 c 0
263 489 289 479 312 463 c 0
334 447 353 426 367 402 c 0
380 377 387 350 389 322 c 0
391 295 389 267 386 240 c 0
363 31 l 0
340 240 l 0
335 282 329 326 311 365 c 0
293 404 262 439 223 456 c 0
178 474 124 469 84 442 c 0
44 415 19 367 20 319 c 0
16 2 l 0
Z
Spiro
-16 477 v
25 440 v
3 31 v
43 477 v
85 440 v
63 31 v
103 477 v
145 440 v
123 31 v
136 1 v
94 39 v
94 319 v
198 381 c
266 240 [
243 31 v
220 240 ]
183 344 c
139 316 v
76 2 v
34 40 v
34 320 v
217 438 c
326 240 [
303 31 v
280 240 ]
202 401 c
79 319 v
16 2 v
-25 40 v
-24 322 v
236 495 c
386 240 [
363 31 v
340 240 ]
223 456 c
20 319 v
0 0 z
EndSpiro
EndSplineSet
        EndChar
StartChar: o
Encoding: 111 111 0
Width: 526
InSpiro: 1
        Flags: H
        LayerCount: 2
        Back
        SplineSet
239 510 m 0
237 486 228 463 215 444 c 0
202 424 185 407 168 391 c 0
133 359 94 330 72 289 c 0
58 263 51 233 53 204 c 0
55 175 66 147 83 123 c 0
101 100 125 82 152 72 c 0
180 62 210 61 239 69 c 0
262 75 283 87 301 102 c 0
320 118 335 136 348 157 c 0
374 197 389 243 406 289 c 0
420 328 435 367 441 409 c 0
448 450 446 494 427 531 c 0
418 550 404 567 387 579 c 0
370 592 350 599 329 600 c 0
308 601 287 595 270 582 c 0
253 570 242 550 240 530 c 0
239 523 239 516 239 510 c 0
Z
240 510 m 0
240 485 250 460 265 440 c 0
279 420 298 403 318 388 c 0
357 357 402 330 429 288 c 0
446 260 453 227 451 194 c 0
449 162 436 130 415 105 c 0
395 80 367 61 336 52 c 0
305 42 271 42 240 51 c 0
189 65 147 102 117 145 c 0
87 188 68 238 50 288 c 0
34 330 19 373 15 417 c 0
10 462 15 509 39 547 c 0
50 566 66 583 85 595 c 0
104 606 127 613 149 612 c 0
172 611 194 602 211 587 c 0
228 572 238 551 240 529 c 0
240 522 239 516 240 510 c 0
Z
239 480 m 0
238 460 231 440 221 423 c 0
210 406 197 391 182 377 c 0
154 350 121 324 102 290 c 0
89 268 83 243 84 218 c 0
85 193 93 168 107 148 c 0
121 127 142 111 165 102 c 0
188 93 214 92 239 99 c 0
258 104 276 115 292 128 c 0
307 142 319 158 330 176 c 0
350 211 362 251 376 290 c 0
387 324 401 358 407 393 c 0
414 429 413 467 398 500 c 0
390 516 379 531 365 542 c 0
350 553 333 560 315 561 c 0
297 562 278 557 264 546 c 0
250 535 240 518 239 500 c 0
238 493 239 486 239 480 c 0
Z
239 480 m 0
240 458 249 438 261 421 c 0
274 404 290 389 306 376 c 0
339 349 376 325 399 289 c 0
413 264 420 236 419 207 c 0
417 179 407 151 390 129 c 0
372 107 348 90 321 81 c 0
294 72 265 72 238 80 c 0
194 92 158 125 133 163 c 0
108 202 93 245 79 289 c 0
66 324 54 360 50 397 c 0
45 434 49 473 68 506 c 0
77 522 90 537 105 547 c 0
121 557 140 564 158 564 c 0
177 564 196 558 211 546 c 0
225 535 235 517 238 499 c 0
238 492 238 486 239 480 c 0
Z
239 450 m 0
238 433 233 417 225 403 c 0
217 389 206 376 195 364 c 0
173 340 147 318 132 290 c 0
122 272 116 251 116 231 c 0
116 210 122 190 133 172 c 0
143 155 160 141 178 133 c 0
197 125 219 123 239 129 c 0
255 133 270 142 282 154 c 0
294 165 304 179 311 194 c 0
327 224 335 257 346 290 c 0
355 318 366 346 373 375 c 0
379 404 380 436 369 463 c 0
364 477 355 490 344 500 c 0
332 510 318 516 303 518 c 0
288 519 273 516 261 507 c 0
248 498 240 484 239 470 c 0
238 463 239 456 239 450 c 0
Z
239 450 m 0
240 432 247 415 257 401 c 0
267 386 280 374 293 362 c 0
320 339 350 319 369 289 c 0
381 268 388 244 387 220 c 0
386 197 378 173 364 154 c 0
350 134 330 119 308 111 c 0
285 104 260 103 238 110 c 0
219 115 202 125 188 138 c 0
173 150 162 166 152 182 c 0
132 215 121 252 109 289 c 0
99 318 88 348 84 379 c 0
80 410 82 442 97 470 c 0
104 484 114 496 127 506 c 0
139 515 155 520 170 521 c 0
186 522 202 517 214 508 c 0
227 498 235 484 238 469 c 0
238 462 238 456 239 450 c 0
Z
Spiro
239 510 c
72 289 c
239 69 c
406 289 c
240 530 c
240 510 c
429 288 c
240 51 c
50 288 c
240 529 c
239 480 c
102 290 c
239 99 c
376 290 c
239 500 c
239 480 c
399 289 c
238 80 c
79 289 c
238 499 c
239 450 c
132 290 c
239 129 c
346 290 c
239 470 c
239 450 c
369 289 c
238 110 c
109 289 c
238 469 c
0 0 z
EndSpiro
EndSplineSet
        Fore
        SplineSet
209 500 m 0
207 474 197 449 182 428 c 0
168 406 150 388 130 370 c 0
92 336 49 304 25 259 c 0
9 230 3 198 5 166 c 0
7 135 19 104 38 78 c 0
58 53 84 33 114 23 c 0
145 12 178 11 209 20 c 0
259 33 300 71 329 115 c 0
357 159 375 209 394 259 c 0
411 303 429 348 437 396 c 0
446 443 445 493 424 537 c 0
414 559 399 578 380 593 c 0
361 608 338 617 314 619 c 0
290 620 265 614 246 600 c 0
226 585 213 563 210 540 c 0
208 526 209 513 209 500 c 0
Z
210 500 m 0
211 471 224 444 242 421 c 0
259 399 282 381 306 365 c 0
329 348 354 334 377 317 c 0
400 300 422 281 439 258 c 0
461 225 471 185 468 146 c 0
465 107 449 69 423 40 c 0
398 10 363 -11 325 -21 c 0
288 -31 247 -31 210 -20 c 0
150 -2 100 40 63 90 c 0
27 141 2 199 -19 258 c 0
-37 307 -54 357 -59 410 c 0
-64 462 -56 517 -28 562 c 0
-14 584 4 603 27 617 c 0
49 630 76 637 102 636 c 0
128 635 154 625 174 608 c 0
194 591 207 566 210 540 c 0
211 526 209 513 210 500 c 0
Z
209 440 m 0
208 421 201 403 192 387 c 0
183 371 171 357 158 343 c 0
132 317 103 292 86 260 c 0
75 239 69 216 69 193 c 0
69 170 76 147 88 127 c 0
101 108 119 92 141 83 c 0
162 74 186 73 209 79 c 0
227 83 244 94 258 107 c 0
272 120 283 135 293 152 c 0
311 186 321 223 334 260 c 0
345 293 359 326 367 361 c 0
376 396 378 433 365 466 c 0
359 483 349 499 336 511 c 0
323 523 306 531 288 534 c 0
271 536 252 533 237 523 c 0
222 513 211 497 209 480 c 0
206 466 209 453 209 440 c 0
Z
209 440 m 0
210 418 220 398 233 381 c 0
247 365 263 351 281 339 c 0
316 314 355 293 380 259 c 0
397 234 406 203 405 172 c 0
404 142 392 112 373 88 c 0
354 64 327 47 298 38 c 0
268 30 237 30 208 40 c 0
162 54 125 88 98 128 c 0
72 168 55 213 40 259 c 0
26 295 14 333 9 372 c 0
5 411 9 452 29 486 c 0
39 503 52 518 68 529 c 0
85 539 104 546 124 546 c 0
143 546 163 540 179 528 c 0
194 516 205 498 208 479 c 0
209 466 207 452 209 440 c 0
Z
209 380 m 0
208 357 197 335 184 316 c 0
171 297 156 280 146 260 c 0
139 247 134 233 133 219 c 0
132 204 133 190 139 176 c 0
145 163 155 152 167 145 c 0
179 137 195 135 209 139 c 0
220 141 231 149 239 158 c 0
247 167 252 178 257 189 c 0
265 212 267 236 274 260 c 0
280 282 289 303 297 325 c 0
304 347 309 370 305 393 c 0
303 404 299 416 292 425 c 0
285 434 276 442 265 445 c 0
254 449 242 449 231 445 c 0
220 440 212 431 209 420 c 0
207 413 207 406 207 400 c 0
208 393 209 386 209 380 c 0
Z
209 380 m 0
210 366 216 352 225 341 c 0
233 330 244 321 255 312 c 0
277 295 302 281 320 259 c 0
333 241 340 220 341 198 c 0
341 177 335 155 322 137 c 0
310 120 292 106 271 99 c 0
251 92 228 93 208 100 c 0
192 105 177 114 165 126 c 0
153 137 143 151 135 165 c 0
119 194 110 227 100 259 c 0
91 284 82 309 78 335 c 0
74 362 75 389 87 414 c 0
92 426 101 437 111 445 c 0
121 453 134 458 147 460 c 0
161 461 174 458 186 451 c 0
197 443 205 432 208 419 c 0
210 406 207 392 209 380 c 0
Z
Spiro
209 500 c
25 259 c
209 20 c
394 259 c
210 540 c
210 500 c
439 258 c
210 -20 c
-19 258 c
210 540 c
209 440 c
86 260 c
209 79 c
334 260 c
209 480 c
209 440 c
380 259 c
208 40 c
40 259 c
208 479 c
209 380 c
146 260 c
209 139 c
274 260 c
209 420 c
209 380 c
320 259 c
208 100 c
100 259 c
208 419 c
0 0 z
EndSpiro
EndSplineSet
        EndChar
StartChar: p
Encoding: 112 112 0
Width: 526
InSpiro: 1
        Flags: H
        LayerCount: 2
        Back
        SplineSet
60 423 m 0
60 422 l 0
60 -238 l 0
60 423 l 0
Z
61 423 m 0
62 422 l 0
62 -238 l 0
61 423 l 0
Z
63 423 m 0
64 422 l 0
64 -238 l 0
63 423 l 0
Z
63 319 m 0
62 320 l 0
71 350 92 378 118 396 c 0
145 414 178 422 211 420 c 0
253 416 293 393 319 360 c 0
346 327 359 284 360 242 c 0
360 199 346 155 320 122 c 0
293 88 253 65 211 62 c 0
178 59 145 67 119 85 c 0
92 103 71 131 62 162 c 0
71 131 92 104 118 86 c 0
145 69 178 60 210 63 c 0
252 66 292 89 318 122 c 0
345 155 358 198 359 241 c 0
359 283 345 326 319 359 c 0
292 392 252 415 210 419 c 0
178 421 145 412 119 394 c 0
92 376 72 349 63 319 c 0
Z
60 320 m 0
60 321 l 0
70 352 90 379 118 398 c 0
145 416 179 424 212 422 c 0
254 418 295 394 321 361 c 0
348 327 362 284 362 241 c 0
361 198 348 154 321 121 c 0
294 87 254 64 212 61 c 0
179 58 145 66 118 84 c 0
90 103 70 130 60 162 c 0
70 131 90 103 118 85 c 0
145 67 178 59 211 62 c 0
253 65 293 88 320 122 c 0
347 155 361 199 361 242 c 0
360 284 347 327 320 361 c 0
293 394 253 417 211 421 c 0
178 423 145 415 117 396 c 0
90 378 69 351 60 320 c 0
Z
60 320 m 0
60 321 l 0
70 352 90 380 118 398 c 0
145 416 179 425 212 423 c 0
255 419 296 396 323 361 c 0
350 327 364 283 364 240 c 0
363 196 349 153 322 120 c 0
295 86 254 63 212 60 c 0
179 57 145 65 118 84 c 0
91 102 70 129 60 161 c 0
70 129 90 102 117 84 c 0
145 66 178 57 211 60 c 0
254 63 294 86 322 120 c 0
349 154 362 197 363 241 c 0
363 284 349 327 322 361 c 0
294 395 254 418 211 422 c 0
178 424 144 415 117 397 c 0
90 378 69 351 60 320 c 0
Z
Spiro
60 423 v
60 422 v
60 -238 v
61 423 v
62 422 v
62 -238 v
63 423 v
64 422 v
64 -238 v
63 319 v
62 320 v
211 420 c
360 242 c
211 62 c
62 162 v
210 63 c
359 241 c
210 419 c
60 320 v
60 321 v
212 422 c
362 241 c
212 61 c
60 162 v
211 62 c
361 242 c
211 421 c
60 320 v
60 321 v
212 423 c
364 240 c
212 60 c
60 161 v
211 60 c
363 241 c
211 422 c
0 0 z
EndSpiro
EndSplineSet
        Fore
        SplineSet
-16 477 m 0
25 440 l 0
3 -268 l 0
-16 477 l 0
Z
43 477 m 0
85 440 l 0
63 -268 l 0
43 477 l 0
Z
103 477 m 0
145 440 l 0
123 -268 l 0
103 477 l 0
Z
111 241 m 0
85 289 l 0
90 315 106 340 128 356 c 0
150 373 178 381 206 379 c 0
239 376 270 358 291 332 c 0
312 306 324 273 325 240 c 0
325 205 316 170 294 143 c 0
273 116 240 99 206 99 c 0
178 98 151 110 132 129 c 0
113 149 102 176 103 204 c 0
107 182 121 162 139 150 c 0
157 138 181 133 203 138 c 0
225 142 245 156 259 174 c 0
272 193 279 216 280 239 c 0
280 262 273 285 260 304 c 0
246 322 225 336 203 340 c 0
176 344 148 334 130 315 c 0
112 295 104 266 111 241 c 0
Z
55 260 m 0
28 307 l 0
37 346 61 382 95 406 c 0
128 430 170 442 211 439 c 0
259 434 304 409 335 372 c 0
366 335 383 287 384 239 c 0
384 190 368 141 337 103 c 0
306 66 259 41 211 40 c 0
170 38 129 53 99 80 c 0
69 106 49 145 46 186 c 0
54 151 76 120 106 101 c 0
135 81 172 73 208 79 c 0
245 84 279 105 302 135 c 0
326 164 338 202 339 240 c 0
339 277 327 315 303 345 c 0
280 374 245 395 208 400 c 0
169 404 128 391 99 365 c 0
70 338 53 299 55 260 c 0
Z
0 278 m 0
-28 325 l 0
-14 377 18 424 62 456 c 0
106 487 162 502 216 498 c 0
279 492 339 460 380 412 c 0
421 364 443 301 444 238 c 0
444 174 422 111 381 63 c 0
340 15 279 -16 216 -19 c 0
162 -21 108 -3 67 30 c 0
26 64 -2 114 -10 167 c 0
2 119 33 77 73 51 c 0
114 24 164 12 213 19 c 0
264 26 313 53 346 94 c 0
380 134 398 186 399 239 c 0
399 291 381 344 348 385 c 0
314 425 265 453 213 459 c 0
161 464 107 447 67 414 c 0
28 380 3 329 0 278 c 0
Z
Spiro
-16 477 v
25 440 v
3 -268 v
43 477 v
85 440 v
63 -268 v
103 477 v
145 440 v
123 -268 v
111 241 v
85 289 v
206 379 c
325 240 c
206 99 c
103 204 v
203 138 c
280 239 c
203 340 c
55 260 v
28 307 v
211 439 c
384 239 c
211 40 c
46 186 v
208 79 c
339 240 c
208 400 c
0 278 v
-28 325 v
216 498 c
444 238 c
216 -19 c
-10 167 v
213 19 c
399 239 c
213 459 c
0 0 z
EndSpiro
EndSplineSet
        EndChar
StartChar: q
Encoding: 113 113 0
Width: 526
InSpiro: 1
        Flags: H
        LayerCount: 2
        Back
        SplineSet
351 518 m 0
372 500 l 0
361 -224 l 0
351 518 l 0
Z
381 518 m 0
402 500 l 0
391 -224 l 0
381 518 l 0
Z
411 518 m 0
432 500 l 0
421 -224 l 0
411 518 l 0
Z
434 373 m 0
409 385 l 0
401 422 378 457 347 480 c 0
315 503 275 513 237 509 c 0
187 503 141 472 113 431 c 0
84 390 71 339 72 289 c 0
72 239 85 188 114 147 c 0
143 106 187 76 237 69 c 0
277 62 319 72 353 95 c 0
387 118 411 154 421 194 c 0
413 151 389 111 355 85 c 0
321 59 276 46 234 51 c 0
179 56 128 88 96 133 c 0
64 178 49 234 50 290 c 0
50 344 65 400 97 444 c 0
130 488 179 521 234 528 c 0
280 533 329 520 366 491 c 0
403 463 428 419 434 373 c 0
Z
405 365 m 0
380 377 l 0
374 408 356 436 330 455 c 0
305 474 272 483 241 480 c 0
219 477 198 469 180 458 c 0
162 446 147 430 135 412 c 0
111 376 101 333 102 290 c 0
102 247 112 203 136 168 c 0
160 132 198 105 241 99 c 0
274 94 309 102 337 121 c 0
364 140 384 170 392 203 c 0
386 167 367 133 339 110 c 0
311 88 274 77 238 80 c 0
213 81 190 90 169 102 c 0
149 115 131 132 117 152 c 0
90 192 78 241 79 290 c 0
79 337 92 386 119 425 c 0
147 464 190 493 238 499 c 0
277 503 318 491 349 467 c 0
380 442 401 404 405 365 c 0
Z
376 355 m 0
351 368 l 0
346 392 333 415 313 430 c 0
294 445 268 452 244 450 c 0
226 448 208 441 194 431 c 0
179 421 166 407 157 392 c 0
138 361 131 324 132 289 c 0
132 253 140 217 159 187 c 0
168 172 180 158 195 148 c 0
209 137 226 130 244 128 c 0
270 123 298 130 320 145 c 0
342 160 357 184 363 211 c 0
359 181 345 154 322 135 c 0
300 116 270 106 241 109 c 0
220 110 200 117 183 128 c 0
165 139 151 154 139 172 c 0
117 206 108 248 109 290 c 0
109 330 119 371 142 405 c 0
153 421 167 436 184 447 c 0
201 459 220 466 241 469 c 0
273 472 308 462 333 441 c 0
358 420 374 387 376 355 c 0
Z
Spiro
351 518 v
372 500 v
361 -224 v
381 518 v
402 500 v
391 -224 v
411 518 v
432 500 v
421 -224 v
434 373 v
409 385 v
237 509 c
72 289 c
237 69 c
421 194 v
234 51 c
50 290 c
234 528 c
405 365 v
380 377 v
241 480 c
102 290 c
241 99 c
392 203 v
238 80 c
79 290 c
238 499 c
376 355 v
351 368 v
244 450 c
132 289 c
244 128 c
363 211 v
241 109 c
109 290 c
241 469 c
0 0 z
EndSpiro
EndSplineSet
        Fore
        SplineSet
283 517 m 0
325 480 l 0
303 -268 l 0
283 517 l 0
Z
343 517 m 0
385 480 l 0
363 -268 l 0
343 517 l 0
Z
403 517 m 0
445 480 l 0
423 -268 l 0
403 517 l 0
Z
448 325 m 0
398 351 l 0
391 395 367 437 331 464 c 0
296 491 249 504 205 499 c 0
150 492 101 459 69 414 c 0
38 369 24 313 25 259 c 0
25 204 41 150 72 105 c 0
103 61 151 28 205 19 c 0
253 10 304 21 344 49 c 0
384 77 413 121 422 170 c 0
417 116 391 64 350 29 c 0
309 -5 253 -23 200 -19 c 0
135 -13 74 23 36 76 c 0
-2 128 -19 194 -19 260 c 0
-18 324 1 388 39 440 c 0
77 492 136 529 200 538 c 0
260 546 325 527 371 487 c 0
418 447 446 386 448 325 c 0
Z
391 309 m 0
341 335 l 0
338 365 322 395 298 414 c 0
274 434 242 443 212 440 c 0
192 437 172 429 156 418 c 0
139 407 125 392 115 375 c 0
93 341 85 300 86 260 c 0
86 220 96 180 117 146 c 0
139 113 173 86 212 79 c 0
246 72 283 79 311 99 c 0
340 120 360 152 365 187 c 0
364 146 347 106 317 79 c 0
288 51 247 37 207 40 c 0
181 41 156 49 135 63 c 0
113 76 94 94 80 115 c 0
51 157 38 209 40 260 c 0
41 309 54 360 83 401 c 0
112 441 157 472 207 479 c 0
254 485 304 469 339 437 c 0
374 405 393 356 391 309 c 0
Z
333 293 m 0
283 318 l 0
283 334 276 351 264 363 c 0
252 375 234 381 218 380 c 0
204 379 192 373 182 365 c 0
171 357 163 347 157 335 c 0
146 312 143 285 145 259 c 0
146 233 150 208 161 185 c 0
167 174 175 164 184 155 c 0
194 147 205 141 218 138 c 0
238 132 260 137 277 149 c 0
294 162 305 182 307 203 c 0
310 176 302 149 284 129 c 0
267 110 241 98 215 99 c 0
196 99 178 105 162 114 c 0
147 124 134 138 124 153 c 0
104 185 98 223 100 260 c 0
101 295 109 331 129 361 c 0
138 376 151 389 165 399 c 0
180 409 197 416 215 419 c 0
248 423 283 411 306 386 c 0
329 362 339 325 333 293 c 0
Z
Spiro
283 517 v
325 480 v
303 -268 v
343 517 v
385 480 v
363 -268 v
403 517 v
445 480 v
423 -268 v
448 325 v
398 351 v
205 499 c
25 259 c
205 19 c
422 170 v
200 -19 c
-19 260 c
200 538 c
391 309 v
341 335 v
212 440 c
86 260 c
212 79 c
365 187 v
207 40 c
40 260 c
207 479 c
333 293 v
283 318 v
218 380 c
145 259 c
218 138 c
307 203 v
215 99 c
100 260 c
215 419 c
0 0 z
EndSpiro
EndSplineSet
        EndChar
